<svg xmlns="http://www.w3.org/2000/svg" width="44" height="44" viewBox="0 0 44 44"><path fill="#5F666F" d="M43.314 16.533C40.884 7.027 32.263 0 22 0 9.85 0 0 9.85 0 22c0 10.263 7.027 18.884 16.532 21.315 1.748.446 3.58.685 5.468.685 12.15 0 22-9.85 22-22a21.99 21.99 0 0 0-.686-5.467z"/><path fill="#9DDAD2" d="M35.392 12.435h3.826v1.913h-3.826z"/><path fill="#80D0BC" d="M37.305 16.261h-3.826l1.913-5.739h1.913z"/><path fill="#9DDAD2" d="M33.479 29.652h3.826v1.914h-3.826z"/><path fill="#DFF3F1" d="M21.044 10.522L15.188 22l5.856 11.478h14.348V10.522z"/><path fill="#FFF" d="M6.695 10.522h14.349v22.956H6.695z"/><path d="M8.608 12.435h1.913v19.131H8.608zm3.827 0h1.913v19.131h-1.913zm3.826 0h1.913v19.131h-1.913z" fill="#DFF3F1"/><path d="M31.565 12.435h1.913v19.131h-1.913zm-3.826 0h1.913v19.131h-1.913zm-3.826 0h1.913v19.131h-1.913zm-3.826 0H22v19.131h-1.913z" fill="#C1E8E3"/></svg>