<svg xmlns="http://www.w3.org/2000/svg" width="44" height="44" viewBox="0 0 44 44"><path fill="#5F666F" d="M43.314 16.532C40.884 7.027 32.263 0 22 0 9.85 0 0 9.85 0 22c0 10.263 7.027 18.884 16.532 21.314 1.748.448 3.58.686 5.468.686 12.15 0 22-9.85 22-22 0-1.887-.238-3.72-.686-5.468z"/><path fill="#80D0BC" d="M17.817 35.594c-6.458 0-11.712-5.254-11.712-11.711 0-6.458 5.254-11.712 11.712-11.712h8.365c6.457 0 11.712 5.253 11.712 11.712 0 6.457-5.255 11.711-11.712 11.711h-8.365z"/><path fill="#62AC91" d="M37.808 22.46h-17.48v13.134h5.855c6.457 0 11.712-5.254 11.712-11.711 0-.483-.031-.957-.087-1.423z"/><path fill="#70C6A6" d="M6.192 22.46c-.057.466-.087.94-.087 1.423 0 6.457 5.254 11.711 11.712 11.711H22V22.46H6.192z"/><path fill="#9DDAD2" d="M26.183 12.171H22l-1.673 6.692 14.818-2.51a11.69 11.69 0 0 0-8.962-4.182z"/><path fill="#DFF3F1" d="M17.817 12.171a11.692 11.692 0 0 0-8.963 4.182L22 18.863v-6.692h-4.183z"/><path fill="#70C6A6" d="M35.146 16.353H22l-1.673 4.476L22 25.305a2.844 2.844 0 0 0 2.844-2.845 2.845 2.845 0 1 0 5.689 0 2.845 2.845 0 1 0 5.689 0h1.587a11.694 11.694 0 0 0-2.663-6.107z"/><path fill="#9DDAD2" d="M8.854 16.353a11.653 11.653 0 0 0-2.662 6.107h1.587a2.844 2.844 0 1 0 5.689 0 2.844 2.844 0 1 0 5.689 0 2.844 2.844 0 0 0 2.844 2.845v-8.952H8.854z"/><path fill="#656F6D" d="M16.98 11.335v.836h1.674v-.836l-.837-1.674z"/><path fill="#FFF" d="M26.183 11.335h-8.366c-6.93 0-12.548 5.617-12.548 12.548 0 6.929 5.618 12.547 12.548 12.547h8.366c6.93 0 12.548-5.618 12.548-12.547-.001-6.931-5.619-12.548-12.548-12.548zM33.28 30.98a9.972 9.972 0 0 1-7.098 2.939H22l-.001.001h-4.182a9.972 9.972 0 0 1-7.098-2.939 9.974 9.974 0 0 1-2.94-7.098 9.973 9.973 0 0 1 2.94-7.099 9.973 9.973 0 0 1 7.098-2.94h8.366a9.973 9.973 0 0 1 7.098 2.94 9.973 9.973 0 0 1 2.94 7.099 9.965 9.965 0 0 1-2.941 7.097z"/><path fill="#54947D" d="M22.836 18.026h-1.673v-1.673l.837-.836.836.836z"/><path fill="#7D9990" d="M22 13.007h4.183v1.673H22z"/><path fill="#5F8274" d="M24.092 7.57a2.932 2.932 0 0 0-2.929 2.928h1.673a1.256 1.256 0 0 1 2.51 0v5.855h1.674v-5.856a2.932 2.932 0 0 0-2.928-2.927z"/><path fill="#7D9990" d="M22.836 16.353h-1.673v-5.855c0-.692-.563-1.255-1.255-1.255-.691 0-1.254.563-1.254 1.255v.837H16.98v-.837a2.931 2.931 0 0 1 2.928-2.928 2.932 2.932 0 0 1 2.929 2.928l-.001 5.855z"/></svg>