<svg xmlns="http://www.w3.org/2000/svg" width="44" height="44" viewBox="0 0 44 44"><path fill="#5F666F" d="M43.314 16.532C40.884 7.027 32.263 0 22 0 9.85 0 0 9.85 0 22c0 10.262 7.027 18.883 16.532 21.315 1.748.447 3.58.685 5.468.685 12.15 0 22-9.85 22-22 0-1.888-.238-3.72-.686-5.468z"/><path fill="#DFF3F1" d="M26.029 7.413c-2.666 0-4.835 2.169-4.835 4.029V25.95h2.418V12.248a2.42 2.42 0 0 1 2.417-2.418 2.42 2.42 0 0 1 2.418 2.418v2.417h2.418v-2.417a4.84 4.84 0 0 0-4.836-4.835z"/><path fill="#FFF" d="M26.029 6.606a5.649 5.649 0 0 0-5.642 5.642V25.95H22V12.248a4.035 4.035 0 0 1 4.029-4.03 4.034 4.034 0 0 1 4.03 4.03v2.417h1.612v-2.417a5.647 5.647 0 0 0-5.642-5.642z"/><path fill="#80D0BC" d="M30.06 13.86l-.806.806.806.805h2.418V13.86z"/><path fill="#9DDAD2" d="M27.642 13.86h2.418v1.611h-2.418z"/><g fill="#80D0BC"><path d="M27.641 28.904l-.806-1.397 6.978-4.031.807 1.397z"/><path d="M28.527 25.6l-5.12 1.047 1.091 8.106 5.642-6.362z"/></g><path fill="#70C6A6" d="M35.939 28.766a1.607 1.607 0 0 0-1.396-.805l-1.721-2.98-1.396.806 1.721 2.979a1.612 1.612 0 1 0 2.792 0z"/><path fill="#C1E8E3" d="M32.823 24.981L31.103 22a1.61 1.61 0 0 0-2.201-2.2 1.612 1.612 0 0 0 .806 3.007l1.721 2.98 1.394-.806z"/><g fill="#9DDAD2"><circle cx="32.125" cy="25.384" r="1.612"/><path d="M9.377 24.874l.805-1.396 6.981 4.027-.805 1.396z"/></g><path fill="#DFF3F1" d="M15.473 25.6l-1.613 2.791 5.642 6.362 1.091-8.106z"/><path fill="#80D0BC" d="M12.572 25.787l-1.396-.806-1.721 2.98a1.61 1.61 0 1 0 1.395.806l1.722-2.98z"/><path fill="#FFF" d="M15.099 19.8a1.612 1.612 0 0 0-2.201 2.2l-1.721 2.981 1.396.806 1.721-2.98a1.61 1.61 0 0 0 .805-3.007z"/><g fill="#C1E8E3"><circle cx="11.875" cy="25.384" r="1.612"/><path d="M22 24.499l-1.612 3.224h4.03v-3.224z"/></g><path fill="#DFF3F1" d="M19.582 24.499H22v3.225h-2.418z"/><path fill="#9DDAD2" d="M22 26.11l-1.612 10.478 5.641-.806V26.11z"/><g fill="#C1E8E3"><path d="M22 26.11h-4.03v9.672l4.03.806z"/><path d="M22 35.782l-.704.806.704.806h4.836v-1.612z"/></g><path fill="#FFF" d="M17.164 35.782H22v1.612h-4.836z"/></svg>