<svg xmlns="http://www.w3.org/2000/svg" width="52" height="40.656" viewBox="0 0 52 40.656"><path fill="#80D0BC" d="M0 0h52v38.361H0z"/><path fill="#ECECEE" d="M47.447 29.886V8.477a3.923 3.923 0 0 1-3.923-3.923H8.477a3.923 3.923 0 0 1-3.923 3.923v21.409a3.923 3.923 0 0 1 3.923 3.923h35.048a3.922 3.922 0 0 1 3.922-3.923z"/><path fill="#AE533F" d="M38.631 40.656l-3.448-2.627-3.612 2.627v-9.193h7.06z"/><path fill="#DAC22E" d="M40.004 29.797a4.96 4.96 0 1 1-9.92-.002 4.96 4.96 0 0 1 9.92.002z"/><path opacity=".3" fill="#5B5B5F" d="M40.004 29.797a4.96 4.96 0 0 0-4.96-4.961v13.253l.082-.06 3.447 2.627v-7.377a4.938 4.938 0 0 0 1.431-3.482z"/><path opacity=".4" fill="#5B5B5F" d="M19.218 11.435h13.565v1.131H19.218zm-5.988 4.92h25.541v1.13H13.23zm0 4.92h25.541v1.131H13.23z"/></svg>