<svg xmlns="http://www.w3.org/2000/svg" width="44" height="44" viewBox="0 0 44 44"><path fill="#5F666F" d="M43.314 16.532C40.884 7.027 32.263 0 22 0 9.85 0 0 9.85 0 22c0 10.262 7.027 18.883 16.532 21.315 1.748.447 3.58.685 5.468.685 12.15 0 22-9.85 22-22 0-1.888-.238-3.72-.686-5.468z"/><path fill="#FFF" d="M29.197 10.724H6.511v22.687h22.686l4.726-11.344z"/><path fill="#9DDAD2" d="M29.197 10.724v1.891l.945.945-.945.945v1.891l.945.945-.945.946v1.89l.945.945-.945.945v1.891l.945.945-.945.945v7.563h8.507v-7.563l-.945-.945.945-.945v-1.891l-.945-.945.945-.945v-1.89l-.945-.946.945-.945v-1.891l-.945-.945.945-.945v-1.891z"/><path fill="#C4E0DC" d="M17.854 12.615l-3.781 9.453 3.781 9.453c5.22 0 9.452-4.232 9.452-9.453.001-5.222-4.232-9.453-9.452-9.453z"/><path fill="#DFF3F1" d="M8.401 22.067a9.453 9.453 0 0 0 9.453 9.453V12.615c-5.22 0-9.453 4.231-9.453 9.452z"/><path fill="#80D0BC" d="M19.744 20.177v-2.69A2.745 2.745 0 0 0 17 14.742h-1.037v5.435h-2.69a2.744 2.744 0 0 0-2.744 2.745v1.036h5.435v2.69a2.744 2.744 0 0 0 2.745 2.745h1.036v-5.436h2.69a2.744 2.744 0 0 0 2.745-2.744v-1.037h-5.436z"/><path fill="#DFF3F1" d="M17.854 18.759l-1.324 3.309 1.324 3.308a3.308 3.308 0 1 0 0-6.617z"/><path fill="#C1E8E3" d="M14.546 22.067a3.307 3.307 0 0 0 3.309 3.308v-6.617a3.309 3.309 0 0 0-3.309 3.309z"/><path fill="#FFF" d="M17.854 20.649l-.567 1.418.567 1.417a1.418 1.418 0 0 0 0-2.835z"/><path fill="#FFF" d="M16.436 22.067c0 .783.635 1.417 1.419 1.417v-2.835c-.785 0-1.419.635-1.419 1.418z"/><path d="M29.197 12.615h8.507v1.891h-8.507zm0 3.781h8.507v1.891h-8.507zm0 3.781h8.507v1.891h-8.507zm0 3.781h8.507v1.891h-8.507zm1.89 3.781h4.727v3.781h-4.727z" fill="#C1E8E3"/></svg>