<svg xmlns="http://www.w3.org/2000/svg" width="38" height="58.913" viewBox="0 0 38 58.913"><path fill="#D1DAE3" d="M9.078 6.705L6.864.086H2.435L.221 6.705l2.354 3.126v21.786h4.149V9.831z"/><path fill="#BBC4C9" d="M3.896 31.617h-1.32V9.831c.729 0 1.32.591 1.32 1.321v20.465z"/><path fill="#BBC4C9" d="M1.067 29.828h7.164v5.022H1.067z"/><path fill="#BBC4C9" d="M1.067 29.828h2.828v5.022H1.067z"/><path fill="#80D0BC" d="M7.112 38.216c0-.654.287-1.241.742-1.643.891-.783 1.444-1.879 1.444-3.065v-.102H0v.102c0 1.187.554 2.282 1.444 3.065a2.184 2.184 0 0 1 .102 3.19C.589 40.719 0 41.983 0 43.334v10.07a4.65 4.65 0 0 0 9.298 0v-10.07c0-1.353-.59-2.615-1.546-3.571a2.177 2.177 0 0 1-.64-1.547z"/><path fill="#9DDAD2" d="M2.779 53.405v-10.07c0-1.353.237-2.615.622-3.572.159-.396.258-.942.258-1.547 0-.654-.116-1.241-.299-1.643-.358-.783-.581-1.879-.581-3.065v-.102H0v.102c0 1.187.554 2.282 1.444 3.065a2.184 2.184 0 0 1 .102 3.19C.589 40.72 0 41.983 0 43.335v10.069a4.65 4.65 0 0 0 4.649 4.65c-1.032.001-1.87-2.081-1.87-4.649z"/><path fill="#D1DAE3" d="M30.522 37.958V17.319c0-1.834.482-3.627 1.33-5.253A8.258 8.258 0 0 0 24.256.005l2.432 4.636a3.652 3.652 0 1 1-6.468 3.392L17.817 3.45a8.181 8.181 0 0 0-1.535 4.263 8.258 8.258 0 0 0 4.195 7.747c1.997 1.125 3.265 6.554 3.265 8.845v17.29c0 1.835-.482 3.627-1.331 5.253a8.26 8.26 0 0 0 7.596 12.063l-2.431-4.637a3.652 3.652 0 0 1 6.468-3.392l2.403 4.583a8.186 8.186 0 0 0 1.535-4.262 8.258 8.258 0 0 0-4.196-7.748c-1.996-1.124-3.264-3.206-3.264-5.497z"/></svg>