<svg xmlns="http://www.w3.org/2000/svg" width="68" height="38.69" viewBox="0 0 68 38.69"><path fill="#5F666F" d="M55.103 24.621H43.379v3.517H4.689c-.647 0-1.173.525-1.173 1.174v2.344c0 .648.525 1.173 1.173 1.173h50.413v-8.208h.001z"/><path fill="#F4F6F9" d="M44.551 0H1.172C.524 0 0 .525 0 1.172v25.793c0 .647.524 1.173 1.172 1.173h43.379c.648 0 1.173-.525 1.173-1.173V1.172C45.724.525 45.198 0 44.551 0z"/><path d="M42.206 25.793H3.517a1.173 1.173 0 1 1 0-2.346h38.689a1.173 1.173 0 1 1 0 2.346zm0-21.104H3.517a1.172 1.172 0 1 1 0-2.344h38.689a1.172 1.172 0 1 1 0 2.344z" fill="#C7C7CB"/><path fill="#80D0BC" d="M59.354 5.862H49.241c-.647 0-1.173.525-1.173 1.173v17.586c0 .647.525 1.173 1.173 1.173h5.275v5.861h12.311V23.28c0-1.438-.265-2.865-.781-4.208L61.543 7.365a2.345 2.345 0 0 0-2.189-1.503z"/><path fill="#9DDAD2" d="M54.517 25.793h12.311v5.861H54.517z"/><circle fill="#EBEBEC" cx="13.482" cy="32.241" r="5.374"/><path fill="#4F5255" d="M13.482 38.69a6.455 6.455 0 0 1-6.448-6.449c0-3.555 2.893-6.447 6.448-6.447s6.448 2.893 6.448 6.447a6.455 6.455 0 0 1-6.448 6.449zm0-10.553a4.108 4.108 0 0 0-4.104 4.104 4.107 4.107 0 0 0 4.104 4.104 4.109 4.109 0 0 0 4.104-4.104 4.109 4.109 0 0 0-4.104-4.104z"/><circle fill="#DAD9DC" cx="13.482" cy="32.242" r="2.345"/><circle fill="#EBEBEC" cx="54.517" cy="32.241" r="5.374"/><path fill="#4F5255" d="M54.517 38.69a6.455 6.455 0 0 1-6.448-6.449c0-3.555 2.893-6.447 6.448-6.447s6.448 2.893 6.448 6.447a6.456 6.456 0 0 1-6.448 6.449zm0-10.553a4.109 4.109 0 0 0-4.104 4.104c0 2.264 1.841 4.104 4.104 4.104s4.104-1.841 4.104-4.104a4.11 4.11 0 0 0-4.104-4.104z"/><circle fill="#DAD9DC" cx="54.517" cy="32.242" r="2.345"/><path fill="#5F666F" d="M65.654 32.828h1.173c.647 0 1.173-.525 1.173-1.173V29.31c0-.647-.525-1.173-1.173-1.173h-1.173c-.647 0-1.172.525-1.172 1.173v2.345c0 .648.525 1.173 1.172 1.173z"/><path fill="#EBEBEC" d="M65.654 23.448h1.173v3.518h-1.173a1.172 1.172 0 0 1-1.172-1.172v-1.173c0-.648.525-1.173 1.172-1.173z"/><path fill="#5F666F" d="M59 8.207h-7.414c-.647 0-1.173.525-1.173 1.172v5.862c0 .647.525 1.173 1.173 1.173h10.948a.846.846 0 0 0 .79-1.151L61.189 9.71A2.344 2.344 0 0 0 59 8.207z"/></svg>