<svg xmlns="http://www.w3.org/2000/svg" width="52" height="37.917" viewBox="0 0 52 37.917"><path fill="#9DDAD2" d="M0 28.167h52v8.666H0z"/><path fill="#80D0BC" d="M0 0h52v28.166H0z"/><path fill="#9DDAD2" d="M48.751 21.666V6.5A3.251 3.251 0 0 1 45.5 3.25H6.494A3.25 3.25 0 0 1 3.25 6.704V21.87a3.25 3.25 0 0 1 3.244 3.046H45.5a3.251 3.251 0 0 1 3.251-3.25z"/><path d="M1.084 31.416h49.834c.599 0 1.082-.483 1.082-1.082s-.483-1.083-1.082-1.083H1.084a1.082 1.082 0 1 0 0 2.165zM50.918 32.5H1.084a1.082 1.082 0 1 0 0 2.165h49.834c.599 0 1.082-.483 1.082-1.082s-.483-1.083-1.082-1.083zm0 3.251H1.084a1.08 1.08 0 1 0 0 2.164h49.834c.599 0 1.082-.483 1.082-1.082s-.483-1.082-1.082-1.082z" fill="#80D0BC"/><path fill="#F4F6F9" d="M17.334 0h17.334v28.166H17.334z"/><path fill="#E5E7EB" d="M17.334 28.167h17.334v9.75H17.334z"/></svg>