<svg xmlns="http://www.w3.org/2000/svg" width="222" height="62.695" viewBox="0 0 222 62.695"><path fill="#83D293" d="M69.761 32.087c.62 13.506-13.424 25.541-31.476 29.622C20.233 65.987 6.196 54.24 6.814 32.464 7.429 10.723 21.527-3.308 38.289.802c16.764 3.839 30.859 17.814 31.472 31.285z"/><path fill="#5EA5DD" d="M63.05 31.511c1.445 14.625-12.635 27.736-31.474 30.725-18.839 3.093-32.918-9.7-31.475-30.108C1.545 11.739 15.64-2.426 31.577.347 47.516 2.98 61.607 16.905 63.05 31.511z"/><path d="M28.086 25.919c.492 1.436.986 2.851 1.47 4.205.057.166.116.327.175.49a277.319 277.319 0 0 0 3.107-8.522h-3.969a433.288 433.288 0 0 1-1.035 3.091l.252.736zm-3.429 8.148c-.061.155-.12.318-.178.471a125.054 125.054 0 0 1-1.414 3.541 75.423 75.423 0 0 1-1.445-3.556c-.49-1.294-.981-2.63-1.473-4.012-.492-1.38-.981-2.786-1.474-4.216-.49-1.431-.973-2.831-1.444-4.203h-4.086a233.338 233.338 0 0 0 3.809 10.403 182.971 182.971 0 0 0 4.25 9.964h3.555c.595-1.28 1.176-2.593 1.752-3.92a189.073 189.073 0 0 1-1.852-4.472zm17.681 5.189c1.332 0 2.303-.226 2.908-.677.607-.451.912-1.088.912-1.91 0-.488-.104-.911-.309-1.264a3.227 3.227 0 0 0-.882-.955 7.442 7.442 0 0 0-1.396-.793 21.107 21.107 0 0 0-1.882-.721 24.472 24.472 0 0 1-2.041-.838 6.85 6.85 0 0 1-1.733-1.13c-.5-.451-.901-.99-1.206-1.617-.304-.627-.456-1.382-.456-2.264 0-1.841.638-3.286 1.911-4.335 1.273-1.048 3.009-1.572 5.201-1.572 1.275 0 2.406.144 3.396.427.988.284 1.769.592 2.336.925l-1.145 2.997a8.821 8.821 0 0 0-2.191-.852 10.196 10.196 0 0 0-2.454-.294c-.998 0-1.778.206-2.335.617-.561.41-.839.989-.839 1.734 0 .45.092.838.278 1.162.188.322.451.612.794.865.343.255.744.491 1.206.706.459.216.963.423 1.514.618.96.353 1.816.71 2.57 1.072.755.362 1.393.793 1.912 1.292.518.5.915 1.088 1.189 1.764.274.677.41 1.494.41 2.454 0 1.842-.65 3.266-1.953 4.275-1.304 1.009-3.209 1.515-5.717 1.515a15.09 15.09 0 0 1-4.16-.559 12.67 12.67 0 0 1-1.396-.483 8.512 8.512 0 0 1-.938-.456l1.087-3.028c.527.296 1.244.59 2.146.882.902.294 1.988.443 3.263.443z" fill="#FFF"/><path fill="#FFF" d="M37.474 32.103a6.83 6.83 0 0 1-.334-.278 6.385 6.385 0 0 1-1.47-1.969c-.259-.534-.424-1.142-.507-1.806a223.802 223.802 0 0 1-2.366 6.489 117.59 117.59 0 0 1-1.415 3.541 77.102 77.102 0 0 1-1.442-3.556 203.02 203.02 0 0 1-1.473-4.012 368.16 368.16 0 0 1-1.474-4.216c-.493-1.431-.974-2.831-1.443-4.203h-4.088a232.095 232.095 0 0 0 3.809 10.403 182.86 182.86 0 0 0 4.249 9.964h3.555a173.895 173.895 0 0 0 4.247-9.964l.152-.393z"/><path fill="#5EA5DD" d="M92.244 32.189a97.168 97.168 0 0 1-1.405 4.872 157.555 157.555 0 0 1-1.489 4.475h-2.823a61.791 61.791 0 0 1-1.193-2.983 93.605 93.605 0 0 1-1.253-3.579 148.866 148.866 0 0 1-1.253-4.005 199.679 199.679 0 0 1-1.224-4.29h3.638a81.3 81.3 0 0 0 .6 2.57c.229.919.466 1.856.714 2.813.248.957.505 1.889.771 2.799.268.908.534 1.742.8 2.5a104.302 104.302 0 0 0 1.623-5.482c.247-.928.479-1.832.697-2.713.219-.881.413-1.71.584-2.486h2.643c.169.776.359 1.605.565 2.486.208.881.431 1.785.667 2.713.235.927.492 1.855.765 2.783.273.928.554 1.828.836 2.699.247-.758.505-1.592.771-2.5.267-.91.528-1.842.786-2.799.257-.956.499-1.893.728-2.813.229-.918.428-1.775.6-2.57h3.553a201.3 201.3 0 0 1-1.225 4.29 144.279 144.279 0 0 1-1.253 4.005 93.052 93.052 0 0 1-1.252 3.579 44.821 44.821 0 0 1-1.224 2.983h-2.794a244.717 244.717 0 0 1-1.519-4.475 80.528 80.528 0 0 1-1.434-4.872zm18.225-5.88c1.137 0 2.092.143 2.869.426.776.285 1.396.682 1.86 1.193.465.512.796 1.132.994 1.861s.299 1.53.299 2.4v9.006c-.531.113-1.33.251-2.4.411s-2.278.242-3.622.242c-.891 0-1.705-.086-2.442-.256-.74-.171-1.369-.445-1.892-.824-.52-.379-.927-.871-1.221-1.477s-.439-1.354-.439-2.244c0-.854.165-1.572.497-2.159a4.084 4.084 0 0 1 1.349-1.435 5.852 5.852 0 0 1 1.975-.796 11.18 11.18 0 0 1 2.345-.241 10.81 10.81 0 0 1 2.527.312v-.568c0-.398-.048-.776-.142-1.136a2.395 2.395 0 0 0-.497-.952 2.347 2.347 0 0 0-.938-.64c-.388-.15-.876-.227-1.463-.227-.795 0-1.524.058-2.187.17-.664.114-1.203.246-1.62.397l-.426-2.784c.436-.151 1.07-.303 1.903-.454a15.171 15.171 0 0 1 2.671-.225zm.284 12.812c1.06 0 1.865-.058 2.415-.171v-3.807a6.903 6.903 0 0 0-.825-.17 7.633 7.633 0 0 0-1.192-.085 7.9 7.9 0 0 0-1.15.085c-.388.057-.738.161-1.051.313s-.564.365-.752.64c-.19.274-.285.62-.285 1.036 0 .814.256 1.378.767 1.69.51.314 1.201.469 2.073.469zm9.772-16.362l3.438-.569v4.489h5.284v2.869h-5.284v6.051c0 1.193.188 2.045.567 2.558.379.511 1.022.767 1.933.767.625 0 1.179-.066 1.661-.199.483-.133.868-.256 1.151-.369l.568 2.728c-.397.169-.921.345-1.563.525-.646.179-1.402.27-2.273.27-1.06 0-1.944-.142-2.656-.426-.71-.284-1.273-.696-1.691-1.236-.415-.539-.708-1.193-.88-1.96-.17-.767-.255-1.643-.255-2.627V22.759zm10.966 11.42c0-1.307.194-2.453.582-3.438.389-.984.904-1.805 1.548-2.458a6.392 6.392 0 0 1 2.217-1.477 6.851 6.851 0 0 1 2.556-.498c2.046 0 3.642.635 4.788 1.903 1.145 1.27 1.718 3.163 1.718 5.682a12.242 12.242 0 0 1-.057 1.28h-9.801c.095 1.192.517 2.115 1.265 2.77.749.652 1.832.98 3.253.98.833 0 1.596-.076 2.287-.229.69-.15 1.235-.313 1.633-.481l.454 2.812c-.189.096-.45.194-.78.299a11.14 11.14 0 0 1-1.136.283c-.427.086-.887.156-1.379.213-.493.058-.994.086-1.506.086-1.307 0-2.442-.193-3.408-.582-.967-.389-1.763-.928-2.388-1.619a6.65 6.65 0 0 1-1.392-2.443c-.303-.94-.454-1.966-.454-3.083zm9.972-1.535a4.55 4.55 0 0 0-.2-1.35 3.224 3.224 0 0 0-.581-1.106 2.749 2.749 0 0 0-.938-.739c-.369-.18-.809-.269-1.32-.269-.529 0-.995.099-1.391.297-.399.2-.736.46-1.01.782a3.6 3.6 0 0 0-.639 1.108 5.912 5.912 0 0 0-.313 1.277h6.392zm15.539-2.87a11.366 11.366 0 0 0-1.18-.298 8.746 8.746 0 0 0-1.746-.156c-.379 0-.781.038-1.208.113a7.202 7.202 0 0 0-.895.2v11.903h-3.438V27.389c.663-.246 1.492-.478 2.486-.696.994-.218 2.098-.327 3.311-.327.226 0 .49.015.795.042a14.16 14.16 0 0 1 1.789.284c.284.067.511.128.682.185l-.596 2.897z"/><path fill="#5F666F" d="M163.253 40.229c1.06 0 1.936-.175 2.626-.526.691-.351 1.038-.942 1.038-1.775a2.58 2.58 0 0 0-.185-1.022 2.012 2.012 0 0 0-.611-.767c-.284-.228-.657-.445-1.122-.653a67.448 67.448 0 0 0-1.718-.738c-.55-.229-1.07-.461-1.563-.697a6.41 6.41 0 0 1-1.306-.822 3.577 3.577 0 0 1-.91-1.124c-.227-.435-.342-.965-.342-1.59 0-1.193.45-2.158 1.35-2.897.9-.739 2.137-1.108 3.709-1.108 1.002 0 1.832.085 2.486.256.652.17 1.11.321 1.377.454l-.426 1.648c-.227-.114-.61-.265-1.151-.455-.539-.189-1.331-.285-2.371-.285-.417 0-.81.044-1.179.129-.37.085-.696.219-.98.398-.284.18-.511.408-.682.684s-.257.612-.257 1.011c0 .397.076.739.229 1.024.152.285.373.536.668.754.292.218.652.421 1.078.61.427.188.914.396 1.464.623a44.46 44.46 0 0 1 1.634.692c.521.236.979.521 1.377.851.397.332.721.729.967 1.194.246.464.369 1.046.369 1.746 0 1.325-.498 2.33-1.491 3.012-.995.682-2.354 1.022-4.076 1.022-1.289 0-2.274-.11-2.955-.327-.682-.217-1.138-.383-1.363-.497l.482-1.676c.057.038.181.1.37.185.188.086.444.18.766.284s.706.194 1.151.269c.442.075.958.113 1.547.113zm10.879-13.379h5.854v1.562h-5.854v7.812c0 .834.071 1.51.213 2.03.143.521.346.925.61 1.208.266.284.588.474.967.568a5.13 5.13 0 0 0 1.25.142c.776 0 1.401-.09 1.875-.271a8.027 8.027 0 0 0 1.108-.496l.454 1.534c-.266.17-.729.364-1.392.582a6.88 6.88 0 0 1-2.159.326c-.909 0-1.672-.118-2.287-.354a3.3 3.3 0 0 1-1.478-1.08c-.368-.482-.629-1.084-.78-1.804-.153-.719-.229-1.571-.229-2.556V22.531l1.847-.341v4.66h.001zm30.794-.286c.605 0 1.18.048 1.719.143.539.095.914.189 1.122.284l-.369 1.591c-.152-.076-.46-.157-.923-.242-.466-.085-1.075-.128-1.833-.128-.796 0-1.435.057-1.918.17-.481.114-.8.208-.951.285v12.869h-1.848V27.531c.474-.208 1.128-.421 1.961-.639.834-.218 1.846-.328 3.04-.328zm4.744 7.615c0-1.288.185-2.41.555-3.367s.852-1.756 1.448-2.4 1.279-1.123 2.046-1.435a6.228 6.228 0 0 1 2.373-.469c1.799 0 3.233.588 4.304 1.761 1.068 1.174 1.604 2.982 1.604 5.427a6.125 6.125 0 0 1-.057.879H211.63c.057 1.801.501 3.182 1.336 4.147.832.967 2.158 1.449 3.977 1.449 1.004 0 1.799-.095 2.386-.283.588-.19 1.014-.351 1.279-.483l.341 1.591c-.266.151-.763.331-1.491.54-.729.207-1.588.312-2.571.312-1.289 0-2.387-.189-3.295-.567-.91-.379-1.658-.909-2.245-1.591-.588-.683-1.012-1.491-1.278-2.429-.265-.939-.399-1.965-.399-3.082zm10.427-1.165c-.038-1.534-.398-2.728-1.08-3.58-.683-.852-1.648-1.277-2.897-1.277-.663 0-1.255.132-1.776.397a4.547 4.547 0 0 0-1.363 1.065 4.94 4.94 0 0 0-.908 1.547 6.331 6.331 0 0 0-.384 1.848h8.408zm-30.21 9.098a6.276 6.276 0 0 1-6.269-6.268c0-.508.062-1.014.184-1.504a6.218 6.218 0 0 1 .63-1.582l1.598.906a4.414 4.414 0 0 0-.573 2.179 4.436 4.436 0 0 0 4.431 4.431 4.436 4.436 0 0 0 4.302-5.495 4.395 4.395 0 0 0-.444-1.115l-.038-.074a15.588 15.588 0 0 0-3.82-5.195 15.727 15.727 0 0 0-1.686 1.757l-1.422-1.165a17.514 17.514 0 0 1 2.53-2.512l.577-.466.577.466a17.423 17.423 0 0 1 4.901 6.321 6.208 6.208 0 0 1 .791 3.047 6.274 6.274 0 0 1-6.269 6.269z"/></svg>