<svg xmlns="http://www.w3.org/2000/svg" width="100" height="92.159" viewBox="0 0 100 92.159"><path fill="#83D293" d="M90.563 34.086c.657 14.345-14.262 27.134-33.436 31.466-9.539 1.881-18.127.416-24.162-5.09-6.05-5.381-9.549-14.803-9.27-25.976.28-11.152 4.245-21.172 10.29-27.177C40.044 1.18 48.182-.935 57.131.852c17.809 4.081 32.78 18.925 33.432 33.234z"/><path fill="#5EA5DD" d="M83.434 33.474C84.969 49.01 70.014 62.935 50 66.111 29.987 69.396 15.03 55.809 16.567 34.13 18.101 12.471 33.07-2.578 50.001.368c16.93 2.798 31.902 17.591 33.433 33.106z"/><path d="M46.292 27.535a400.89 400.89 0 0 0 1.562 4.467l.186.519a296.07 296.07 0 0 0 3.302-9.052h-4.216a363.537 363.537 0 0 1-1.101 3.284l.267.782zm-3.643 8.655l-.188.5a127.725 127.725 0 0 1-1.502 3.762 81.822 81.822 0 0 1-1.533-3.777 212.03 212.03 0 0 1-1.565-4.262 437.442 437.442 0 0 1-1.565-4.479l-1.533-4.464h-4.341a250.366 250.366 0 0 0 4.045 11.051 193.368 193.368 0 0 0 4.514 10.583h3.775c.633-1.36 1.252-2.752 1.863-4.164a198.882 198.882 0 0 1-1.97-4.75zm18.783 5.511c1.415 0 2.446-.24 3.091-.718.646-.479.968-1.156.968-2.03 0-.52-.109-.968-.327-1.342a3.423 3.423 0 0 0-.938-1.015 7.865 7.865 0 0 0-1.482-.844 21.792 21.792 0 0 0-1.999-.764 27.016 27.016 0 0 1-2.169-.89 7.324 7.324 0 0 1-1.842-1.202 5.522 5.522 0 0 1-1.279-1.717c-.324-.667-.484-1.468-.484-2.404 0-1.957.676-3.491 2.029-4.605 1.353-1.113 3.194-1.67 5.525-1.67 1.353 0 2.555.152 3.605.453 1.051.303 1.879.63 2.482.983l-1.218 3.185a9.288 9.288 0 0 0-2.326-.905 10.84 10.84 0 0 0-2.606-.313c-1.062 0-1.889.218-2.481.655-.594.437-.891 1.051-.891 1.842 0 .479.099.891.297 1.233.198.343.479.651.843.921.364.271.791.521 1.28.75.489.229 1.024.448 1.608.656 1.019.375 1.93.754 2.73 1.139.802.385 1.479.843 2.029 1.374a5.36 5.36 0 0 1 1.265 1.874c.291.718.438 1.587.438 2.606 0 1.957-.692 3.471-2.076 4.542-1.385 1.072-3.408 1.608-6.072 1.608-.896 0-1.712-.058-2.451-.172a15.491 15.491 0 0 1-1.966-.421 13.535 13.535 0 0 1-1.484-.514 8.924 8.924 0 0 1-.998-.484l1.155-3.216c.562.313 1.321.625 2.278.937.957.311 2.112.468 3.466.468z" fill="#FFF"/><path fill="#FFF" d="M56.266 34.102a7.181 7.181 0 0 1-.354-.295 6.782 6.782 0 0 1-1.562-2.092c-.275-.567-.45-1.213-.539-1.919-.309.884-.619 1.763-.933 2.633a234.879 234.879 0 0 1-1.58 4.262 126.385 126.385 0 0 1-1.503 3.761 81.323 81.323 0 0 1-1.534-3.777 206.141 206.141 0 0 1-1.564-4.262 429.372 429.372 0 0 1-1.564-4.479L43.6 23.47h-4.342a249.597 249.597 0 0 0 4.045 11.052 193.364 193.364 0 0 0 4.515 10.583h3.775a185.882 185.882 0 0 0 4.513-10.583c.052-.141.105-.279.16-.42z"/><path fill="#5EA5DD" d="M7.579 85.091a69.745 69.745 0 0 1-1 3.47 108.011 108.011 0 0 1-1.063 3.187h-2.01c-.27-.62-.554-1.328-.851-2.124s-.596-1.646-.893-2.55S1.167 85.22.87 84.22c-.296-.997-.586-2.015-.87-3.054h2.592c.122.566.265 1.177.427 1.831s.332 1.322.507 2.003c.177.682.36 1.346.549 1.994.19.646.381 1.24.57 1.78a77.275 77.275 0 0 0 1.157-3.905c.175-.661.341-1.306.496-1.934.156-.626.294-1.217.416-1.77h1.883a107.963 107.963 0 0 0 .878 3.704c.167.66.35 1.322.544 1.982.195.661.395 1.302.596 1.923.176-.54.359-1.134.549-1.78a104.004 104.004 0 0 0 1.08-3.997c.161-.654.304-1.265.426-1.831h2.53a134.627 134.627 0 0 1-.872 3.055c-.297.999-.595 1.949-.892 2.854-.298.904-.595 1.754-.892 2.55s-.588 1.504-.872 2.124h-1.99A167.44 167.44 0 0 1 8.6 88.562a57.625 57.625 0 0 1-1.021-3.471zm12.981-4.189c.811 0 1.49.102 2.044.303.554.204.995.487 1.326.852.33.364.566.806.708 1.325.142.519.212 1.089.212 1.71v6.414c-.378.081-.948.179-1.709.293-.763.115-1.623.172-2.581.172a7.75 7.75 0 0 1-1.739-.182c-.526-.121-.975-.316-1.347-.587a2.779 2.779 0 0 1-.869-1.052c-.21-.432-.313-.965-.313-1.6 0-.607.117-1.119.354-1.537.234-.418.556-.759.961-1.022a4.154 4.154 0 0 1 1.405-.566 7.968 7.968 0 0 1 2.52-.121c.298.034.614.091.952.173v-.407c0-.283-.034-.552-.102-.809a1.697 1.697 0 0 0-.354-.678c-.168-.195-.392-.348-.668-.455s-.624-.162-1.041-.162c-.566 0-1.087.041-1.559.122-.473.08-.857.175-1.153.282l-.305-1.982c.311-.107.763-.217 1.356-.324a10.707 10.707 0 0 1 1.902-.162zm.202 9.127c.756 0 1.329-.041 1.721-.122v-2.712a5.538 5.538 0 0 0-1.437-.182c-.27 0-.543.021-.819.061a2.57 2.57 0 0 0-.749.223c-.223.108-.402.26-.536.455-.135.196-.203.442-.203.739 0 .58.182.98.547 1.203.363.223.856.335 1.476.335zm6.961-11.655l2.449-.405v3.197h3.764v2.044h-3.764v4.31c0 .85.134 1.457.403 1.821.271.364.729.546 1.377.546.445 0 .84-.046 1.184-.143.344-.094.617-.182.819-.262l.405 1.943a9.28 9.28 0 0 1-1.113.373c-.459.128-.999.193-1.619.193-.756 0-1.386-.103-1.892-.305s-.907-.496-1.204-.88c-.297-.385-.506-.851-.628-1.396a8.758 8.758 0 0 1-.182-1.871v-9.165zm7.81 8.133c0-.931.139-1.746.415-2.447.277-.702.645-1.286 1.104-1.751a4.543 4.543 0 0 1 1.578-1.052 4.872 4.872 0 0 1 1.82-.355c1.458 0 2.594.453 3.41 1.356.816.904 1.225 2.253 1.225 4.047a11.104 11.104 0 0 1-.04.911h-6.981c.067.85.367 1.507.9 1.973.533.465 1.305.697 2.317.697.593 0 1.136-.055 1.629-.161a6.79 6.79 0 0 0 1.163-.345l.324 2.004a3.995 3.995 0 0 1-.558.212 7.55 7.55 0 0 1-.808.202c-.305.062-.632.111-.983.152a9.225 9.225 0 0 1-1.071.061c-.932 0-1.74-.138-2.429-.415-.688-.276-1.255-.66-1.699-1.153a4.74 4.74 0 0 1-.992-1.74 7.13 7.13 0 0 1-.324-2.196zm7.104-1.092a3.24 3.24 0 0 0-.143-.962 2.315 2.315 0 0 0-.414-.788 1.961 1.961 0 0 0-.669-.526c-.263-.128-.576-.191-.939-.191-.379 0-.709.07-.992.212a2.25 2.25 0 0 0-.718.556 2.548 2.548 0 0 0-.456.79c-.107.296-.182.6-.223.91h4.554zm11.067-2.044c-.202-.066-.482-.139-.84-.212s-.772-.112-1.244-.112c-.271 0-.557.028-.86.081a5.423 5.423 0 0 0-.638.143v8.478h-2.447V81.671c.472-.176 1.062-.34 1.77-.496a11.049 11.049 0 0 1 2.358-.232c.161 0 .35.01.566.03a10.174 10.174 0 0 1 1.273.202c.203.049.364.091.486.133l-.424 2.063z"/><path fill="#5F666F" d="M58.156 90.818c.755 0 1.379-.125 1.871-.375.492-.249.739-.672.739-1.265a1.83 1.83 0 0 0-.132-.729 1.438 1.438 0 0 0-.435-.545 3.833 3.833 0 0 0-.8-.466 55.551 55.551 0 0 0-1.224-.525 21.054 21.054 0 0 1-1.113-.497 4.51 4.51 0 0 1-.931-.586 2.537 2.537 0 0 1-.648-.8c-.161-.31-.243-.688-.243-1.134 0-.85.321-1.536.962-2.063s1.521-.79 2.642-.79c.713 0 1.304.062 1.77.183.465.121.792.229.981.324l-.304 1.174c-.161-.081-.435-.189-.819-.324s-.947-.203-1.689-.203a3.71 3.71 0 0 0-.84.092 2.228 2.228 0 0 0-.698.283c-.202.129-.364.291-.485.487s-.182.437-.182.72.053.527.161.73.267.382.476.537.465.3.769.434c.304.135.651.283 1.043.444.404.161.792.325 1.163.493s.698.37.981.606.513.519.688.85c.176.33.264.745.264 1.243 0 .945-.354 1.659-1.063 2.146-.709.484-1.677.729-2.903.729-.918 0-1.619-.078-2.104-.233-.485-.154-.811-.272-.972-.354l.344-1.193c.041.027.128.07.264.132a5.72 5.72 0 0 0 1.365.393c.316.055.684.082 1.102.082zm7.749-9.531h4.169V82.4h-4.169v5.564c0 .594.051 1.076.152 1.446.101.371.245.658.435.86s.418.337.688.404c.269.068.565.102.89.102.553 0 .999-.064 1.336-.192s.601-.246.789-.354l.323 1.094c-.189.121-.519.26-.99.414a4.909 4.909 0 0 1-1.538.232c-.647 0-1.19-.084-1.63-.252-.438-.169-.789-.426-1.052-.77s-.448-.771-.557-1.285c-.108-.512-.162-1.119-.162-1.82V78.21l1.315-.242v3.319h.001zm21.934-.203c.432 0 .84.034 1.224.101.385.068.651.136.801.203l-.264 1.133c-.108-.054-.327-.111-.658-.172-.33-.061-.766-.091-1.304-.091-.568 0-1.022.04-1.367.121-.343.081-.569.148-.677.203v9.165h-1.316v-9.975c.337-.148.803-.301 1.396-.455.594-.154 1.315-.233 2.165-.233zm3.38 5.423c0-.917.131-1.716.395-2.397.263-.682.606-1.251 1.031-1.71s.911-.801 1.458-1.021a4.404 4.404 0 0 1 1.688-.335c1.281 0 2.305.419 3.066 1.255.761.836 1.143 2.124 1.143 3.865a4.238 4.238 0 0 1-.041.627h-7.345c.041 1.281.357 2.267.951 2.953.593.689 1.538 1.032 2.832 1.032.715 0 1.281-.066 1.7-.202.418-.135.722-.249.911-.344l.243 1.134c-.189.107-.543.235-1.063.384s-1.131.223-1.831.223c-.919 0-1.701-.136-2.348-.404a4.214 4.214 0 0 1-1.599-1.133 4.48 4.48 0 0 1-.911-1.73 8.175 8.175 0 0 1-.28-2.197zm7.426-.829c-.026-1.093-.283-1.944-.77-2.551-.485-.606-1.174-.909-2.063-.909a2.76 2.76 0 0 0-1.265.282c-.372.189-.695.442-.972.759s-.492.685-.646 1.103a4.537 4.537 0 0 0-.273 1.316h5.989zm-21.517 6.481a4.47 4.47 0 0 1-4.336-5.534 4.46 4.46 0 0 1 .449-1.128l1.139.646a3.113 3.113 0 0 0-.316.796 3.16 3.16 0 0 0 3.063 3.912 3.16 3.16 0 0 0 2.748-4.708l-.027-.055a11.098 11.098 0 0 0-2.721-3.699 11.26 11.26 0 0 0-1.201 1.251l-1.012-.829a12.439 12.439 0 0 1 1.802-1.789l.411-.331.411.331a12.41 12.41 0 0 1 3.49 4.503 4.423 4.423 0 0 1 .564 2.17 4.469 4.469 0 0 1-4.464 4.464z"/></svg>