<?xml version="1.0" encoding="utf-8"?>
<!-- Generator: Adobe Illustrator 16.0.0, SVG Export Plug-In . SVG Version: 6.00 Build 0)  -->
<!DOCTYPE svg PUBLIC "-//W3C//DTD SVG 1.1//EN" "http://www.w3.org/Graphics/SVG/1.1/DTD/svg11.dtd">
<svg version="1.1" id="Слой_1" xmlns="http://www.w3.org/2000/svg" xmlns:xlink="http://www.w3.org/1999/xlink" x="0px" y="0px"
	 width="16px" height="15.996px" viewBox="0 0 16 15.996" enable-background="new 0 0 16 15.996" xml:space="preserve">
<g>
	<path d="M14.814,11.169c-2.272-1.826-3.083-1.006-4.021-0.053l-0.17,0.17c-0.281,0.282-0.968-0.094-1.353-0.344
		C8.661,10.546,7.898,9.89,7.002,8.995C4.258,6.251,4.554,5.529,4.709,5.374l0.169-0.167c0.954-0.939,1.777-1.75-0.05-4.023
		c-0.62-0.77-1.224-1.157-1.848-1.182c-0.889-0.04-1.588,0.682-2.192,1.316c-0.1,0.105-0.197,0.207-0.293,0.303
		c-0.662,0.662-0.66,2.108,0.006,3.87c0.73,1.939,2.175,4.047,4.065,5.939c1.892,1.891,3.999,3.335,5.938,4.065
		c0.884,0.334,1.688,0.5,2.354,0.5c0.663,0,1.188-0.164,1.519-0.494c0.095-0.096,0.197-0.191,0.301-0.291
		c0.637-0.604,1.357-1.288,1.32-2.193C15.972,12.393,15.584,11.789,14.814,11.169z"/>
	<g>
		<path d="M12.951,6.61c-0.033,0-0.067-0.006-0.101-0.02c-0.138-0.056-0.204-0.212-0.148-0.35c0.343-0.844,0.146-1.805-0.497-2.449
			c-0.661-0.661-1.678-0.845-2.53-0.461C9.541,3.391,9.38,3.332,9.319,3.196C9.258,3.061,9.317,2.901,9.453,2.84
			c1.055-0.478,2.313-0.248,3.133,0.571c0.797,0.797,1.038,1.987,0.614,3.031C13.158,6.546,13.058,6.61,12.951,6.61z"/>
		<path d="M15.354,7.585c-0.034,0-0.067-0.006-0.102-0.02c-0.138-0.055-0.204-0.212-0.147-0.35c0.734-1.812,0.316-3.875-1.065-5.257
			c-1.42-1.419-3.603-1.818-5.433-0.99c-0.136,0.059-0.295,0-0.356-0.135C8.189,0.697,8.249,0.538,8.385,0.477
			C10.417-0.441,12.842,0,14.419,1.578c1.535,1.536,2,3.828,1.184,5.84C15.561,7.522,15.459,7.585,15.354,7.585z"/>
	</g>
</g>
</svg>
