<?xml version="1.0" encoding="utf-8"?>
<!-- Generator: Adobe Illustrator 16.0.0, SVG Export Plug-In . SVG Version: 6.00 Build 0)  -->
<!DOCTYPE svg PUBLIC "-//W3C//DTD SVG 1.1//EN" "http://www.w3.org/Graphics/SVG/1.1/DTD/svg11.dtd">
<svg version="1.1" id="Слой_1" xmlns="http://www.w3.org/2000/svg" xmlns:xlink="http://www.w3.org/1999/xlink" x="0px" y="0px"
	 width="22px" height="21.24px" viewBox="0 0 22 21.24" enable-background="new 0 0 22 21.24" xml:space="preserve">
<path fill="#C30C0A" d="M9.013,0.175c1.932-0.318,3.983-0.233,5.812,0.515c-0.416,0.037-0.83,0.09-1.246,0.123
	C9.887,1.188,6.464,3.811,5.354,7.386C5.083,8.186,5.06,9.034,4.951,9.864c0.093,0.999,0.235,2.02,0.689,2.928
	c0.677,1.369,1.86,2.52,3.312,3.034c1.312,0.5,2.818,0.492,4.11-0.068c1.804-0.732,3.158-2.479,3.379-4.417
	c0.12-1.352-0.075-2.804-0.905-3.916c-0.811-1.244-2.253-1.868-3.635-2.25c-0.088-0.966,0.234-1.928,0.795-2.707
	c0.615-0.804,1.512-1.387,2.484-1.649c3.674,1.328,6.438,4.897,6.794,8.792c0.024,1.024,0.087,2.067-0.151,3.073
	c-0.468,2.396-1.832,4.581-3.722,6.116c-1.635,1.324-3.653,2.177-5.742,2.406c-0.94,0.047-1.882,0.041-2.822-0.004
	c-1.972-0.297-3.894-1.064-5.464-2.309c-2.609-2.035-4.177-5.326-4.067-8.637c0.103-2.13,0.859-4.229,2.156-5.924
	C3.825,2.161,6.32,0.656,9.013,0.175z"/>
</svg>
