<?xml version="1.0" encoding="utf-8"?>
<!-- Generator: Adobe Illustrator 16.0.0, SVG Export Plug-In . SVG Version: 6.00 Build 0)  -->
<!DOCTYPE svg PUBLIC "-//W3C//DTD SVG 1.1//EN" "http://www.w3.org/Graphics/SVG/1.1/DTD/svg11.dtd">
<svg version="1.1" id="Слой_1" xmlns="http://www.w3.org/2000/svg" xmlns:xlink="http://www.w3.org/1999/xlink" x="0px" y="0px"
	 width="22px" height="23.706px" viewBox="0 0 22 23.706" enable-background="new 0 0 22 23.706" xml:space="preserve">
<g>
	<polygon points="21.757,6.88 21.803,6.715 21.696,6.905 21.728,6.91 	"/>
	<path d="M4.572,1.504L4.411,1.653l-0.13-0.095L4.375,1.46L4.4,1.384l0,0L4.27,1.566L0.626,0.034C0.4-0.061,0.129,0.051,0.036,0.273
		c-0.097,0.229,0.011,0.495,0.239,0.591l3.381,1.427v14.826c0,1.262,0.943,2.334,2.195,2.496l0.333,0.043l-0.172,0.288
		c-0.233,0.39-0.356,0.831-0.356,1.276c0,1.371,1.115,2.485,2.484,2.485c1.37,0,2.485-1.114,2.485-2.485
		c0-0.446-0.118-0.879-0.341-1.251l-0.2-0.333h6.8l-0.197,0.332c-0.224,0.377-0.342,0.81-0.342,1.252
		c0,1.371,1.115,2.485,2.485,2.485s2.484-1.114,2.484-2.485c0-1.369-1.114-2.484-2.484-2.484H6.175
		c-0.893,0-1.619-0.727-1.619-1.619v-2.2l0.331,0.194c0.388,0.227,0.833,0.347,1.288,0.347h13.306c1.389,0,2.519-1.13,2.519-2.52
		l-0.015-5.724c0,0.001,0,0.002,0,0.002s-0.006-0.017-0.007-0.025l-0.119-0.186C21.857,7.003,21.855,7.002,21.853,7
		c-0.006-0.005-0.011-0.01-0.017-0.014L21.82,6.975c-0.018-0.009-0.036-0.02-0.057-0.034l-0.021-0.01l0.002-0.004
		c-0.006-0.006-0.012-0.011-0.018-0.017l0.001,0c-0.021,0-0.04-0.003-0.036-0.003c0,0,0.001,0,0.003,0l0.001-0.001l-0.115-0.018
		L4.56,4.539l-0.01-2.63C4.548,1.9,4.546,1.892,4.545,1.885L4.534,1.85V1.843L4.446,1.689l0.003-0.003L4.433,1.658l0.051-0.023
		L4.572,1.504z M18.835,19.631c0.874,0,1.585,0.712,1.585,1.586c0,0.873-0.711,1.584-1.585,1.584s-1.585-0.711-1.585-1.584
		C17.25,20.343,17.961,19.631,18.835,19.631z M8.145,19.631c0.874,0,1.585,0.712,1.585,1.586c0,0.873-0.711,1.584-1.585,1.584
		s-1.584-0.711-1.584-1.584C6.561,20.343,7.271,19.631,8.145,19.631z M4.556,5.445L21.1,7.724v5.209
		c0,0.896-0.727,1.625-1.619,1.625H6.175c-0.893,0-1.619-0.727-1.619-1.62V5.445z"/>
	<polygon points="21.952,6.799 21.952,6.799 21.952,6.799 	"/>
</g>
</svg>
