<?xml version="1.0" encoding="utf-8"?>
<!-- Generator: Adobe Illustrator 16.0.0, SVG Export Plug-In . SVG Version: 6.00 Build 0)  -->
<!DOCTYPE svg PUBLIC "-//W3C//DTD SVG 1.1//EN" "http://www.w3.org/Graphics/SVG/1.1/DTD/svg11.dtd">
<svg version="1.1" id="Слой_1" xmlns="http://www.w3.org/2000/svg" xmlns:xlink="http://www.w3.org/1999/xlink" x="0px" y="0px"
	 width="21px" height="22.544px" viewBox="0 0 21 22.544" enable-background="new 0 0 21 22.544" xml:space="preserve">
<g>
	<path d="M15.966,11.535c0-0.121-0.047-0.236-0.134-0.322l-0.235-0.24c-0.031-0.046-0.071-0.085-0.116-0.116l-0.033-0.027
		l-4.015-4.015c-0.173-0.172-0.474-0.172-0.646,0c-0.179,0.179-0.179,0.402,0,0.581l3.324,3.249H0.457
		C0.205,10.644,0,10.849,0,11.101c0,0.251,0.205,0.457,0.457,0.457h14.247l-3.916,3.989c-0.18,0.179-0.18,0.502-0.002,0.68
		c0.096,0.096,0.213,0.15,0.323,0.15c0.09,0,0.219-0.021,0.323-0.125l4.399-4.396C15.919,11.77,15.966,11.655,15.966,11.535z"/>
	<path d="M21,3.046C21,1.608,19.813,0,18.227,0H9.299C7.784,0,6.352,1.48,6.352,3.046v4.065c0,0.252,0.205,0.457,0.457,0.457
		c0.253,0,0.457-0.205,0.457-0.457V3.046c0-1.056,1.026-2.132,2.033-2.132h8.928c1.064,0,1.859,1.126,1.859,2.132v17.079
		c0,0.93-0.713,1.506-1.859,1.506H9.299c-0.938,0-2.033-0.395-2.033-1.506v-4.086c0-0.252-0.204-0.457-0.457-0.457
		c-0.252,0-0.457,0.205-0.457,0.457v4.086c0,1.402,1.239,2.42,2.947,2.42h8.928c1.659,0,2.773-0.972,2.773-2.42V3.046z"/>
</g>
</svg>
