<?xml version="1.0" encoding="utf-8"?>
<!-- Generator: Adobe Illustrator 16.0.0, SVG Export Plug-In . SVG Version: 6.00 Build 0)  -->
<!DOCTYPE svg PUBLIC "-//W3C//DTD SVG 1.1//EN" "http://www.w3.org/Graphics/SVG/1.1/DTD/svg11.dtd">
<svg version="1.1" id="Слой_1" xmlns="http://www.w3.org/2000/svg" xmlns:xlink="http://www.w3.org/1999/xlink" x="0px" y="0px"
	 width="18px" height="18px" viewBox="0 0 18 18" enable-background="new 0 0 18 18" xml:space="preserve">
<g>
	<path d="M17.779,16.721l-4.327-4.327c1.073-1.308,1.72-2.983,1.72-4.809C15.172,3.398,11.773,0,7.586,0C3.395,0,0,3.398,0,7.585
		c0,4.188,3.395,7.585,7.586,7.585c1.825,0,3.497-0.643,4.805-1.715l4.327,4.324c0.294,0.293,0.768,0.293,1.062,0
		C18.073,17.489,18.073,17.011,17.779,16.721z M7.586,13.661c-3.354,0-6.079-2.725-6.079-6.075c0-3.35,2.726-6.08,6.079-6.08
		c3.35,0,6.079,2.73,6.079,6.08C13.665,10.936,10.936,13.661,7.586,13.661z"/>
</g>
</svg>
