<?xml version="1.0" encoding="utf-8"?>
<!-- Generator: Adobe Illustrator 16.0.0, SVG Export Plug-In . SVG Version: 6.00 Build 0)  -->
<!DOCTYPE svg PUBLIC "-//W3C//DTD SVG 1.1//EN" "http://www.w3.org/Graphics/SVG/1.1/DTD/svg11.dtd">
<svg version="1.1" id="Слой_1" xmlns="http://www.w3.org/2000/svg" xmlns:xlink="http://www.w3.org/1999/xlink" x="0px" y="0px"
	 width="21px" height="15.055px" viewBox="0 0 21 15.055" enable-background="new 0 0 21 15.055" xml:space="preserve">
<g>
	<path d="M0.926,1.851h19.148C20.586,1.851,21,1.436,21,0.925S20.586,0,20.074,0H0.926C0.414,0,0,0.414,0,0.925
		S0.414,1.851,0.926,1.851z"/>
	<path d="M20.074,6.602H0.926C0.414,6.602,0,7.016,0,7.527s0.414,0.926,0.926,0.926h19.148C20.586,8.453,21,8.039,21,7.527
		S20.586,6.602,20.074,6.602z"/>
	<path d="M20.074,13.204H0.926C0.414,13.204,0,13.619,0,14.13c0,0.512,0.414,0.925,0.926,0.925h19.148
		c0.512,0,0.926-0.413,0.926-0.925C21,13.619,20.586,13.204,20.074,13.204z"/>
</g>
</svg>
