<?xml version="1.0" encoding="utf-8"?>
<!-- Generator: Adobe Illustrator 16.0.0, SVG Export Plug-In . SVG Version: 6.00 Build 0)  -->
<!DOCTYPE svg PUBLIC "-//W3C//DTD SVG 1.1//EN" "http://www.w3.org/Graphics/SVG/1.1/DTD/svg11.dtd">
<svg version="1.1" id="Слой_1" xmlns="http://www.w3.org/2000/svg" xmlns:xlink="http://www.w3.org/1999/xlink" x="0px" y="0px"
	 width="14px" height="17.97px" viewBox="0 0 14 17.97" enable-background="new 0 0 14 17.97" xml:space="preserve">
<g>
	<g>
		<path d="M7,15.828c-0.672,0-1.217-0.545-1.217-1.217V1.216C5.783,0.544,6.328,0,7,0s1.217,0.544,1.217,1.216v13.395
			C8.217,15.283,7.672,15.828,7,15.828z"/>
	</g>
	<g>
		<path d="M1.693,10.544c-0.188-0.179-0.433-0.277-0.69-0.277c-0.276,0-0.535,0.111-0.727,0.313C0.098,10.767,0,11.012,0,11.27
			c0,0.277,0.112,0.536,0.314,0.73l6.013,5.716c0.357,0.339,1.028,0.338,1.385-0.002l5.979-5.719
			c0.194-0.186,0.304-0.435,0.31-0.702c0.006-0.269-0.093-0.522-0.277-0.714c-0.354-0.372-1.049-0.386-1.419-0.033l-5.288,5.058
			L1.693,10.544z"/>
	</g>
</g>
</svg>
