<?xml version="1.0" encoding="utf-8"?>
<!-- Generator: Adobe Illustrator 16.0.0, SVG Export Plug-In . SVG Version: 6.00 Build 0)  -->
<!DOCTYPE svg PUBLIC "-//W3C//DTD SVG 1.1//EN" "http://www.w3.org/Graphics/SVG/1.1/DTD/svg11.dtd">
<svg version="1.1" id="Слой_1" xmlns="http://www.w3.org/2000/svg" xmlns:xlink="http://www.w3.org/1999/xlink" x="0px" y="0px"
	 width="12px" height="12px" viewBox="0 0 12 12" enable-background="new 0 0 12 12" xml:space="preserve">
<path d="M6,0C2.688,0,0,2.686,0,6c0,3.313,2.688,6,6,6c3.313,0,6-2.687,6-6C12,2.686,9.313,0,6,0z M7.947,6.524l-2.23,2.345
	C5.564,9.03,5.361,9.11,5.159,9.11c-0.192,0-0.385-0.07-0.532-0.213c-0.31-0.292-0.321-0.781-0.028-1.088l1.726-1.815L4.602,4.193
	C4.307,3.886,4.317,3.398,4.626,3.102C4.933,2.81,5.421,2.819,5.715,3.127l2.23,2.333C8.229,5.757,8.23,6.225,7.947,6.524z"/>
</svg>
