<?xml version="1.0" encoding="utf-8"?>
<!-- Generator: Adobe Illustrator 16.0.0, SVG Export Plug-In . SVG Version: 6.00 Build 0)  -->
<!DOCTYPE svg PUBLIC "-//W3C//DTD SVG 1.1//EN" "http://www.w3.org/Graphics/SVG/1.1/DTD/svg11.dtd">
<svg version="1.1" id="Слой_1" xmlns="http://www.w3.org/2000/svg" xmlns:xlink="http://www.w3.org/1999/xlink" x="0px" y="0px"
	 width="16px" height="16.959px" viewBox="0 0 16 16.959" enable-background="new 0 0 16 16.959" xml:space="preserve">
<path d="M12.892,10.75c-0.934,0-1.803,0.412-2.398,1.135L6.063,9.409c0.095-0.301,0.144-0.615,0.144-0.933
	c0-0.32-0.049-0.635-0.146-0.937l4.427-2.471c0.593,0.727,1.462,1.142,2.401,1.142c1.712,0,3.105-1.393,3.105-3.104S14.6,0,12.888,0
	S9.783,1.393,9.783,3.105c0,0.323,0.049,0.638,0.146,0.937L5.507,6.513c-0.59-0.727-1.46-1.142-2.402-1.142
	C1.393,5.371,0,6.764,0,8.476s1.395,3.104,3.108,3.104c0.938,0,1.811-0.416,2.405-1.145l4.426,2.474
	c-0.099,0.309-0.149,0.626-0.149,0.944c0,1.712,1.393,3.105,3.105,3.105c1.711,0,3.104-1.394,3.104-3.105S14.605,10.75,12.892,10.75
	z M12.892,11.911c1.069,0,1.939,0.87,1.939,1.94c0,1.069-0.87,1.939-1.939,1.939c-1.07,0-1.939-0.87-1.939-1.939
	C10.952,12.781,11.821,11.911,12.892,11.911z M12.892,5.048c-1.07,0-1.939-0.87-1.939-1.94s0.869-1.94,1.939-1.94
	c1.069,0,1.939,0.87,1.939,1.94S13.961,5.048,12.892,5.048z M3.108,10.417c-1.069,0-1.94-0.871-1.94-1.94
	c0-1.07,0.871-1.94,1.94-1.94s1.939,0.87,1.939,1.94C5.048,9.545,4.178,10.417,3.108,10.417z"/>
</svg>
