<?xml version="1.0" encoding="utf-8"?>
<!-- Generator: Adobe Illustrator 16.0.0, SVG Export Plug-In . SVG Version: 6.00 Build 0)  -->
<!DOCTYPE svg PUBLIC "-//W3C//DTD SVG 1.1//EN" "http://www.w3.org/Graphics/SVG/1.1/DTD/svg11.dtd">
<svg version="1.1" id="Слой_1" xmlns="http://www.w3.org/2000/svg" xmlns:xlink="http://www.w3.org/1999/xlink" x="0px" y="0px"
	 width="15px" height="15.071px" viewBox="0 0 15 15.071" enable-background="new 0 0 15 15.071" xml:space="preserve">
<g>
	<g>
		<path d="M7.838,7.235L0.729,0.126c-0.168-0.168-0.437-0.168-0.604,0c-0.167,0.167-0.167,0.436,0,0.603l6.806,6.807l-6.806,6.806
			c-0.167,0.167-0.167,0.436,0,0.604c0.082,0.082,0.192,0.126,0.3,0.126s0.218-0.042,0.3-0.126l7.109-7.11
			C8.002,7.671,8.002,7.399,7.838,7.235z"/>
	</g>
	<g>
		<path d="M14.877,7.235L7.768,0.126c-0.168-0.168-0.437-0.168-0.604,0c-0.168,0.167-0.168,0.436,0,0.603l6.807,6.807l-6.807,6.806
			c-0.168,0.167-0.168,0.436,0,0.604c0.082,0.082,0.192,0.126,0.3,0.126s0.218-0.042,0.3-0.126l7.109-7.11
			C15.042,7.671,15.042,7.399,14.877,7.235z"/>
	</g>
</g>
</svg>
