<?xml version="1.0" encoding="utf-8"?>
<!-- Generator: Adobe Illustrator 16.0.0, SVG Export Plug-In . SVG Version: 6.00 Build 0)  -->
<!DOCTYPE svg PUBLIC "-//W3C//DTD SVG 1.1//EN" "http://www.w3.org/Graphics/SVG/1.1/DTD/svg11.dtd">
<svg version="1.1" id="Слой_1" xmlns="http://www.w3.org/2000/svg" xmlns:xlink="http://www.w3.org/1999/xlink" x="0px" y="0px"
	 width="16px" height="16px" viewBox="0 0 16 16" enable-background="new 0 0 16 16" xml:space="preserve">
<path d="M8,0C3.582,0,0,3.582,0,8c0,4.419,3.582,8,8,8c4.419,0,8-3.581,8-8C16,3.582,12.419,0,8,0z M8.683,11.9H7.329V6.048h1.354
	V11.9z M8.582,4.94C8.418,5.089,8.225,5.164,8,5.164c-0.23,0-0.429-0.074-0.593-0.224C7.243,4.791,7.161,4.589,7.161,4.336
	c0-0.261,0.082-0.466,0.246-0.616C7.571,3.571,7.77,3.497,8,3.497c0.225,0,0.418,0.075,0.582,0.224
	C8.746,3.87,8.828,4.075,8.828,4.336C8.828,4.589,8.746,4.791,8.582,4.94z"/>
</svg>
