<?xml version="1.0" encoding="utf-8"?>
<!-- Generator: Adobe Illustrator 16.0.0, SVG Export Plug-In . SVG Version: 6.00 Build 0)  -->
<!DOCTYPE svg PUBLIC "-//W3C//DTD SVG 1.1//EN" "http://www.w3.org/Graphics/SVG/1.1/DTD/svg11.dtd">
<svg version="1.1" id="Слой_1" xmlns="http://www.w3.org/2000/svg" xmlns:xlink="http://www.w3.org/1999/xlink" x="0px" y="0px"
	 width="17px" height="17px" viewBox="0 0 17 17" enable-background="new 0 0 17 17" xml:space="preserve">
<g>
	<path d="M8.501,0C3.813,0,0,3.813,0,8.5C0,13.187,3.813,17,8.501,17C13.188,17,17,13.187,17,8.5C17,3.813,13.188,0,8.501,0z
		 M8.501,16.277c-4.289,0-7.778-3.488-7.778-7.777c0-4.289,3.489-7.777,7.778-7.777c4.288,0,7.776,3.489,7.776,7.777
		C16.277,12.789,12.789,16.277,8.501,16.277z"/>
	<polygon points="11.391,6.315 10.679,5.603 8.494,7.787 6.32,5.613 5.606,6.326 7.782,8.5 5.606,10.675 6.32,11.388 8.494,9.213 
		10.679,11.397 11.391,10.685 9.207,8.5 	"/>
</g>
</svg>
