<?xml version="1.0" encoding="utf-8"?>
<!-- Generator: Adobe Illustrator 16.0.0, SVG Export Plug-In . SVG Version: 6.00 Build 0)  -->
<!DOCTYPE svg PUBLIC "-//W3C//DTD SVG 1.1//EN" "http://www.w3.org/Graphics/SVG/1.1/DTD/svg11.dtd">
<svg version="1.1" id="Слой_1" xmlns="http://www.w3.org/2000/svg" xmlns:xlink="http://www.w3.org/1999/xlink" x="0px" y="0px"
	 width="20px" height="20px" viewBox="0 0 20 20" enable-background="new 0 0 20 20" xml:space="preserve">
<g>
	<path d="M10.001,0C4.486,0,0,4.486,0,10c0,5.514,4.486,10,10.001,10C15.515,20,20,15.514,20,10C20,4.486,15.515,0,10.001,0z
		 M10.001,19.15c-5.046,0-9.15-4.104-9.15-9.15s4.104-9.149,9.15-9.149c5.045,0,9.149,4.104,9.149,9.149S15.046,19.15,10.001,19.15z
		"/>
	<path d="M10.476,6.146c-0.264-0.251-0.71-0.25-0.973,0.001L6.123,9.38C5.987,9.51,5.91,9.686,5.906,9.874
		c-0.004,0.188,0.064,0.367,0.195,0.502c0.261,0.273,0.724,0.283,0.996,0.022L9.313,8.28v5.074c0,0.38,0.309,0.688,0.688,0.688
		c0.379,0,0.688-0.308,0.688-0.688V8.292l2.218,2.108c0.131,0.125,0.303,0.194,0.484,0.194c0.195,0,0.377-0.078,0.511-0.218
		c0.125-0.133,0.194-0.305,0.194-0.486c0-0.195-0.078-0.376-0.221-0.512L10.476,6.146z"/>
</g>
</svg>
