<?xml version="1.0" encoding="utf-8"?>
<!-- Generator: Adobe Illustrator 16.0.0, SVG Export Plug-In . SVG Version: 6.00 Build 0)  -->
<!DOCTYPE svg PUBLIC "-//W3C//DTD SVG 1.1//EN" "http://www.w3.org/Graphics/SVG/1.1/DTD/svg11.dtd">
<svg version="1.1" id="Слой_1" xmlns="http://www.w3.org/2000/svg" xmlns:xlink="http://www.w3.org/1999/xlink" x="0px" y="0px"
	 width="15px" height="13.378px" viewBox="0 0 15 13.378" enable-background="new 0 0 15 13.378" xml:space="preserve">
<g>
	<path id="Fax_3_" d="M14.388,2.265c-0.612,0-1.225,0-1.837,0c0-0.551,0-1.102,0-1.653C12.551,0.274,12.277,0,11.938,0
		C8.979,0,6.021,0,3.062,0C2.723,0,2.449,0.274,2.449,0.612c0,0.551,0,1.102,0,1.653c-0.612,0-1.225,0-1.837,0
		C0.274,2.265,0,2.54,0,2.878c0,2,0,4,0,6C0,9.215,0.274,9.49,0.612,9.49c0.612,0,1.225,0,1.837,0c0,0.723,0,1.445,0,2.168
		c0,0.354,0,0.705,0,1.059c0,0.203,0.041,0.355,0.199,0.5c0.073,0.067,0.151,0.111,0.247,0.138c0.089,0.025,0.177,0.023,0.267,0.023
		c1.446,0,2.892,0,4.338,0s2.892,0,4.338,0c0.09,0,0.178,0.002,0.267-0.023c0.096-0.026,0.175-0.07,0.248-0.138
		c0.157-0.145,0.198-0.297,0.198-0.501c0-0.353,0-0.706,0-1.059c0-0.723,0-1.445,0-2.167c0.612,0,1.225,0,1.837,0
		C14.726,9.49,15,9.215,15,8.878c0-2,0-4,0-6C15,2.54,14.726,2.265,14.388,2.265z M1.53,4.423c-0.295,0-0.535-0.24-0.535-0.536
		s0.24-0.536,0.535-0.536c0.296,0,0.536,0.24,0.536,0.536S1.826,4.423,1.53,4.423z M11.938,12.766H3.062V7.929h8.877V12.766
		L11.938,12.766z M11.938,2.265c-2.959,0-5.918,0-8.877,0c0-0.347,0-0.694,0-1.041c0-0.337,0.273-0.612,0.612-0.612
		c2.551,0,5.102,0,7.652,0c0.339,0,0.612,0.274,0.612,0.612C11.938,1.571,11.938,1.918,11.938,2.265z"/>
</g>
</svg>
