<?xml version="1.0" encoding="utf-8"?>
<!-- Generator: Adobe Illustrator 16.0.0, SVG Export Plug-In . SVG Version: 6.00 Build 0)  -->
<!DOCTYPE svg PUBLIC "-//W3C//DTD SVG 1.1//EN" "http://www.w3.org/Graphics/SVG/1.1/DTD/svg11.dtd">
<svg version="1.1" id="Слой_1" xmlns="http://www.w3.org/2000/svg" xmlns:xlink="http://www.w3.org/1999/xlink" x="0px" y="0px"
	 width="17px" height="23.471px" viewBox="0 0 17 23.471" enable-background="new 0 0 17 23.471" xml:space="preserve">
<path d="M17,6.679V2.763h-5.317V2.04c0-1.125-0.915-2.04-2.039-2.04H7.357c-1.125,0-2.04,0.915-2.04,2.04v0.724H0v3.916h1.144
	l2.018,16.792h10.678l2.019-16.792H17z M6.147,2.04c0-0.667,0.543-1.209,1.21-1.209h2.286c0.666,0,1.209,0.542,1.209,1.209v0.724
	H6.147V2.04z M0.831,5.849V3.594h15.338v2.255H0.831z M13.103,22.64H3.897L1.979,6.679h13.041L13.103,22.64z"/>
<rect x="-0.273" y="14.305" transform="matrix(0.053 0.9986 -0.9986 0.053 19.9371 8.4179)" width="11.607" height="0.831"/>
<rect x="8.085" y="8.925" width="0.83" height="11.589"/>
<rect x="5.666" y="14.305" transform="matrix(0.053 -0.9986 0.9986 0.053 -3.838 25.3938)" width="11.607" height="0.831"/>
</svg>
