<?xml version="1.0" encoding="utf-8"?>
<!-- Generator: Adobe Illustrator 16.0.0, SVG Export Plug-In . SVG Version: 6.00 Build 0)  -->
<!DOCTYPE svg PUBLIC "-//W3C//DTD SVG 1.1//EN" "http://www.w3.org/Graphics/SVG/1.1/DTD/svg11.dtd">
<svg version="1.1" id="Слой_1" xmlns="http://www.w3.org/2000/svg" xmlns:xlink="http://www.w3.org/1999/xlink" x="0px" y="0px"
	 width="21.001px" height="19.581px" viewBox="0 0 21.001 19.581" enable-background="new 0 0 21.001 19.581" xml:space="preserve">
<g>
	<path d="M20.997,6.06c0-0.008-0.004-0.02-0.004-0.028s-0.004-0.016-0.004-0.024c-0.005-0.008-0.005-0.016-0.008-0.028
		c-0.004-0.008-0.004-0.016-0.009-0.024c-0.004-0.008-0.004-0.016-0.008-0.024c-0.004-0.009-0.008-0.016-0.013-0.028
		c-0.004-0.008-0.008-0.016-0.012-0.02c-0.004-0.008-0.008-0.016-0.012-0.024c-0.004-0.008-0.008-0.012-0.012-0.021
		C20.912,5.83,20.904,5.822,20.9,5.814c-0.004-0.008-0.009-0.012-0.016-0.021c-0.005-0.007-0.013-0.012-0.017-0.02
		c-0.004-0.008-0.013-0.012-0.016-0.021c-0.004-0.007-0.013-0.012-0.017-0.016c-0.008-0.008-0.013-0.012-0.021-0.02
		c-0.008-0.005-0.012-0.013-0.02-0.017s-0.016-0.012-0.024-0.016c-0.008-0.004-0.012-0.007-0.021-0.012
		c-0.008-0.004-0.016-0.008-0.023-0.016c-0.008-0.003-0.017-0.008-0.024-0.012c-0.009-0.004-0.016-0.008-0.024-0.012
		c-0.008-0.004-0.016-0.008-0.023-0.012c-0.009-0.004-0.017-0.004-0.024-0.008c-0.008-0.003-0.021-0.008-0.028-0.008
		s-0.016-0.004-0.021-0.004c-0.012-0.004-0.02-0.004-0.032-0.004c-0.004,0-0.008-0.004-0.016-0.004L6.859,3.706V1.797
		c0-0.02,0-0.04-0.004-0.056c0-0.004,0-0.008-0.004-0.016c0-0.012-0.005-0.024-0.005-0.036c-0.004-0.011-0.004-0.02-0.008-0.032
		c0-0.008-0.004-0.012-0.004-0.02C6.831,1.625,6.827,1.612,6.823,1.601c0-0.004-0.004-0.013-0.004-0.016
		C6.815,1.572,6.812,1.564,6.803,1.552C6.799,1.548,6.799,1.54,6.795,1.536C6.791,1.528,6.787,1.521,6.778,1.512
		C6.774,1.504,6.771,1.5,6.767,1.492S6.759,1.48,6.755,1.472C6.751,1.463,6.742,1.456,6.738,1.447
		C6.734,1.444,6.73,1.439,6.727,1.435C6.719,1.428,6.71,1.419,6.702,1.411C6.698,1.407,6.694,1.403,6.69,1.399
		C6.683,1.391,6.674,1.383,6.662,1.375C6.658,1.371,6.649,1.367,6.646,1.363C6.638,1.355,6.63,1.351,6.622,1.343
		C6.609,1.335,6.598,1.327,6.59,1.323C6.586,1.318,6.581,1.318,6.577,1.315C6.562,1.306,6.541,1.299,6.525,1.291L3.56,0.043
		c-0.278-0.117-0.596,0.012-0.713,0.29C2.73,0.61,2.859,0.928,3.137,1.045l2.632,1.111v2.463v0.39v1.01h1.087V5.001V4.8l13.06,1.799
		v4.069c0,0.631-0.512,1.138-1.136,1.138H7.99c-0.628,0-1.135-0.51-1.135-1.135v-0.082H5.769v0.09v3.381
		c0,1.126,0.845,2.06,1.936,2.201c-0.197,0.329-0.313,0.716-0.313,1.126c0,1.212,0.985,2.193,2.193,2.193
		c1.207,0,2.193-0.985,2.193-2.193c0-0.402-0.109-0.785-0.302-1.106h4.885c-0.192,0.326-0.302,0.704-0.302,1.106
		c0,1.212,0.986,2.193,2.193,2.193c1.208,0,2.193-0.985,2.193-2.193c0-1.207-0.985-2.192-2.193-2.192H7.99
		c-0.628,0-1.135-0.512-1.135-1.135v-1.474c0.33,0.193,0.721,0.307,1.135,0.307h10.789c1.224,0,2.222-0.999,2.222-2.223V6.132
		c0-0.004,0-0.012,0-0.016c0-0.012,0-0.02,0-0.032C21.001,6.075,21.001,6.067,20.997,6.06z M18.256,16.277
		c0.608,0,1.107,0.495,1.107,1.106c0,0.612-0.499,1.107-1.107,1.107c-0.607,0-1.106-0.5-1.106-1.107S17.648,16.277,18.256,16.277z
		 M9.588,16.277c0.607,0,1.106,0.495,1.106,1.106c0,0.612-0.499,1.107-1.106,1.107s-1.106-0.5-1.106-1.107S8.98,16.277,9.588,16.277
		z"/>
	<path d="M3.372,11.823c0.141,0.146,0.374,0.146,0.52,0c0.141-0.141,0.141-0.375,0-0.516L1.254,8.671h6.92
		c0.202,0,0.363-0.161,0.363-0.364s-0.161-0.37-0.363-0.37h-6.92l2.638-2.633c0.141-0.145,0.141-0.379,0-0.52
		c-0.146-0.145-0.38-0.145-0.52,0L0.11,8.046c-0.146,0.141-0.146,0.375,0,0.515L3.372,11.823z"/>
</g>
</svg>
