<?xml version="1.0" encoding="utf-8"?>
<!-- Generator: Adobe Illustrator 16.0.0, SVG Export Plug-In . SVG Version: 6.00 Build 0)  -->
<!DOCTYPE svg PUBLIC "-//W3C//DTD SVG 1.1//EN" "http://www.w3.org/Graphics/SVG/1.1/DTD/svg11.dtd">
<svg version="1.1" id="Слой_1" xmlns="http://www.w3.org/2000/svg" xmlns:xlink="http://www.w3.org/1999/xlink" x="0px" y="0px"
	 width="24px" height="24px" viewBox="0 0 24 24" enable-background="new 0 0 24 24" xml:space="preserve">
<path d="M12.001,0C5.384,0,0,5.383,0,12s5.384,12,12.001,12C18.616,24,24,18.617,24,12S18.616,0,12.001,0z M13.299,5.104
	l-0.362,9.384h-1.893l-0.363-9.384H13.299z M11.99,18.896c-0.906,0-1.53-0.664-1.51-1.57c0-0.926,0.623-1.57,1.51-1.57
	c0.926,0,1.51,0.645,1.53,1.57C13.521,18.232,12.916,18.896,11.99,18.896z"/>
</svg>
