<?xml version="1.0" encoding="utf-8"?>
<!-- Generator: Adobe Illustrator 16.0.0, SVG Export Plug-In . SVG Version: 6.00 Build 0)  -->
<!DOCTYPE svg PUBLIC "-//W3C//DTD SVG 1.1//EN" "http://www.w3.org/Graphics/SVG/1.1/DTD/svg11.dtd">
<svg version="1.1" id="Слой_1" xmlns="http://www.w3.org/2000/svg" xmlns:xlink="http://www.w3.org/1999/xlink" x="0px" y="0px"
	 width="22px" height="23.674px" viewBox="0 0 22 23.674" enable-background="new 0 0 22 23.674" xml:space="preserve">
<g>
	<path d="M21.995,7.326c0-0.009-0.004-0.024-0.004-0.034s-0.006-0.02-0.006-0.029c-0.005-0.009-0.005-0.02-0.01-0.034
		c-0.004-0.01-0.004-0.02-0.01-0.029c-0.005-0.01-0.005-0.02-0.01-0.029c-0.005-0.01-0.009-0.02-0.014-0.034
		c-0.006-0.01-0.01-0.02-0.015-0.024c-0.005-0.01-0.011-0.019-0.016-0.029c-0.005-0.01-0.009-0.015-0.014-0.024
		c-0.005-0.01-0.015-0.02-0.02-0.03c-0.005-0.009-0.011-0.014-0.02-0.024c-0.005-0.009-0.015-0.014-0.02-0.024
		s-0.015-0.015-0.02-0.025c-0.005-0.009-0.015-0.014-0.02-0.019c-0.01-0.01-0.015-0.015-0.024-0.024
		c-0.01-0.005-0.015-0.015-0.024-0.02c-0.01-0.005-0.019-0.015-0.029-0.021c-0.01-0.004-0.015-0.009-0.024-0.014
		c-0.009-0.005-0.02-0.01-0.029-0.02c-0.01-0.005-0.02-0.01-0.028-0.014c-0.011-0.005-0.02-0.01-0.03-0.015
		c-0.009-0.005-0.019-0.009-0.028-0.015c-0.01-0.005-0.02-0.005-0.029-0.009c-0.01-0.005-0.024-0.01-0.034-0.01
		s-0.02-0.005-0.024-0.005c-0.015-0.005-0.024-0.005-0.039-0.005c0,0-0.01-0.004-0.02-0.004l-0.749-0.104v1.32v3.147v1.771
		c0,0.764-0.617,1.377-1.372,1.377H6.271c-0.759,0-1.372-0.617-1.372-1.372V9.667v-3.62V5.803l0.005,0.001V4.48V2.173
		c0-0.024,0-0.049-0.005-0.068c0-0.004,0-0.01-0.005-0.019c0-0.015-0.006-0.029-0.006-0.044C4.884,2.028,4.884,2.018,4.879,2.003
		c0-0.01-0.005-0.015-0.005-0.024c-0.006-0.015-0.01-0.03-0.016-0.044c0-0.005-0.004-0.015-0.004-0.02
		c-0.005-0.015-0.01-0.024-0.02-0.039C4.83,1.872,4.83,1.862,4.825,1.857c-0.005-0.01-0.01-0.019-0.02-0.028
		c-0.005-0.01-0.01-0.015-0.015-0.024c-0.005-0.01-0.01-0.016-0.015-0.024c-0.005-0.01-0.015-0.02-0.02-0.03
		c-0.005-0.004-0.01-0.01-0.015-0.014c-0.01-0.01-0.02-0.02-0.029-0.03c-0.005-0.004-0.01-0.009-0.015-0.014
		c-0.01-0.01-0.02-0.019-0.034-0.029c-0.005-0.005-0.015-0.01-0.019-0.015c-0.01-0.01-0.02-0.015-0.029-0.024
		c-0.015-0.009-0.029-0.02-0.039-0.024c-0.005-0.005-0.01-0.005-0.016-0.01C4.543,1.58,4.519,1.57,4.499,1.56L0.913,0.052
		c-0.336-0.142-0.72,0.014-0.861,0.35c-0.141,0.335,0.015,0.72,0.351,0.862l3.182,1.342v2.978v0.472v3.62v3.236v4.087
		c0,1.362,1.021,2.491,2.341,2.661c-0.238,0.399-0.38,0.866-0.38,1.362c0,1.465,1.192,2.652,2.652,2.652
		c1.459,0,2.651-1.192,2.651-2.652c0-0.485-0.132-0.949-0.365-1.338h5.906c-0.232,0.395-0.364,0.853-0.364,1.338
		c0,1.465,1.192,2.652,2.651,2.652c1.46,0,2.652-1.192,2.652-2.652c0-1.459-1.192-2.651-2.652-2.651H6.271
		c-0.759,0-1.372-0.618-1.372-1.372v-1.781c0.398,0.234,0.871,0.371,1.372,0.371h13.044c1.479,0,2.686-1.207,2.686-2.687V7.414
		c0-0.005,0-0.015,0-0.02c0-0.015,0-0.024,0-0.039C22,7.345,22,7.335,21.995,7.326z M18.682,19.679c0.735,0,1.339,0.599,1.339,1.338
		s-0.604,1.339-1.339,1.339c-0.734,0-1.338-0.604-1.338-1.339C17.344,20.283,17.947,19.679,18.682,19.679z M8.201,19.679
		c0.735,0,1.339,0.599,1.339,1.338s-0.604,1.339-1.339,1.339c-0.734,0-1.338-0.604-1.338-1.339
		C6.863,20.283,7.467,19.679,8.201,19.679z"/>
	<path d="M17.613,6.246c0.176-0.17,0.176-0.453,0-0.628c-0.17-0.17-0.453-0.17-0.622,0l-3.189,3.188V0.44
		c0-0.245-0.195-0.44-0.44-0.44s-0.447,0.195-0.447,0.44v8.366L9.731,5.617c-0.175-0.17-0.459-0.17-0.628,0
		c-0.177,0.175-0.177,0.459,0,0.628l3.943,3.943c0.17,0.176,0.453,0.176,0.622,0L17.613,6.246z"/>
</g>
</svg>
