<?xml version="1.0" encoding="utf-8"?>
<!-- Generator: Adobe Illustrator 16.0.0, SVG Export Plug-In . SVG Version: 6.00 Build 0)  -->
<!DOCTYPE svg PUBLIC "-//W3C//DTD SVG 1.1//EN" "http://www.w3.org/Graphics/SVG/1.1/DTD/svg11.dtd">
<svg version="1.1" id="Слой_1" xmlns="http://www.w3.org/2000/svg" xmlns:xlink="http://www.w3.org/1999/xlink" x="0px" y="0px"
	 width="14px" height="24.943px" viewBox="0 0 14 24.943" enable-background="new 0 0 14 24.943" xml:space="preserve">
<g>
	<g>
		<path d="M12.185,6.582C10.979,5.253,9.48,4.498,7.689,4.315c-0.05-1.669-0.509-2.841-1.354-3.57
			C6.023,0.475,5.679,0.271,5.288,0.16c-0.39-0.109-0.694-0.17-0.901-0.159C4.18,0.014,4.046,0.026,3.997,0.051
			C3.619,0.099,3.388,0.44,3.448,0.818C3.51,1.195,3.863,1.415,4.216,1.366H4.24c0.135,0,0.726-0.068,1.23,0.378
			c0.531,0.469,0.816,1.34,0.865,2.571C2.827,4.559,0,7.738,0,11.272v6.665c0,1.925,0.677,3.588,2.047,4.971
			c1.347,1.359,2.998,2.035,4.936,2.035h0.036c1.901,0,3.698-0.799,4.935-2.047C13.202,21.635,14,19.838,14,17.938v-6.665
			C14,9.481,13.391,7.909,12.185,6.582z M12.648,17.938c0,3.047-2.571,5.705-5.63,5.665c-1.548-0.021-2.888-0.56-3.996-1.669
			c-1.109-1.108-1.67-2.449-1.67-3.996v-6.665c0-1.499,0.515-2.8,1.548-3.887c1.039-1.094,2.289-1.754,3.789-1.754h0.293h0.45
			c1.467,0,2.693,0.719,3.704,1.804c1.012,1.084,1.512,2.363,1.512,3.838V17.938L12.648,17.938z"/>
		<path d="M7.214,7.532H6.812c-0.45,0-0.825,0.162-1.146,0.475C5.353,8.314,5.191,8.702,5.191,9.152v2.827
			c0,0.426,0.158,0.804,0.475,1.121c0.317,0.316,0.695,0.476,1.146,0.476h0.402c0.438,0,0.816-0.159,1.12-0.463
			c0.317-0.317,0.476-0.695,0.476-1.133V9.152c0-0.45-0.161-0.825-0.476-1.145C8.026,7.693,7.652,7.532,7.214,7.532z M7.457,11.979
			c0,0.134-0.109,0.244-0.243,0.244H6.812c-0.036,0-0.098-0.024-0.194-0.073c-0.049-0.048-0.074-0.109-0.074-0.17V9.152
			c0-0.146,0.122-0.243,0.269-0.243h0.402c0.134,0,0.243,0.097,0.243,0.243V11.979z"/>
	</g>
</g>
</svg>
