<?xml version="1.0" encoding="utf-8"?>
<!-- Generator: Adobe Illustrator 16.0.0, SVG Export Plug-In . SVG Version: 6.00 Build 0)  -->
<!DOCTYPE svg PUBLIC "-//W3C//DTD SVG 1.1//EN" "http://www.w3.org/Graphics/SVG/1.1/DTD/svg11.dtd">
<svg version="1.1" id="Слой_1" xmlns="http://www.w3.org/2000/svg" xmlns:xlink="http://www.w3.org/1999/xlink" x="0px" y="0px"
	 width="491px" height="192.833px" viewBox="0 0 491 192.833" enable-background="new 0 0 491 192.833" xml:space="preserve">
<g>
	<g>
		<path fill="#5C6670" d="M0,122.256c3.03-7.021,7.182-15.201,12.447-24.538c5.267-9.335,11.21-18.948,17.836-28.845
			c6.62-9.894,13.723-19.63,21.304-29.206c7.579-9.576,15.202-18.193,22.862-25.854h21.304v105.33h19.632v18.193H95.753v42.371
			H74.21v-42.371H0V122.256z M74.21,40.147c-4.789,5.109-9.617,10.814-14.483,17.116c-4.87,6.306-9.616,12.889-14.243,19.75
			c-4.63,6.863-8.977,13.883-13.046,21.064c-4.07,7.182-7.701,14.207-10.893,21.066H74.21V40.147z"/>
		<path fill="#5C6670" d="M375.617,122.256c3.029-7.021,7.182-15.201,12.448-24.538c5.267-9.335,11.21-18.948,17.833-28.845
			c6.621-9.894,13.724-19.63,21.306-29.206c7.577-9.576,15.2-18.193,22.861-25.854h21.306v105.33H491v18.193h-19.629v42.371h-21.546
			v-42.371h-74.208V122.256z M449.825,40.147c-4.786,5.109-9.616,10.814-14.481,17.116c-4.87,6.306-9.618,12.889-14.243,19.75
			c-4.632,6.863-8.978,13.883-13.048,21.064c-4.069,7.182-7.701,14.207-10.892,21.066h52.664V40.147z"/>
	</g>
	<circle fill="#00A8E1" cx="245.5" cy="96.417" r="96.416"/>
</g>
</svg>
