<?xml version="1.0" encoding="utf-8"?>
<!-- Generator: Adobe Illustrator 16.0.0, SVG Export Plug-In . SVG Version: 6.00 Build 0)  -->
<!DOCTYPE svg PUBLIC "-//W3C//DTD SVG 1.1//EN" "http://www.w3.org/Graphics/SVG/1.1/DTD/svg11.dtd">
<svg version="1.1" id="Слой_1" xmlns="http://www.w3.org/2000/svg" xmlns:xlink="http://www.w3.org/1999/xlink" x="0px" y="0px"
	 width="102px" height="107.29px" viewBox="0 0 102 107.29" enable-background="new 0 0 102 107.29" xml:space="preserve">
<g>
	<path fill="#5EA5DD" d="M52.031,56.604c0,11.303-7.417,20.875-17.65,24.11c-2.407,0.763-4.972,1.174-7.635,1.174
		c-6.055,0-11.613-2.132-15.966-5.685L0,78.307l4.239-10.174c-1.772-3.46-2.774-7.377-2.774-11.529
		c0-11.493,7.672-21.196,18.173-24.268c1.954-0.573,4.006-0.913,6.124-0.995c0.327-0.013,0.656-0.019,0.984-0.019
		c12.923,0,23.578,9.688,25.097,22.197C51.967,54.531,52.031,55.561,52.031,56.604"/>
	<polygon fill="#CCB535" points="33.364,96.133 36.114,101.94 58.65,85.975 53.309,81.996 	"/>
	<polygon fill="#CCB535" points="90.844,38.653 76.706,58.596 80.686,63.938 96.651,41.403 	"/>
	<path fill="#F0DC63" d="M36.114,101.94l12.989,5.35c12.521-4.108,23.691-11.071,32.758-20.139
		C90.93,78.084,97.893,66.913,102,54.393l-5.349-12.99L80.686,63.938l5.313,1.654c-3.043,5.365-6.786,10.269-11.108,14.588
		c-4.321,4.322-9.223,8.063-14.587,11.107l-1.654-5.313L36.114,101.94z"/>
	<path fill="#E17841" d="M29.516,25.281c0,11.303,7.417,20.875,17.65,24.111c2.407,0.762,4.971,1.174,7.635,1.174
		c6.055,0,11.612-2.132,15.966-5.684l10.78,2.102L77.308,36.81c1.773-3.459,2.773-7.378,2.773-11.529
		c0-11.495-7.671-21.196-18.173-24.268C59.653,0.352,57.269,0,54.801,0C40.835,0,29.516,11.319,29.516,25.281z"/>
	<g>
		<path fill="#FFFFFF" d="M12.203,59.823v-12.64c0-0.703,0.569-1.272,1.271-1.272h12.635c0.701,0,1.271,0.569,1.271,1.272v12.64
			c0,0.234-0.19,0.424-0.424,0.424h-14.33C12.393,60.247,12.203,60.057,12.203,59.823z M22.405,64.154
			c0,1.457-1.181,2.638-2.638,2.638s-2.638-1.181-2.638-2.638c0-1.456,1.181-2.638,2.638-2.638S22.405,62.698,22.405,64.154z
			 M21.087,64.154c0-0.729-0.591-1.319-1.319-1.319s-1.319,0.59-1.319,1.319c0,0.729,0.591,1.319,1.319,1.319
			S21.087,64.882,21.087,64.154z M17.495,61.516h-5.911c-0.233,0-0.424,0.189-0.424,0.424v1.286c0,0.234,0.19,0.424,0.424,0.424
			h4.738C16.446,62.801,16.875,62.051,17.495,61.516z M36.207,64.154c0,1.457-1.181,2.638-2.637,2.638
			c-1.457,0-2.639-1.181-2.639-2.638c0-1.456,1.182-2.638,2.639-2.638C35.026,61.516,36.207,62.698,36.207,64.154z M34.889,64.154
			c0-0.729-0.591-1.319-1.318-1.319c-0.729,0-1.319,0.59-1.319,1.319c0,0.729,0.591,1.319,1.319,1.319
			C34.298,65.473,34.889,64.882,34.889,64.154z M40.871,61.94v1.286c0,0.234-0.19,0.424-0.425,0.424h-3.432
			c-0.246-1.685-1.694-2.982-3.444-2.982c-1.752,0-3.2,1.299-3.446,2.982h-6.912c-0.123-0.849-0.552-1.599-1.172-2.134h6.554V49.39
			c0-0.469,0.379-0.849,0.847-0.849h4.003c1.127,0,2.181,0.56,2.811,1.495l2.58,3.821c0.379,0.561,0.581,1.221,0.581,1.897v5.762
			h1.031C40.681,61.516,40.871,61.706,40.871,61.94z M36.569,53.955l-2.063-2.932c-0.08-0.113-0.208-0.18-0.347-0.18h-3.219
			c-0.234,0-0.424,0.189-0.424,0.424v2.932c0,0.234,0.189,0.424,0.424,0.424h5.281C36.566,54.623,36.768,54.235,36.569,53.955z"/>
	</g>
	<g>
		<g>
			<g>
				<path fill="#FFFFFF" d="M63.106,18.779H43.886c-1.491,0-2.707,1.215-2.707,2.708v11.709c0,1.492,1.216,2.708,2.707,2.708h19.221
					c1.491,0,2.707-1.215,2.707-2.708V21.487C65.813,19.994,64.598,18.779,63.106,18.779z M63.7,33.203
					c0,0.322-0.265,0.593-0.594,0.593H43.886c-0.329,0-0.593-0.265-0.593-0.593v-8.557H63.7V33.203z M63.7,22.532H43.293v-1.045
					c0-0.33,0.264-0.594,0.593-0.594h19.221c0.329,0,0.594,0.264,0.594,0.594V22.532z"/>
			</g>
		</g>
		<g>
			<g>
				<path fill="#FFFFFF" d="M67.177,14.662H47.955c-0.581,0-1.058,0.476-1.058,1.058s0.477,1.057,1.058,1.057h19.222
					c0.328,0,0.593,0.264,0.593,0.593v3.301c0,0.582,0.476,1.058,1.058,1.058c0.581,0,1.057-0.476,1.057-1.058V17.37
					C69.884,15.878,68.668,14.662,67.177,14.662z"/>
			</g>
		</g>
		<g>
			<g>
				<path fill="#FFFFFF" d="M54.762,26.548h-1.445c-0.581,0-1.057,0.476-1.057,1.058s0.476,1.057,1.057,1.057h1.445
					c0.582,0,1.058-0.475,1.058-1.057S55.35,26.548,54.762,26.548z"/>
			</g>
		</g>
		<g>
			<g>
				<path fill="#FFFFFF" d="M49.923,26.548h-3.935c-0.582,0-1.058,0.476-1.058,1.058s0.476,1.057,1.058,1.057h3.935
					c0.581,0,1.057-0.475,1.057-1.057S50.504,26.548,49.923,26.548z"/>
			</g>
		</g>
		<g>
			<g>
				<path fill="#FFFFFF" d="M48.29,30.042h-2.267c-0.582,0-1.057,0.476-1.057,1.058c0,0.581,0.475,1.056,1.057,1.056h2.267
					c0.582,0,1.058-0.476,1.058-1.056C49.348,30.518,48.872,30.042,48.29,30.042z"/>
			</g>
		</g>
	</g>
</g>
</svg>
