<?xml version="1.0" encoding="utf-8"?>
<!-- Generator: Adobe Illustrator 16.0.0, SVG Export Plug-In . SVG Version: 6.00 Build 0)  -->
<!DOCTYPE svg PUBLIC "-//W3C//DTD SVG 1.1//EN" "http://www.w3.org/Graphics/SVG/1.1/DTD/svg11.dtd">
<svg version="1.1" id="Слой_1" xmlns="http://www.w3.org/2000/svg" xmlns:xlink="http://www.w3.org/1999/xlink" x="0px" y="0px"
	 width="16.601px" height="22.692px" viewBox="0 0 16.601 22.692" enable-background="new 0 0 16.601 22.692" xml:space="preserve">
<g>
	<path fill="#E17841" d="M6.313,10.674c0.047,0.397-0.351,0.678-0.701,0.468c-1.286-0.749-1.917-2.128-2.759-3.32
		c-1.356,2.151-2.385,4.232-2.385,6.453c0,4.513,3.203,7.949,7.715,7.949c4.513,0,7.95-3.437,7.95-7.949
		c0-5.658-5.916-6.64-5.846-13.795C7.902,2.164,5.658,5.927,6.313,10.674z"/>
	<path fill="#AB4A1B" d="M8.183,22.692C3.437,22.692,0,19.162,0,14.275c0-2.455,1.192-4.676,2.455-6.71
		c0.093-0.14,0.233-0.21,0.374-0.21c0.163,0,0.304,0.07,0.397,0.188c0.21,0.28,0.397,0.584,0.584,0.888
		c0.585,0.913,1.146,1.777,2.034,2.291l0,0c-0.678-4.84,1.613-8.838,4.162-10.638c0.141-0.093,0.327-0.116,0.491-0.023
		c0.163,0.07,0.257,0.234,0.257,0.421c-0.047,3.624,1.543,5.611,3.063,7.505c1.38,1.707,2.783,3.46,2.783,6.29
		C16.601,19.068,12.977,22.692,8.183,22.692z M2.876,8.687c-1.053,1.73-1.94,3.601-1.94,5.588c0,4.325,3.039,7.481,7.247,7.481
		c4.256,0,7.482-3.227,7.482-7.481c0-2.502-1.192-3.975-2.572-5.705c-1.426-1.776-3.016-3.764-3.25-7.131
		C7.832,3.262,6.219,6.606,6.78,10.604l0,0c0.047,0.374-0.117,0.725-0.421,0.912c-0.304,0.187-0.678,0.187-0.982,0
		C4.302,10.884,3.671,9.879,3.039,8.92C2.969,8.851,2.922,8.78,2.876,8.687z"/>
	<path fill="#E17841" d="M13.21,17.783c0.818-1.264,1.286-2.783,1.286-4.443"/>
	<path fill="#AB4A1B" d="M13.21,18.25c-0.094,0-0.187-0.023-0.257-0.07c-0.211-0.14-0.281-0.421-0.141-0.654
		c0.795-1.216,1.216-2.665,1.216-4.186c0-0.257,0.21-0.468,0.468-0.468c0.257,0,0.468,0.211,0.468,0.468
		c0,1.707-0.468,3.32-1.356,4.7C13.514,18.179,13.374,18.25,13.21,18.25z"/>
	<path fill="#E17841" d="M11.783,19.418c0.164-0.141,0.352-0.304,0.491-0.468"/>
	<path fill="#AB4A1B" d="M11.783,19.886c-0.14,0-0.257-0.047-0.351-0.163c-0.163-0.188-0.14-0.491,0.047-0.655
		c0.141-0.141,0.327-0.28,0.444-0.421c0.164-0.188,0.468-0.211,0.655-0.047c0.187,0.164,0.21,0.468,0.046,0.654
		c-0.163,0.188-0.374,0.375-0.537,0.515C11.994,19.839,11.9,19.886,11.783,19.886z"/>
</g>
</svg>
