<?xml version="1.0" encoding="utf-8"?>
<!-- Generator: Adobe Illustrator 16.0.0, SVG Export Plug-In . SVG Version: 6.00 Build 0)  -->
<!DOCTYPE svg PUBLIC "-//W3C//DTD SVG 1.1//EN" "http://www.w3.org/Graphics/SVG/1.1/DTD/svg11.dtd">
<svg version="1.1" id="Слой_1" xmlns="http://www.w3.org/2000/svg" xmlns:xlink="http://www.w3.org/1999/xlink" x="0px" y="0px"
	 width="52px" height="40.656px" viewBox="0 0 52 40.656" enable-background="new 0 0 52 40.656" xml:space="preserve">
<g>
	<rect fill="#80D0BC" width="52" height="38.361"/>
	<path fill="#ECECEE" d="M47.447,29.886V8.477c-2.166,0-3.923-1.756-3.923-3.923H8.477c0,2.167-1.756,3.923-3.923,3.923v21.409
		c2.167,0,3.923,1.756,3.923,3.923h35.048C43.524,31.643,45.281,29.886,47.447,29.886z"/>
	<polygon fill="#AE533F" points="38.631,40.656 35.183,38.029 31.571,40.656 31.571,31.463 38.631,31.463 	"/>
	<path fill="#DAC22E" d="M40.004,29.797c0,2.738-2.221,4.959-4.96,4.959s-4.96-2.221-4.96-4.959c0-2.74,2.221-4.961,4.96-4.961
		S40.004,27.057,40.004,29.797z"/>
	<path opacity="0.3" fill="#5B5B5F" enable-background="new    " d="M40.004,29.797c0-2.74-2.221-4.961-4.96-4.961v6.627v3.293
		v3.333l0.082-0.06l3.447,2.627v-7.377C39.458,32.384,40.004,31.153,40.004,29.797z"/>
	<rect x="19.218" y="11.435" opacity="0.4" fill="#5B5B5F" enable-background="new    " width="13.565" height="1.131"/>
	<rect x="13.23" y="16.355" opacity="0.4" fill="#5B5B5F" enable-background="new    " width="25.541" height="1.13"/>
	<rect x="13.23" y="21.275" opacity="0.4" fill="#5B5B5F" enable-background="new    " width="25.541" height="1.131"/>
</g>
</svg>
