<?xml version="1.0" encoding="utf-8"?>
<!-- Generator: Adobe Illustrator 16.0.0, SVG Export Plug-In . SVG Version: 6.00 Build 0)  -->
<!DOCTYPE svg PUBLIC "-//W3C//DTD SVG 1.1//EN" "http://www.w3.org/Graphics/SVG/1.1/DTD/svg11.dtd">
<svg version="1.1" id="Слой_1" xmlns="http://www.w3.org/2000/svg" xmlns:xlink="http://www.w3.org/1999/xlink" x="0px" y="0px"
	 width="16px" height="20.424px" viewBox="0 0 16 20.424" enable-background="new 0 0 16 20.424" xml:space="preserve">
<g>
	<path fill="#FFFFFF" d="M14.697,20.424H1.277C0.564,20.424,0,19.858,0,19.146V1.278C0,0.565,0.564,0,1.277,0h13.444
		C15.435,0,16,0.565,16,1.278v17.868C15.975,19.858,15.41,20.424,14.697,20.424z"/>
	<rect x="0.909" y="1.376" fill="#A1D9FD" width="14.181" height="3.711"/>
	<polygon fill="#7EBEE8" points="14.009,1.376 3.735,5.087 15.065,5.087 15.065,1.376 	"/>
	<rect x="0.909" y="5.997" fill="#F1CE64" width="2.826" height="2.802"/>
	<g>
		<rect x="4.669" y="5.997" fill="#E5E7EC" width="2.827" height="2.802"/>
		<rect x="8.454" y="5.997" fill="#E5E7EC" width="2.826" height="2.802"/>
		<rect x="12.239" y="5.997" fill="#E5E7EC" width="2.826" height="2.802"/>
		<rect x="0.909" y="9.537" fill="#E5E7EC" width="2.826" height="2.802"/>
		<rect x="4.669" y="9.537" fill="#E5E7EC" width="2.827" height="2.802"/>
		<rect x="8.454" y="9.537" fill="#E5E7EC" width="2.826" height="2.802"/>
		<rect x="12.239" y="9.537" fill="#E5E7EC" width="2.826" height="2.802"/>
		<rect x="0.909" y="13.075" fill="#E5E7EC" width="2.826" height="2.803"/>
		<rect x="4.669" y="13.075" fill="#E5E7EC" width="2.827" height="2.803"/>
		<rect x="8.454" y="13.075" fill="#E5E7EC" width="2.826" height="2.803"/>
		<rect x="0.909" y="16.614" fill="#E5E7EC" width="2.826" height="2.803"/>
		<rect x="4.669" y="16.614" fill="#E5E7EC" width="2.827" height="2.803"/>
		<rect x="8.454" y="16.614" fill="#E5E7EC" width="2.826" height="2.803"/>
	</g>
	<rect x="12.239" y="13.075" fill="#3D4B5E" width="2.826" height="6.342"/>
</g>
</svg>
