<?xml version="1.0" encoding="utf-8"?>
<!-- Generator: Adobe Illustrator 16.0.0, SVG Export Plug-In . SVG Version: 6.00 Build 0)  -->
<!DOCTYPE svg PUBLIC "-//W3C//DTD SVG 1.1//EN" "http://www.w3.org/Graphics/SVG/1.1/DTD/svg11.dtd">
<svg version="1.1" id="Слой_1" xmlns="http://www.w3.org/2000/svg" xmlns:xlink="http://www.w3.org/1999/xlink" x="0px" y="0px"
	 width="44px" height="44px" viewBox="0 0 44 44" enable-background="new 0 0 44 44" xml:space="preserve">
<g>
	<path fill="#5F666F" d="M43.314,16.532C40.884,7.027,32.263,0,22,0C9.85,0,0,9.85,0,22c0,10.262,7.027,18.883,16.532,21.315
		C18.28,43.762,20.112,44,22,44c12.15,0,22-9.85,22-22C44,20.112,43.762,18.28,43.314,16.532z"/>
	<g>
		<path fill="#DFF3F1" d="M26.029,7.413c-2.666,0-4.835,2.169-4.835,4.029V25.95h2.418V12.248c0-1.333,1.084-2.418,2.417-2.418
			c1.334,0,2.418,1.084,2.418,2.418v2.417h2.418v-2.417C30.865,9.582,28.696,7.413,26.029,7.413z"/>
		<path fill="#FFFFFF" d="M26.029,6.606c-3.11,0-5.642,2.531-5.642,5.642V25.95H22V12.248c0-2.222,1.808-4.03,4.029-4.03
			c2.223,0,4.03,1.808,4.03,4.03v2.417h1.612v-2.417C31.672,9.137,29.141,6.606,26.029,6.606z"/>
		<polygon fill="#80D0BC" points="30.06,13.86 29.254,14.666 30.06,15.471 32.478,15.471 32.478,13.86 		"/>
		<rect x="27.642" y="13.86" fill="#9DDAD2" width="2.418" height="1.611"/>
		<g>
			
				<rect x="29.923" y="22.16" transform="matrix(-0.5002 -0.8659 0.8659 -0.5002 23.4205 65.8985)" fill="#80D0BC" width="1.613" height="8.059"/>
			<polygon fill="#80D0BC" points="28.527,25.6 23.407,26.647 24.498,34.753 30.14,28.391 			"/>
		</g>
		<path fill="#70C6A6" d="M35.939,28.766c-0.299-0.518-0.839-0.805-1.396-0.805l-1.721-2.98l-1.396,0.806l1.721,2.979
			c-0.277,0.482-0.299,1.096-0.001,1.611c0.445,0.771,1.431,1.035,2.202,0.59C36.12,30.522,36.385,29.537,35.939,28.766z"/>
		<path fill="#C1E8E3" d="M32.823,24.981L31.103,22c0.277-0.482,0.299-1.094,0.001-1.61c-0.445-0.771-1.431-1.035-2.202-0.59
			c-0.771,0.445-1.035,1.431-0.59,2.202c0.298,0.517,0.839,0.804,1.396,0.805l1.721,2.98L32.823,24.981z"/>
		<g>
			<circle fill="#9DDAD2" cx="32.125" cy="25.384" r="1.612"/>
			
				<rect x="12.464" y="22.16" transform="matrix(0.4997 -0.8662 0.8662 0.4997 -16.0464 24.597)" fill="#9DDAD2" width="1.612" height="8.059"/>
		</g>
		<polygon fill="#DFF3F1" points="15.473,25.6 13.86,28.391 19.502,34.753 20.593,26.647 		"/>
		<path fill="#80D0BC" d="M12.572,25.787l-1.396-0.806l-1.721,2.98c-0.557,0-1.097,0.287-1.396,0.805
			c-0.445,0.771-0.181,1.756,0.59,2.201c0.771,0.445,1.757,0.182,2.202-0.59c0.298-0.516,0.277-1.129-0.001-1.61L12.572,25.787z"/>
		<path fill="#FFFFFF" d="M15.099,19.8c-0.771-0.445-1.757-0.181-2.202,0.59c-0.298,0.517-0.276,1.128,0.001,1.61l-1.721,2.981
			l1.396,0.806l1.721-2.98c0.557-0.001,1.097-0.288,1.396-0.805C16.134,21.23,15.869,20.245,15.099,19.8z"/>
		<g>
			<circle fill="#C1E8E3" cx="11.875" cy="25.384" r="1.612"/>
			<polygon fill="#C1E8E3" points="22,24.499 20.388,27.723 24.418,27.723 24.418,24.499 			"/>
		</g>
		<rect x="19.582" y="24.499" fill="#DFF3F1" width="2.418" height="3.225"/>
		<polygon fill="#9DDAD2" points="22,26.11 20.388,36.588 26.029,35.782 26.029,26.11 		"/>
		<g>
			<polygon fill="#C1E8E3" points="22,26.11 17.97,26.11 17.97,35.782 22,36.588 			"/>
			<polygon fill="#C1E8E3" points="22,35.782 21.296,36.588 22,37.394 26.836,37.394 26.836,35.782 			"/>
		</g>
		<rect x="17.164" y="35.782" fill="#FFFFFF" width="4.836" height="1.612"/>
	</g>
</g>
</svg>
