<?xml version="1.0" encoding="utf-8"?>
<!-- Generator: Adobe Illustrator 16.0.0, SVG Export Plug-In . SVG Version: 6.00 Build 0)  -->
<!DOCTYPE svg PUBLIC "-//W3C//DTD SVG 1.1//EN" "http://www.w3.org/Graphics/SVG/1.1/DTD/svg11.dtd">
<svg version="1.1" id="Слой_1" xmlns="http://www.w3.org/2000/svg" xmlns:xlink="http://www.w3.org/1999/xlink" x="0px" y="0px"
	 width="125.5px" height="73.369px" viewBox="0 0 125.5 73.369" enable-background="new 0 0 125.5 73.369" xml:space="preserve">
<g>
	<rect x="36.684" y="0.926" fill="#EDEDED" width="88.816" height="71.699"/>
	<g>
		<path fill="#49D492" d="M94.068,57.724c-0.543,0-0.982-0.44-0.982-0.981V10.51c0-0.542,0.439-0.982,0.982-0.982
			c0.542,0,0.981,0.44,0.981,0.982v46.232C95.05,57.283,94.61,57.724,94.068,57.724z"/>
	</g>
	<g>
		<polygon fill="#49D492" points="90.292,16.821 94.068,0.926 97.844,16.821 		"/>
	</g>
	<g>
		<polygon fill="#49D492" points="97.844,56.405 94.068,72.299 90.292,56.405 		"/>
	</g>
	<g>
		<path fill="#5C6670" d="M118.236,44.721c-0.667,0.203-1.507,0.389-2.516,0.556c-1.011,0.167-2.071,0.25-3.184,0.25
			c-1.15,0-2.179-0.177-3.086-0.528c-0.909-0.352-1.682-0.857-2.322-1.515c-0.639-0.658-1.13-1.454-1.473-2.392
			c-0.344-0.936-0.514-1.988-0.514-3.155c0-1.149,0.142-2.192,0.429-3.128c0.288-0.936,0.71-1.737,1.267-2.405
			c0.556-0.667,1.232-1.182,2.028-1.543c0.798-0.361,1.715-0.542,2.752-0.542c0.706,0,1.325,0.083,1.864,0.25
			c0.537,0.167,1.001,0.353,1.391,0.556v-6.979l3.363-0.555V44.721z M108.588,37.854c0,1.482,0.354,2.646,1.057,3.488
			c0.704,0.844,1.679,1.266,2.919,1.266c0.539,0,0.997-0.022,1.377-0.07c0.38-0.045,0.69-0.096,0.933-0.152v-8.341
			c-0.298-0.203-0.692-0.393-1.184-0.569c-0.491-0.177-1.015-0.264-1.57-0.264c-1.224,0-2.117,0.416-2.684,1.25
			C108.87,35.295,108.588,36.426,108.588,37.854z"/>
	</g>
	<line fill="none" stroke="#D1D1D1" stroke-linecap="round" stroke-miterlimit="10" x1="125.5" y1="0.926" x2="36.558" y2="0.926"/>
	
		<line fill="none" stroke="#D1D1D1" stroke-linecap="round" stroke-miterlimit="10" x1="125.5" y1="72.625" x2="36.558" y2="72.625"/>
	<g>
		
			<circle fill="#FFFFFF" stroke="#5C6670" stroke-width="3" stroke-linecap="round" stroke-miterlimit="10" cx="36.685" cy="36.685" r="35.185"/>
		
			<circle fill="#FFFFFF" stroke="#5C6670" stroke-width="3" stroke-linecap="round" stroke-miterlimit="10" cx="36.684" cy="36.685" r="25.366"/>
	</g>
</g>
</svg>
