<?xml version="1.0" encoding="utf-8"?>
<!-- Generator: Adobe Illustrator 16.0.0, SVG Export Plug-In . SVG Version: 6.00 Build 0)  -->
<!DOCTYPE svg PUBLIC "-//W3C//DTD SVG 1.1//EN" "http://www.w3.org/Graphics/SVG/1.1/DTD/svg11.dtd">
<svg version="1.1" id="Слой_1" xmlns="http://www.w3.org/2000/svg" xmlns:xlink="http://www.w3.org/1999/xlink" x="0px" y="0px"
	 width="77px" height="77px" viewBox="0 0 77 77" enable-background="new 0 0 77 77" xml:space="preserve">
<g>
	<path fill="#83D293" d="M51.334,50.05v-8.983c1.416,0,2.566-1.15,2.566-2.566v-5.133c0-1.416-1.15-2.566-2.566-2.566h-5.133v-8.984
		c0-0.708-0.576-1.283-1.284-1.283s-1.283,0.575-1.283,1.283v8.984h-5.133v-8.984c0-0.708-0.575-1.283-1.284-1.283
		c-0.708,0-1.283,0.575-1.283,1.283v8.984h-5.133v-8.984c0-0.708-0.575-1.283-1.283-1.283c-0.709,0-1.283,0.575-1.283,1.283v8.984
		h-5.134c-1.415,0-2.567,1.15-2.567,2.566V38.5c0,1.416,1.152,2.566,2.567,2.566v8.983c0,3.538,2.878,6.417,6.417,6.417h15.399
		C48.455,56.467,51.334,53.588,51.334,50.05z"/>
	<path fill="#EBEBEB" d="M25.668,50.05V39.783c0-0.708-0.576-1.283-1.284-1.283h-1.283v-5.133h28.233V38.5h-1.283
		c-0.709,0-1.283,0.575-1.283,1.283V50.05c0,2.122-1.728,3.851-3.851,3.851H29.518C27.395,53.9,25.668,52.172,25.668,50.05z"/>
	<path fill="#83D293" d="M37.217,41.066c-2.122,0-3.85,1.728-3.85,3.851c0,2.122,1.728,3.85,3.85,3.85
		c2.123,0,3.851-1.728,3.851-3.85C41.067,42.794,39.34,41.066,37.217,41.066z M37.217,46.199c-0.707,0-1.283-0.575-1.283-1.282
		s0.576-1.284,1.283-1.284s1.284,0.577,1.284,1.284S37.924,46.199,37.217,46.199z"/>
	<path fill="#5F666F" d="M38.501,0C17.272,0,0,17.271,0,38.5c0,10.283,4.006,19.95,11.349,27.289
		c0.602,0.517,1.699,1.113,2.923,1.113c0.877,0,1.82-0.308,2.688-1.177c0.951-0.952,1.133-1.938,1.116-2.597
		c-0.041-1.62-1.262-2.769-1.354-2.85c-5.815-5.819-9.02-13.553-9.02-21.779c0-16.982,13.817-30.8,30.8-30.8
		C55.482,7.7,69.3,21.518,69.3,38.5v20.533c0,5.661-4.604,10.267-10.267,10.267h-7.699c-5.661,0-10.267-4.606-10.267-10.269
		c0-0.709-0.575-1.283-1.283-1.283c-0.709,0-1.283,0.574-1.283,1.283c0,7.077,5.757,12.836,12.833,12.836h7.699
		c7.077,0,12.834-5.758,12.834-12.834V38.5c0-18.397-14.969-33.367-33.366-33.367c-18.398,0-33.367,14.97-33.367,33.367
		c0,8.912,3.472,17.29,9.82,23.639c0.089,0.08,0.543,0.587,0.555,1.055c0.003,0.149-0.03,0.383-0.363,0.718
		c-0.857,0.857-1.852,0.158-2.054-0.002C6.306,57.121,2.567,48.098,2.567,38.5c0-19.814,16.12-35.934,35.934-35.934
		c19.813,0,35.933,16.119,35.933,35.934v20.533c0,8.438-6.912,15.346-15.4,15.399h-7.699c-8.435,0-15.342-6.912-15.395-15.409
		c-0.005-0.709-0.623-1.232-1.292-1.275c-0.709,0.003-1.28,0.582-1.275,1.291C33.437,68.944,41.493,77,51.334,77h7.707
		C68.945,76.936,77,68.877,77,59.033V38.5C77,17.271,59.729,0,38.501,0z"/>
</g>
</svg>
