<?xml version="1.0" encoding="utf-8"?>
<!-- Generator: Adobe Illustrator 16.0.0, SVG Export Plug-In . SVG Version: 6.00 Build 0)  -->
<!DOCTYPE svg PUBLIC "-//W3C//DTD SVG 1.1//EN" "http://www.w3.org/Graphics/SVG/1.1/DTD/svg11.dtd">
<svg version="1.1" id="Слой_1" xmlns="http://www.w3.org/2000/svg" xmlns:xlink="http://www.w3.org/1999/xlink" x="0px" y="0px"
	 width="29px" height="25.208px" viewBox="0 0 29 25.208" enable-background="new 0 0 29 25.208" xml:space="preserve">
<g>
	<path fill="#F1F1F1" d="M27.531,6.444c0.653,0,1.185-0.531,1.185-1.185V3.837c0-0.653-0.531-1.185-1.185-1.185
		s-1.185,0.532-1.185,1.185v0.238h-0.474V2.653h-1.422V2.18c0-1.046-0.85-1.896-1.896-1.896c-1.045,0-1.896,0.85-1.896,1.896v0.473
		c0,0.262-0.212,0.475-0.474,0.475s-0.474-0.213-0.474-0.475V2.18c0-1.046-0.85-1.896-1.896-1.896c-1.045,0-1.896,0.85-1.896,1.896
		v0.473c0,0.262-0.212,0.475-0.474,0.475s-0.474-0.213-0.474-0.475V2.18c0-1.046-0.851-1.896-1.896-1.896
		c-1.046,0-1.896,0.85-1.896,1.896v0.473c0,0.262-0.213,0.475-0.474,0.475c-0.262,0-0.474-0.213-0.474-0.475V2.18
		c0-1.046-0.851-1.896-1.896-1.896c-1.045,0-1.895,0.85-1.895,1.896v0.473c0,0.262-0.213,0.475-0.475,0.475S5.497,2.915,5.497,2.653
		V2.18c0-1.046-0.851-1.896-1.895-1.896c-1.046,0-1.896,0.85-1.896,1.896v0.948H0.285v3.316h1.421v12.32H0.285v3.316h1.421v0.947
		c0,1.046,0.851,1.896,1.896,1.896c1.044,0,1.895-0.85,1.895-1.896v-0.475c0-0.26,0.212-0.473,0.474-0.473s0.475,0.213,0.475,0.473
		v0.475c0,1.046,0.85,1.896,1.895,1.896c1.046,0,1.896-0.85,1.896-1.896v-0.475c0-0.26,0.212-0.473,0.474-0.473
		c0.261,0,0.474,0.213,0.474,0.473v0.475c0,1.046,0.85,1.896,1.896,1.896c1.045,0,1.896-0.85,1.896-1.896v-0.475
		c0-0.26,0.212-0.473,0.474-0.473s0.474,0.213,0.474,0.473v0.475c0,1.046,0.851,1.896,1.896,1.896c1.046,0,1.896-0.85,1.896-1.896
		v-0.475c0-0.26,0.212-0.473,0.474-0.473s0.474,0.213,0.474,0.473v0.475c0,1.046,0.851,1.896,1.896,1.896
		c1.046,0,1.896-0.85,1.896-1.896v-0.947h1.422v-0.474h2.843v-2.37h-2.843v-0.473h-1.422V6.444h1.422V5.022h0.474v0.237
		C26.347,5.913,26.878,6.444,27.531,6.444z M27.294,3.837c0-0.13,0.106-0.236,0.237-0.236c0.13,0,0.236,0.106,0.236,0.236v1.422
		c0,0.13-0.106,0.237-0.236,0.237c-0.131,0-0.237-0.106-0.237-0.237V3.837z M1.706,21.134H1.232v-1.422h0.474V21.134z M1.706,5.496
		H1.232V4.075h0.474V5.496z M7.393,18.765c0,0.783-0.638,1.422-1.422,1.422c-0.783,0-1.421-0.639-1.421-1.422V6.444
		c0-0.784,0.638-1.422,1.421-1.422c0.784,0,1.422,0.638,1.422,1.422V18.765z M12.131,18.765c0,0.783-0.638,1.422-1.421,1.422
		c-0.784,0-1.422-0.639-1.422-1.422V6.444c0-0.784,0.638-1.422,1.422-1.422c0.783,0,1.421,0.638,1.421,1.422V18.765z M16.87,18.765
		c0,0.783-0.638,1.422-1.422,1.422s-1.422-0.639-1.422-1.422V6.444c0-0.784,0.638-1.422,1.422-1.422S16.87,5.66,16.87,6.444V18.765z
		 M21.607,18.765c0,0.783-0.637,1.422-1.421,1.422s-1.422-0.639-1.422-1.422V6.444c0-0.784,0.638-1.422,1.422-1.422
		s1.421,0.638,1.421,1.422V18.765z M25.873,20.187h1.895v0.473h-1.895V20.187z M24.925,19.712v1.422h-0.474v-1.422H24.925z
		 M24.925,5.496h-0.474V3.602h0.474V5.496z"/>
	<path fill="#5F666F" d="M22.556,25.208c-1.202,0-2.18-0.977-2.18-2.18v-0.475c0-0.104-0.085-0.188-0.189-0.188
		s-0.189,0.085-0.189,0.188v0.475c0,1.203-0.978,2.18-2.18,2.18s-2.18-0.977-2.18-2.18v-0.475c0-0.104-0.085-0.188-0.189-0.188
		s-0.189,0.085-0.189,0.188v0.475c0,1.203-0.978,2.18-2.18,2.18s-2.181-0.977-2.181-2.18v-0.475c0-0.104-0.084-0.188-0.188-0.188
		s-0.189,0.085-0.189,0.188v0.475c0,1.203-0.979,2.18-2.181,2.18c-1.201,0-2.18-0.977-2.18-2.18v-0.475
		c0-0.104-0.085-0.188-0.189-0.188c-0.104,0-0.189,0.085-0.189,0.188v0.475c0,1.203-0.978,2.18-2.179,2.18
		c-1.202,0-2.181-0.977-2.181-2.18v-0.663H0v-3.886h1.422V6.729H0V2.843h1.422V2.18C1.422,0.978,2.4,0,3.603,0
		c1.201,0,2.179,0.978,2.179,2.18v0.473c0,0.105,0.086,0.19,0.189,0.19c0.104,0,0.189-0.085,0.189-0.19V2.18
		C6.16,0.978,7.139,0,8.34,0c1.202,0,2.181,0.978,2.181,2.18v0.473c0,0.105,0.085,0.19,0.189,0.19s0.188-0.085,0.188-0.19V2.18
		c0-1.202,0.979-2.18,2.181-2.18s2.18,0.978,2.18,2.18v0.473c0,0.105,0.085,0.19,0.189,0.19s0.189-0.085,0.189-0.19V2.18
		c0-1.202,0.978-2.18,2.18-2.18s2.18,0.978,2.18,2.18v0.473c0,0.105,0.085,0.19,0.189,0.19s0.189-0.085,0.189-0.19V2.18
		c0-1.202,0.978-2.18,2.18-2.18s2.181,0.978,2.181,2.18v0.189h1.421v0.948c0.21-0.554,0.747-0.948,1.374-0.948
		C28.342,2.369,29,3.027,29,3.837v1.422c0,0.81-0.658,1.469-1.469,1.469c-0.627,0-1.164-0.395-1.374-0.949v0.949h-1.421v11.751
		h1.421v0.474H29v2.938h-2.843v0.474h-1.421v0.663C24.736,24.231,23.758,25.208,22.556,25.208z M20.187,21.796
		c0.418,0,0.759,0.341,0.759,0.758v0.475c0,0.889,0.722,1.611,1.61,1.611s1.611-0.723,1.611-1.611v-1.232h1.421v-0.473h2.844v-1.801
		h-2.844v-0.475h-1.421V6.16h1.421V4.738h1.043v0.521c0,0.496,0.404,0.9,0.9,0.9s0.9-0.404,0.9-0.9V3.837c0-0.496-0.404-0.9-0.9-0.9
		s-0.9,0.404-0.9,0.9v0.522h-1.043V2.938h-1.421V2.18c0-0.888-0.723-1.611-1.611-1.611s-1.61,0.724-1.61,1.611v0.473
		c0,0.419-0.341,0.759-0.759,0.759s-0.758-0.34-0.758-0.759V2.18c0-0.888-0.724-1.611-1.611-1.611s-1.61,0.724-1.61,1.611v0.473
		c0,0.419-0.341,0.759-0.759,0.759s-0.759-0.34-0.759-0.759V2.18c0-0.888-0.723-1.611-1.61-1.611c-0.889,0-1.611,0.724-1.611,1.611
		v0.473c0,0.419-0.34,0.759-0.758,0.759c-0.419,0-0.759-0.34-0.759-0.759V2.18c0-0.888-0.723-1.611-1.611-1.611
		c-0.888,0-1.61,0.724-1.61,1.611v0.473c0,0.419-0.341,0.759-0.759,0.759s-0.758-0.34-0.758-0.759V2.18
		c0-0.888-0.723-1.611-1.61-1.611c-0.889,0-1.611,0.724-1.611,1.611v1.232H0.569V6.16h1.422v12.888H0.569v2.748h1.422v1.232
		c0,0.889,0.723,1.611,1.611,1.611c0.888,0,1.61-0.723,1.61-1.611v-0.475c0-0.417,0.34-0.758,0.758-0.758s0.759,0.341,0.759,0.758
		v0.475c0,0.889,0.723,1.611,1.61,1.611c0.889,0,1.611-0.723,1.611-1.611v-0.475c0-0.417,0.34-0.758,0.759-0.758
		c0.418,0,0.758,0.341,0.758,0.758v0.475c0,0.889,0.723,1.611,1.611,1.611c0.888,0,1.61-0.723,1.61-1.611v-0.475
		c0-0.417,0.341-0.758,0.759-0.758s0.759,0.341,0.759,0.758v0.475c0,0.889,0.723,1.611,1.61,1.611s1.611-0.723,1.611-1.611v-0.475
		C19.429,22.137,19.769,21.796,20.187,21.796z M25.21,21.418h-1.043v-1.991h1.043V21.418z M1.991,21.418H0.948v-1.991h1.043V21.418z
		 M28.053,20.944h-2.465v-1.043h2.465V20.944z M20.187,20.47c-0.94,0-1.706-0.765-1.706-1.705V6.444
		c0-0.941,0.766-1.707,1.706-1.707s1.706,0.766,1.706,1.707v12.32C21.893,19.705,21.127,20.47,20.187,20.47z M20.187,5.307
		c-0.627,0-1.137,0.51-1.137,1.137v12.32c0,0.627,0.51,1.137,1.137,1.137s1.137-0.51,1.137-1.137V6.444
		C21.323,5.817,20.813,5.307,20.187,5.307z M15.448,20.47c-0.94,0-1.706-0.765-1.706-1.705V6.444c0-0.941,0.766-1.707,1.706-1.707
		s1.706,0.766,1.706,1.707v12.32C17.154,19.705,16.389,20.47,15.448,20.47z M15.448,5.307c-0.627,0-1.138,0.51-1.138,1.137v12.32
		c0,0.627,0.511,1.137,1.138,1.137s1.137-0.51,1.137-1.137V6.444C16.585,5.817,16.075,5.307,15.448,5.307z M10.71,20.47
		c-0.941,0-1.707-0.765-1.707-1.705V6.444c0-0.941,0.766-1.707,1.707-1.707c0.94,0,1.706,0.766,1.706,1.707v12.32
		C12.416,19.705,11.65,20.47,10.71,20.47z M10.71,5.307c-0.628,0-1.138,0.51-1.138,1.137v12.32c0,0.627,0.51,1.137,1.138,1.137
		c0.627,0,1.137-0.51,1.137-1.137V6.444C11.847,5.817,11.337,5.307,10.71,5.307z M5.971,20.47c-0.94,0-1.705-0.765-1.705-1.705
		V6.444c0-0.941,0.765-1.707,1.705-1.707c0.941,0,1.706,0.766,1.706,1.707v12.32C7.677,19.705,6.912,20.47,5.971,20.47z
		 M5.971,5.307c-0.627,0-1.137,0.51-1.137,1.137v12.32c0,0.627,0.51,1.137,1.137,1.137s1.138-0.51,1.138-1.137V6.444
		C7.108,5.817,6.598,5.307,5.971,5.307z M27.531,5.781c-0.288,0-0.521-0.234-0.521-0.521V3.837c0-0.287,0.233-0.521,0.521-0.521
		c0.287,0,0.521,0.234,0.521,0.521v1.422C28.053,5.547,27.818,5.781,27.531,5.781z M25.21,5.781h-1.043V3.316h1.043V5.781z
		 M1.991,5.781H0.948v-1.99h1.043V5.781z"/>
</g>
</svg>
