<?xml version="1.0" encoding="utf-8"?>
<!-- Generator: Adobe Illustrator 16.0.0, SVG Export Plug-In . SVG Version: 6.00 Build 0)  -->
<!DOCTYPE svg PUBLIC "-//W3C//DTD SVG 1.1//EN" "http://www.w3.org/Graphics/SVG/1.1/DTD/svg11.dtd">
<svg version="1.1" id="Слой_1" xmlns="http://www.w3.org/2000/svg" xmlns:xlink="http://www.w3.org/1999/xlink" x="0px" y="0px"
	 width="106px" height="107.159px" viewBox="0 0 106 107.159" enable-background="new 0 0 106 107.159" xml:space="preserve">
<g>
	<path fill="#E4E4E4" d="M72.223,3.828v40.069c0,1.772-1.205,3.265-2.841,3.699c-0.315,0.084-0.646,0.129-0.986,0.129H3.827
		c-2.114,0-3.826-1.713-3.826-3.828V3.828C0.001,1.714,1.713,0,3.827,0h64.568c0.34,0,0.671,0.045,0.986,0.129
		C71.018,0.564,72.223,2.056,72.223,3.828z"/>
	<path fill="#5F666F" d="M72.222,3.828v3.809H0V3.828C0,1.713,1.713,0,3.827,0h64.567C70.509,0,72.222,1.713,72.222,3.828z"/>
	<circle fill="#E17841" cx="5.25" cy="3.818" r="2.386"/>
	<circle fill="#F0DC63" cx="11.613" cy="3.818" r="2.386"/>
	<g>
		<rect x="7.13" y="14.585" fill="#CACACA" width="55.444" height="2.595"/>
		<rect x="7.13" y="20.269" fill="#CACACA" width="55.444" height="2.595"/>
		<rect x="7.13" y="25.953" fill="#CACACA" width="55.444" height="2.595"/>
		<rect x="7.13" y="31.637" fill="#CACACA" width="55.444" height="2.596"/>
		<rect x="7.13" y="37.321" fill="#CACACA" width="55.444" height="2.595"/>
	</g>
	<path fill="#EFCF8C" d="M71.986,52.425l-9.656,8.907c-4.351,4.014-11.054,4.014-15.404,0l-9.654-8.907
		c-2.609-2.406-3.974-5.872-3.709-9.411l0.562-11.561c0.059-0.776,0.158-1.541,0.302-2.289c0.67-3.555,2.248-6.773,4.478-9.416
		c0.991-1.178,2.112-2.239,3.339-3.164c3.454-2.612,7.751-4.15,12.387-4.15s8.933,1.541,12.387,4.15
		c0.554,0.418,1.087,0.863,1.597,1.336c0.616,0.573,1.199,1.182,1.742,1.826c2.229,2.643,3.808,5.86,4.478,9.418
		c0.144,0.748,0.243,1.513,0.302,2.289l0.56,11.561C75.96,46.553,74.594,50.02,71.986,52.425z"/>
	<path fill="#FFFFFF" d="M61.667,49.474c0,0.732-0.112,1.439-0.32,2.102c-0.895,2.861-3.564,4.937-6.718,4.937
		c-3.156,0-5.826-2.075-6.718-4.937c-0.208-0.663-0.32-1.369-0.32-2.102H61.667z"/>
	<path fill="#F0DC63" d="M80.934,29.474h-3.067c0-12.813-10.425-23.238-23.238-23.238S31.391,16.66,31.391,29.474h-3.067
		c0-14.505,11.8-26.306,26.305-26.306S80.934,14.969,80.934,29.474z"/>
	<path fill="#7F7F7F" d="M74.832,29.165c-0.67-3.558-2.248-6.776-4.478-9.418c-0.543-0.644-1.126-1.252-1.742-1.826
		c-0.246-0.229-0.5-0.45-0.757-0.667c-0.052-0.043-0.105-0.084-0.157-0.127c-0.211-0.174-0.425-0.344-0.642-0.509
		c-0.014-0.011-0.027-0.022-0.041-0.033c-0.001,0-0.001,0.001-0.001,0.001c-3.456-2.609-7.75-4.151-12.386-4.151
		c-4.637,0-8.933,1.541-12.386,4.15h-0.001c-0.005,0.004-0.01,0.008-0.015,0.013c-0.285,0.215-0.564,0.438-0.838,0.668
		c-0.025,0.022-0.053,0.044-0.079,0.067c-0.261,0.222-0.517,0.452-0.768,0.687c-0.029,0.028-0.06,0.056-0.09,0.084
		c-0.251,0.239-0.496,0.485-0.735,0.737c-0.022,0.023-0.045,0.045-0.066,0.068c-0.257,0.273-0.506,0.553-0.748,0.839
		c-2.229,2.643-3.808,5.861-4.478,9.416c3.012-0.82,5.693-2.435,7.814-4.602c3.146,3.214,7.534,5.21,12.389,5.21
		s9.24-1.996,12.387-5.209C69.137,26.73,71.82,28.345,74.832,29.165z"/>
	<g>
		<circle fill="#7F7F7F" cx="45.427" cy="38.683" r="2.359"/>
		<circle fill="#7F7F7F" cx="63.829" cy="38.683" r="2.359"/>
	</g>
	<g>
		<polygon fill="#E4E4E4" points="41.911,59.209 53.944,71.241 48.281,80.443 38.844,61.568 		"/>
		<polygon fill="#E4E4E4" points="67.345,59.209 55.313,71.241 60.975,80.443 70.412,61.568 		"/>
	</g>
	<polygon fill="#82DEC5" points="57.965,79.027 54.628,73.365 51.291,79.027 54.628,82.363 	"/>
	<polygon fill="#82DEC5" points="63.803,97.984 54.628,82.415 45.454,97.984 54.628,107.159 	"/>
	<path fill="#E17841" d="M43.059,53.074c0,0.425-0.173,0.807-0.448,1.085c-0.278,0.276-0.66,0.449-1.086,0.449h-7.25
		c-3.402,0-6.16-2.759-6.16-6.161v-4.103h3.067v4.103c0,1.708,1.385,3.093,3.093,3.093h7.25
		C42.372,51.541,43.059,52.227,43.059,53.074z"/>
	<g>
		<path fill="#5EA5DD" d="M31.852,26.862c-5.322,0-9.637,4.314-9.637,9.636c0,5.321,4.314,9.636,9.637,9.636"/>
		<path fill="#5EA5DD" d="M77.404,26.862c5.322,0,9.636,4.314,9.636,9.636c0,5.321-4.313,9.636-9.636,9.636"/>
	</g>
	<path fill="#7F7F7F" d="M43.059,53.074c0,0.425-0.173,0.807-0.448,1.085c-0.278,0.276-0.66,0.449-1.086,0.449h-4.482v-3.068h4.482
		C42.372,51.541,43.059,52.227,43.059,53.074z"/>
	<path fill="#5F666F" d="M103.195,100.238H74.83c-1.55,0-2.805-1.256-2.805-2.805V60.811c0-1.549,1.255-2.805,2.805-2.805h28.365
		c1.549,0,2.805,1.256,2.805,2.805v36.623C106,98.982,104.744,100.238,103.195,100.238z"/>
	<rect x="75.564" y="61.545" fill="#E4E4E4" width="26.896" height="35.154"/>
	<path fill="#5EA5DD" d="M92.181,56.118h-6.336c-0.986,0-1.786,0.8-1.786,1.786v6h9.908v-6
		C93.967,56.918,93.167,56.118,92.181,56.118z"/>
	<g>
		<rect x="78.867" y="67.443" fill="#5EA5DD" width="20.29" height="2.595"/>
		<rect x="78.867" y="73.127" fill="#5EA5DD" width="20.29" height="2.596"/>
		<rect x="78.867" y="78.811" fill="#5EA5DD" width="20.29" height="2.596"/>
		<rect x="78.867" y="84.494" fill="#5EA5DD" width="20.29" height="2.596"/>
		<rect x="78.867" y="90.18" fill="#5EA5DD" width="10.146" height="2.595"/>
	</g>
	<path fill="#E17841" d="M13.172,56.476c-7.165,0-12.974,5.808-12.974,12.972c0,4.025,1.833,7.621,4.709,10.001L2.28,86.803
		l6.766-5.053l-0.003-0.004c1.297,0.436,2.686,0.676,4.129,0.676c7.165,0,12.974-5.809,12.974-12.975
		C26.146,62.283,20.337,56.476,13.172,56.476z"/>
	<path fill="#5EA5DD" d="M43.39,75.765l2.627-7.355l-6.765,5.052l0.003,0.006c-1.298-0.436-2.686-0.676-4.13-0.676
		c-7.166,0-12.974,5.809-12.974,12.974s5.808,12.974,12.974,12.974c7.165,0,12.973-5.809,12.973-12.974
		C48.098,81.74,46.266,78.144,43.39,75.765z M36.504,93.182h-2.758v-3.106h2.758V93.182z M36.504,87.688h-2.758v-9.259h2.758V87.688
		z"/>
	<path fill="#FFFFFF" d="M15.757,62.83l-0.688,0.762l2.933,2.653H8.344l2.933-2.653l-0.689-0.762L6.44,66.583l1.912,7.877h1.928
		h5.783h1.929l1.912-7.877L15.757,62.83 M12.658,68.635h-2.124l-0.183-1.362h2.308L12.658,68.635 M13.686,67.272h2.308l-0.183,1.362
		h-2.125V67.272 M9.498,68.635H7.995l-0.331-1.362h1.65L9.498,68.635 M8.244,69.662h1.392L9.829,71.1H8.594L8.244,69.662
		 M10.672,69.662h1.986V71.1h-1.793L10.672,69.662 M13.686,69.662h1.986L15.479,71.1h-1.794V69.662 M16.708,69.662H18.1L17.751,71.1
		h-1.235L16.708,69.662 M16.846,68.635l0.184-1.362h1.65l-0.331,1.362H16.846 M9.16,73.434l-0.317-1.307h1.124l0.176,1.307H9.16
		 M11.003,72.127h1.655v1.307h-1.48L11.003,72.127 M13.686,73.434v-1.307h1.655l-0.176,1.307H13.686 M16.201,73.434l0.176-1.307
		h1.125l-0.317,1.307H16.201"/>
</g>
</svg>
