<?xml version="1.0" encoding="utf-8"?>
<!-- Generator: Adobe Illustrator 16.0.0, SVG Export Plug-In . SVG Version: 6.00 Build 0)  -->
<!DOCTYPE svg PUBLIC "-//W3C//DTD SVG 1.1//EN" "http://www.w3.org/Graphics/SVG/1.1/DTD/svg11.dtd">
<svg version="1.1" id="Слой_1" xmlns="http://www.w3.org/2000/svg" xmlns:xlink="http://www.w3.org/1999/xlink" x="0px" y="0px"
	 width="83px" height="82.998px" viewBox="0 0 83 82.998" enable-background="new 0 0 83 82.998" xml:space="preserve">
<g>
	<path fill="#5F666F" d="M80.743,69.566c-0.547,0.443-1.025,0.924-1.488,1.386c-1.32,1.32-2.361,2.363-4.556,2.363
		c-2.193,0-3.235-1.043-4.556-2.363c-1.412-1.412-3.171-3.17-6.511-3.17c-3.339,0-5.098,1.758-6.512,3.17
		c-1.318,1.32-2.36,2.363-4.555,2.363s-3.235-1.043-4.556-2.363c-1.412-1.412-3.172-3.17-6.511-3.17s-5.097,1.758-6.511,3.17
		c-1.32,1.32-2.361,2.363-4.556,2.363s-3.235-1.043-4.555-2.363c-1.412-1.412-3.172-3.17-6.512-3.17
		c-3.339,0-5.099,1.758-6.512,3.17c-1.319,1.32-2.361,2.363-4.555,2.363c-2.194,0-3.235-1.043-4.556-2.363
		c-0.464-0.462-0.942-0.94-1.49-1.385c-0.592-0.482-1.465-0.39-1.944,0.202c-0.481,0.594-0.392,1.465,0.202,1.946
		c0.437,0.354,0.846,0.763,1.276,1.194c1.414,1.412,3.172,3.172,6.512,3.172c3.339,0,5.099-1.76,6.511-3.172
		c1.32-1.32,2.361-2.361,4.555-2.361c2.194,0,3.236,1.041,4.556,2.361c1.413,1.412,3.172,3.172,6.512,3.172
		c3.339,0,5.099-1.76,6.511-3.172c1.319-1.32,2.361-2.361,4.555-2.361c2.194,0,3.235,1.041,4.556,2.361
		c1.414,1.412,3.172,3.172,6.511,3.172c3.34,0,5.1-1.76,6.512-3.172c1.319-1.32,2.361-2.361,4.555-2.361
		c2.194,0,3.236,1.041,4.556,2.361c1.414,1.412,3.172,3.172,6.511,3.172c3.34,0,5.1-1.76,6.512-3.172
		c0.433-0.434,0.842-0.842,1.278-1.197c0.593-0.482,0.682-1.354,0.2-1.945C82.209,69.175,81.339,69.085,80.743,69.566z"/>
	<path fill="#5F666F" d="M8.762,46.988c0.346,2.085,0.89,4.125,1.619,6.088l-6.39,3.689c-0.318,0.182-0.551,0.485-0.645,0.84
		c-0.094,0.354-0.046,0.731,0.139,1.05c2.518,4.358,7.938,6.02,12.422,3.96c0.638,0.748,1.462,1.644,2.462,2.682
		c0.532,0.55,1.409,0.564,1.957,0.033c0.55-0.531,0.565-1.407,0.034-1.956c-1.357-1.406-2.395-2.565-3.001-3.354
		c-0.422-0.548-1.187-0.701-1.787-0.355l-0.241,0.138c-2.891,1.67-6.504,1.009-8.638-1.401l6.102-3.521
		c0.603-0.348,0.854-1.088,0.588-1.729c-1.014-2.441-1.701-5.024-2.049-7.681c-0.09-0.688-0.678-1.203-1.372-1.203H9.684
		c-3.341,0-6.134-2.38-6.776-5.533h7.055c0.694,0,1.282-0.516,1.372-1.205c0.348-2.655,1.035-5.237,2.049-7.68
		c0.266-0.642,0.015-1.382-0.588-1.729l-0.229-0.133c-1.602-0.922-2.746-2.414-3.225-4.198c-0.357-1.331-0.311-2.705,0.119-3.982
		l6.108,3.527c0.601,0.349,1.365,0.197,1.79-0.354c1.623-2.112,3.515-4.003,5.621-5.622c0.551-0.422,0.703-1.186,0.355-1.788
		l-0.137-0.24c-0.925-1.6-1.172-3.463-0.692-5.249c0.356-1.331,1.083-2.498,2.093-3.389l3.524,6.105
		c0.349,0.602,1.093,0.851,1.727,0.583c2.441-1.013,5.025-1.702,7.68-2.047c0.689-0.09,1.205-0.676,1.205-1.371V9.683
		c0-1.847,0.72-3.584,2.025-4.892c0.974-0.974,2.187-1.621,3.507-1.888v7.058c0,0.695,0.516,1.281,1.204,1.371
		c2.653,0.346,5.237,1.035,7.681,2.049c0.634,0.263,1.377,0.017,1.727-0.585l0.136-0.233c0.923-1.601,2.413-2.744,4.198-3.223
		c1.333-0.357,2.708-0.311,3.982,0.118l-3.527,6.11c-0.349,0.601-0.196,1.368,0.354,1.79c2.107,1.618,3.998,3.509,5.623,5.622
		c0.424,0.552,1.188,0.704,1.789,0.354l0.238-0.137c1.6-0.924,3.467-1.17,5.248-0.691c1.331,0.355,2.498,1.083,3.389,2.093
		l-6.102,3.522c-0.604,0.347-0.854,1.087-0.588,1.729c1.014,2.443,1.703,5.027,2.049,7.681c0.088,0.689,0.676,1.205,1.371,1.205
		h0.277h0.004c1.846,0,3.582,0.719,4.888,2.025c0.975,0.974,1.621,2.187,1.89,3.506h-7.059c-0.695,0-1.283,0.517-1.371,1.206
		c-0.348,2.653-1.036,5.237-2.051,7.679c-0.266,0.643-0.014,1.381,0.589,1.729l0.231,0.135c2.892,1.668,4.124,5.126,3.104,8.179
		l-6.113-3.528c-0.599-0.346-1.365-0.194-1.787,0.355c-0.708,0.924-1.479,1.814-2.288,2.65c-0.53,0.549-0.517,1.425,0.033,1.955
		c0.547,0.53,1.423,0.52,1.955-0.031c0.601-0.619,1.183-1.27,1.735-1.939l6.399,3.696c0.213,0.122,0.452,0.185,0.692,0.185
		c0.12,0,0.24-0.016,0.357-0.046c0.355-0.096,0.658-0.328,0.842-0.646c2.511-4.352,1.249-9.864-2.765-12.724
		c0.735-1.963,1.279-4.002,1.629-6.086l7.387,0.001c0.368,0,0.72-0.146,0.978-0.405C82.855,46.368,83,46.018,83,45.649
		c-0.001-2.587-1.008-5.019-2.838-6.847c-1.61-1.61-3.687-2.583-5.925-2.792c-0.346-2.085-0.889-4.124-1.618-6.088l6.39-3.689
		c0.318-0.183,0.55-0.485,0.645-0.84c0.095-0.354,0.045-0.732-0.137-1.05c-1.295-2.24-3.384-3.843-5.882-4.513
		c-2.2-0.588-4.485-0.393-6.528,0.546c-1.341-1.623-2.832-3.115-4.45-4.456l3.695-6.397c0.382-0.661,0.154-1.508-0.507-1.89
		c-2.242-1.294-4.85-1.637-7.35-0.968c-2.197,0.59-4.075,1.898-5.374,3.729c-1.964-0.733-4.003-1.278-6.088-1.627V1.383
		C47.033,0.62,46.415,0,45.649,0h-0.001c-2.586,0-5.018,1.007-6.845,2.835c-1.609,1.61-2.583,3.688-2.793,5.925
		c-2.085,0.347-4.125,0.89-6.088,1.619L26.235,3.99c-0.384-0.662-1.232-0.888-1.89-0.506c-2.239,1.293-3.843,3.381-4.513,5.881
		c-0.59,2.199-0.393,4.485,0.545,6.527c-1.619,1.338-3.11,2.829-4.455,4.45l-6.396-3.693c-0.663-0.383-1.508-0.156-1.89,0.506
		c-1.294,2.239-1.638,4.848-0.968,7.347c0.588,2.197,1.896,4.075,3.729,5.376c-0.733,1.963-1.278,4.002-1.628,6.087H1.384
		C0.619,35.966,0,36.584,0,37.35C0,42.377,3.853,46.523,8.762,46.988z"/>
	<path fill="#5F666F" d="M80.743,76.482c-0.547,0.445-1.025,0.925-1.488,1.389c-1.32,1.318-2.361,2.36-4.556,2.36
		c-2.193,0-3.235-1.042-4.556-2.36c-1.412-1.414-3.171-3.173-6.511-3.173c-3.339,0-5.098,1.759-6.512,3.173
		c-1.318,1.318-2.36,2.36-4.555,2.36s-3.235-1.042-4.556-2.36c-1.412-1.414-3.172-3.173-6.511-3.173s-5.097,1.759-6.511,3.173
		c-1.32,1.318-2.361,2.36-4.556,2.36s-3.235-1.042-4.555-2.36c-1.412-1.414-3.172-3.173-6.512-3.173
		c-3.339,0-5.099,1.759-6.512,3.173c-1.319,1.318-2.361,2.36-4.555,2.36c-2.194,0-3.235-1.042-4.556-2.362
		c-0.464-0.462-0.942-0.94-1.49-1.385c-0.592-0.482-1.465-0.389-1.944,0.202c-0.481,0.593-0.392,1.465,0.202,1.946
		c0.437,0.354,0.846,0.762,1.276,1.193c1.414,1.413,3.172,3.172,6.512,3.172c3.339,0,5.099-1.759,6.511-3.172
		c1.32-1.319,2.361-2.361,4.555-2.361c2.194,0,3.236,1.042,4.556,2.361c1.413,1.413,3.172,3.172,6.512,3.172
		c3.339,0,5.099-1.759,6.511-3.172c1.319-1.319,2.361-2.361,4.555-2.361c2.194,0,3.235,1.042,4.556,2.361
		c1.414,1.413,3.172,3.172,6.511,3.172c3.34,0,5.1-1.759,6.512-3.172c1.319-1.319,2.361-2.361,4.555-2.361
		c2.194,0,3.236,1.042,4.556,2.361c1.414,1.413,3.172,3.172,6.511,3.172c3.34,0,5.1-1.759,6.512-3.172
		c0.433-0.433,0.842-0.842,1.278-1.196c0.593-0.482,0.682-1.354,0.2-1.946C82.209,76.092,81.339,76,80.743,76.482z"/>
	<path fill="#83D293" d="M36.724,57.948c0.198,0.101,0.413,0.151,0.626,0.151c0.399,0,0.793-0.175,1.064-0.499l13.833-16.6
		c0.343-0.412,0.417-0.986,0.188-1.473c-0.227-0.486-0.715-0.796-1.252-0.796H44.57l2.437-12.179
		c0.127-0.64-0.209-1.281-0.807-1.541c-0.598-0.257-1.296-0.066-1.676,0.466L30.692,44.844c-0.303,0.422-0.342,0.977-0.105,1.438
		s0.711,0.752,1.229,0.752h6.528l-2.337,9.346C35.852,57.005,36.149,57.656,36.724,57.948z"/>
	<path fill="#EBEBEB" d="M34.505,44.266l8.525-11.935l-1.503,7.513c-0.081,0.407,0.023,0.829,0.286,1.148
		c0.264,0.321,0.654,0.508,1.07,0.508h5.346l-8.072,9.685l1.301-5.2c0.104-0.413,0.011-0.851-0.252-1.187
		c-0.262-0.335-0.664-0.531-1.09-0.531H34.505L34.505,44.266z"/>
</g>
</svg>
