<?xml version="1.0" encoding="utf-8"?>
<!-- Generator: Adobe Illustrator 16.0.0, SVG Export Plug-In . SVG Version: 6.00 Build 0)  -->
<!DOCTYPE svg PUBLIC "-//W3C//DTD SVG 1.1//EN" "http://www.w3.org/Graphics/SVG/1.1/DTD/svg11.dtd">
<svg version="1.1" id="Слой_1" xmlns="http://www.w3.org/2000/svg" xmlns:xlink="http://www.w3.org/1999/xlink" x="0px" y="0px"
	 width="13px" height="23.968px" viewBox="0 0 13 23.968" enable-background="new 0 0 13 23.968" xml:space="preserve">
<g>
	<g>
		<path fill="#CBD2D6" d="M6.5,23.968c-0.244,0-0.406-0.162-0.406-0.406v-2.031c0-0.244,0.162-0.406,0.406-0.406
			s0.406,0.162,0.406,0.406v2.031C6.906,23.806,6.744,23.968,6.5,23.968"/>
		<path fill="#CBD2D6" d="M3.25,5.281H1.625V0.813C1.625,0.366,1.99,0,2.438,0S3.25,0.366,3.25,0.813V5.281z"/>
	</g>
	<path fill="#E8EBEC" d="M4.063,19.906L4.063,19.906c0,0.894,0.731,1.625,1.625,1.625h1.625c0.894,0,1.625-0.731,1.625-1.625v-1.057
		c0-1.949,0.731-3.818,2.031-5.239l0,0C12.269,12.187,13,10.318,13,8.369V5.281H0v3.088c0,1.949,0.731,3.818,2.031,5.241
		c1.3,1.421,2.031,3.33,2.031,5.239V19.906L4.063,19.906z"/>
	<path fill="#CBD2D6" d="M9.75,5.281h1.625V0.813C11.375,0.366,11.01,0,10.563,0C10.116,0,9.75,0.366,9.75,0.813V5.281z"/>
	<path fill="#DDB832" d="M5.281,13.812c-0.122,0-0.203-0.041-0.284-0.121c-0.163-0.163-0.163-0.407,0-0.569l2.153-2.153H4.875
		c-0.162,0-0.325-0.081-0.365-0.244c-0.082-0.163-0.041-0.325,0.081-0.447l2.844-2.844c0.162-0.163,0.406-0.163,0.568,0
		c0.163,0.163,0.163,0.406,0,0.568L5.85,10.156h2.275c0.162,0,0.325,0.082,0.365,0.244c0.082,0.163,0.041,0.325-0.081,0.447
		l-2.844,2.844C5.484,13.771,5.403,13.812,5.281,13.812"/>
</g>
</svg>
