<?xml version="1.0" encoding="utf-8"?>
<!-- Generator: Adobe Illustrator 16.0.0, SVG Export Plug-In . SVG Version: 6.00 Build 0)  -->
<!DOCTYPE svg PUBLIC "-//W3C//DTD SVG 1.1//EN" "http://www.w3.org/Graphics/SVG/1.1/DTD/svg11.dtd">
<svg version="1.1" id="Слой_1" xmlns="http://www.w3.org/2000/svg" xmlns:xlink="http://www.w3.org/1999/xlink" x="0px" y="0px"
	 width="21px" height="13.034px" viewBox="0 0 21 13.034" enable-background="new 0 0 21 13.034" xml:space="preserve">
<g>
	<path fill="#75461E" d="M5.432,5.793H2.535v5.793h0.796c-0.325,0.869-0.868,1.448-1.521,1.448h3.621
		c-0.615,0-1.195-0.579-1.521-1.448h1.521V5.793z"/>
	<path fill="#BC8B5E" d="M3.621,9.775c0,1.811-0.797,3.259-1.811,3.259S0,11.586,0,9.775c0-1.81,0.797-3.258,1.811-3.258
		S3.621,7.966,3.621,9.775"/>
	<g>
		<path fill="#75461E" d="M1.811,11.768c-0.108,0-0.253-0.072-0.325-0.182c-0.108-0.217-0.398-0.832-0.398-1.811
			c0-0.978,0.29-1.593,0.398-1.81c0.108-0.182,0.325-0.218,0.507-0.145c0.181,0.108,0.217,0.326,0.145,0.507
			c-0.108,0.18-0.326,0.65-0.326,1.447s0.218,1.268,0.326,1.448s0.036,0.398-0.145,0.507C1.919,11.73,1.883,11.768,1.811,11.768"/>
		<path fill="#75461E" d="M19.19,6.517H5.432c1.014,0,1.811,1.449,1.811,3.258c0,1.811-0.797,3.259-1.811,3.259H19.19
			c1.014,0,1.81-1.448,1.81-3.259C21,7.966,20.204,6.517,19.19,6.517"/>
	</g>
	<g>
		<path fill="#BC8B5E" d="M10.139,8.328H6.952c-0.217,0-0.362-0.146-0.362-0.362c0-0.218,0.146-0.363,0.362-0.363h3.187
			c0.217,0,0.361,0.145,0.361,0.363C10.5,8.183,10.355,8.328,10.139,8.328"/>
		<path fill="#BC8B5E" d="M13.759,8.328h-2.172c-0.218,0-0.362-0.146-0.362-0.362c0-0.218,0.145-0.363,0.362-0.363h2.172
			c0.218,0,0.362,0.145,0.362,0.363C14.121,8.183,13.977,8.328,13.759,8.328"/>
		<path fill="#BC8B5E" d="M20.276,8.328h-5.069c-0.217,0-0.362-0.146-0.362-0.362c0-0.218,0.146-0.363,0.362-0.363h5.069
			c0.217,0,0.362,0.145,0.362,0.363C20.639,8.183,20.493,8.328,20.276,8.328"/>
		<path fill="#BC8B5E" d="M15.569,10.138h-1.086c-0.218,0-0.362-0.145-0.362-0.362c0-0.217,0.145-0.361,0.362-0.361h1.086
			c0.218,0,0.362,0.145,0.362,0.361C15.932,9.993,15.787,10.138,15.569,10.138"/>
		<path fill="#BC8B5E" d="M12.311,10.138H8.689c-0.217,0-0.361-0.145-0.361-0.362c0-0.217,0.145-0.361,0.361-0.361h3.621
			c0.218,0,0.362,0.145,0.362,0.361C12.673,9.993,12.528,10.138,12.311,10.138"/>
		<path fill="#BC8B5E" d="M20.639,10.138H17.38c-0.218,0-0.362-0.145-0.362-0.362c0-0.217,0.145-0.361,0.362-0.361h3.259
			C20.855,9.414,21,9.559,21,9.775C21,9.993,20.855,10.138,20.639,10.138"/>
		<path fill="#BC8B5E" d="M10.5,11.948H6.952c-0.217,0-0.362-0.146-0.362-0.362s0.146-0.362,0.362-0.362H10.5
			c0.218,0,0.362,0.146,0.362,0.362S10.718,11.948,10.5,11.948"/>
		<path fill="#BC8B5E" d="M18.828,11.948h-2.896c-0.217,0-0.362-0.146-0.362-0.362s0.146-0.362,0.362-0.362h2.896
			c0.217,0,0.362,0.146,0.362,0.362S19.045,11.948,18.828,11.948"/>
		<path fill="#BC8B5E" d="M13.397,11.948h-0.725c-0.217,0-0.362-0.146-0.362-0.362s0.146-0.362,0.362-0.362h0.725
			c0.217,0,0.362,0.146,0.362,0.362C13.759,11.803,13.614,11.948,13.397,11.948"/>
	</g>
	<path fill="#8C5A2B" d="M19.19,0H3.621c1.014,0,1.811,1.448,1.811,3.258c0,1.811-0.797,3.259-1.811,3.259H19.19
		c1.014,0,1.81-1.448,1.81-3.259C21,1.448,20.204,0,19.19,0"/>
	<g>
		<path fill="#75461E" d="M8.328,1.81H5.142c-0.217,0-0.361-0.145-0.361-0.362c0-0.218,0.145-0.362,0.361-0.362h3.187
			c0.217,0,0.361,0.145,0.361,0.362C8.689,1.666,8.545,1.81,8.328,1.81"/>
		<path fill="#75461E" d="M15.569,1.81H9.776c-0.218,0-0.362-0.145-0.362-0.362c0-0.218,0.145-0.362,0.362-0.362h5.793
			c0.218,0,0.362,0.145,0.362,0.362C15.932,1.666,15.787,1.81,15.569,1.81"/>
		<path fill="#75461E" d="M20.276,1.81h-5.069c-0.217,0-0.362-0.145-0.362-0.362c0-0.218,0.146-0.362,0.362-0.362h5.069
			c0.217,0,0.362,0.145,0.362,0.362C20.639,1.666,20.493,1.81,20.276,1.81"/>
		<path fill="#75461E" d="M13.035,3.621h-1.086c-0.218,0-0.362-0.145-0.362-0.363c0-0.217,0.145-0.362,0.362-0.362h1.086
			c0.217,0,0.362,0.145,0.362,0.362C13.397,3.476,13.252,3.621,13.035,3.621"/>
		<path fill="#75461E" d="M10.5,3.621H6.88c-0.218,0-0.362-0.145-0.362-0.363c0-0.217,0.145-0.362,0.362-0.362h3.62
			c0.218,0,0.362,0.145,0.362,0.362C10.862,3.476,10.718,3.621,10.5,3.621"/>
		<path fill="#75461E" d="M15.569,3.621h-1.086c-0.218,0-0.362-0.145-0.362-0.363c0-0.217,0.145-0.362,0.362-0.362h1.086
			c0.218,0,0.362,0.145,0.362,0.362C15.932,3.476,15.787,3.621,15.569,3.621"/>
		<path fill="#75461E" d="M20.639,3.621H17.38c-0.218,0-0.362-0.145-0.362-0.363c0-0.217,0.145-0.362,0.362-0.362h3.259
			C20.855,2.896,21,3.041,21,3.258C21,3.476,20.855,3.621,20.639,3.621"/>
		<path fill="#75461E" d="M8.689,5.431H5.142c-0.217,0-0.361-0.145-0.361-0.362s0.145-0.362,0.361-0.362h3.548
			c0.218,0,0.363,0.145,0.363,0.362S8.907,5.431,8.689,5.431"/>
		<path fill="#75461E" d="M19.19,5.431h-2.896c-0.218,0-0.362-0.145-0.362-0.362s0.145-0.362,0.362-0.362h2.896
			c0.217,0,0.362,0.145,0.362,0.362S19.407,5.431,19.19,5.431"/>
		<path fill="#75461E" d="M14.483,5.431h-3.621c-0.217,0-0.362-0.145-0.362-0.362s0.146-0.362,0.362-0.362h3.621
			c0.217,0,0.361,0.145,0.361,0.362S14.7,5.431,14.483,5.431"/>
	</g>
	<path fill="#BC8B5E" d="M5.432,3.258c0,1.811-0.797,3.259-1.811,3.259S1.811,5.069,1.811,3.258C1.811,1.448,2.607,0,3.621,0
		S5.432,1.448,5.432,3.258"/>
	<path fill="#75461E" d="M3.621,5.25c-0.108,0-0.253-0.073-0.326-0.181C3.187,4.852,2.897,4.236,2.897,3.258
		c0-0.977,0.289-1.592,0.397-1.81C3.404,1.267,3.621,1.23,3.803,1.303C3.983,1.412,4.02,1.629,3.947,1.81
		C3.838,1.991,3.621,2.462,3.621,3.258c0,0.797,0.217,1.268,0.326,1.449c0.108,0.181,0.036,0.398-0.145,0.507
		C3.729,5.214,3.693,5.25,3.621,5.25"/>
	<path fill="#BC8B5E" d="M7.242,9.775c0,1.811-0.797,3.259-1.811,3.259s-1.811-1.448-1.811-3.259c0-1.81,0.797-3.258,1.811-3.258
		S7.242,7.966,7.242,9.775"/>
	<path fill="#75461E" d="M5.432,11.768c-0.108,0-0.253-0.072-0.326-0.182c-0.108-0.217-0.398-0.832-0.398-1.811
		c0-0.978,0.29-1.593,0.398-1.81c0.109-0.182,0.326-0.218,0.507-0.145C5.794,7.929,5.83,8.146,5.757,8.328
		c-0.108,0.18-0.325,0.65-0.325,1.447s0.217,1.268,0.325,1.448c0.109,0.181,0.037,0.398-0.145,0.507
		C5.54,11.73,5.504,11.768,5.432,11.768"/>
</g>
</svg>
