<?xml version="1.0" encoding="utf-8"?>
<!-- Generator: Adobe Illustrator 16.0.0, SVG Export Plug-In . SVG Version: 6.00 Build 0)  -->
<!DOCTYPE svg PUBLIC "-//W3C//DTD SVG 1.1//EN" "http://www.w3.org/Graphics/SVG/1.1/DTD/svg11.dtd">
<svg version="1.1" id="Слой_1" xmlns="http://www.w3.org/2000/svg" xmlns:xlink="http://www.w3.org/1999/xlink" x="0px" y="0px"
	 width="21px" height="29.347px" viewBox="0 0 21 29.347" enable-background="new 0 0 21 29.347" xml:space="preserve">
<g>
	<g>
		<path fill="#E0E0E0" d="M19.49,6.789v20.659c0,0-4.38,1.606-9.197,1.606c-4.818,0-10.002-1.606-10.002-1.606V0.292H19.49v3.505"/>
		<path fill="#5F666F" d="M10.293,29.347c-4.807,0-10.035-1.603-10.088-1.619L0,27.664V0h19.783v3.797h-0.584V0.584H0.584V27.23
			c1.006,0.292,5.526,1.532,9.709,1.532c4.146,0,8.015-1.221,8.906-1.522V6.789h0.584v20.863l-0.191,0.07
			C19.547,27.739,15.107,29.347,10.293,29.347z"/>
	</g>
	<g>
		<path fill="#E0E0E0" d="M21,3.76h-8.644c-0.847-0.912-1.702-1.496-2.466-1.496c-2.771,0-6.769,7.693-7.125,10.916
			c-0.017,0.066-0.028,0.133-0.028,0.205v0.226v6.382v5.022c0,0.457,0.37,0.827,0.827,0.827h12.653c0.457,0,0.827-0.37,0.827-0.827
			v-5.022V13.61v-0.226c0-0.071-0.012-0.138-0.028-0.205c-0.167-1.515-1.14-4.018-2.411-6.245H21"/>
		<path fill="#5F666F" d="M16.218,25.988H3.564c-0.536,0-0.974-0.437-0.974-0.974v-11.63c0-0.076,0.011-0.152,0.033-0.241
			C2.984,9.871,7.006,2.117,9.891,2.117c0.745,0,1.596,0.503,2.529,1.497H21v0.292h-8.707l-0.044-0.047
			c-0.881-0.948-1.696-1.45-2.358-1.45c-2.698,0-6.634,7.657-6.98,10.787c-0.02,0.084-0.027,0.138-0.027,0.188v11.63
			c0,0.376,0.307,0.682,0.682,0.682h12.653c0.376,0,0.682-0.306,0.682-0.682v-11.63c0-0.051-0.008-0.104-0.024-0.168
			c-0.167-1.501-1.129-3.988-2.396-6.208l-0.124-0.219H21v0.292h-6.144c1.224,2.195,2.144,4.614,2.306,6.083
			c0.019,0.068,0.029,0.144,0.029,0.22v11.63C17.191,25.552,16.754,25.988,16.218,25.988z"/>
	</g>
	<g>
		<path fill="#F1F1F1" d="M17.045,25.015c0,0.457-0.37,0.827-0.828,0.827H3.564c-0.457,0-0.827-0.37-0.827-0.827v-11.63h14.308
			V25.015z"/>
		<path fill="#5F666F" d="M16.217,25.988H3.564c-0.536,0-0.974-0.437-0.974-0.974V13.238h14.601v11.776
			C17.191,25.552,16.754,25.988,16.217,25.988z M2.883,13.53v11.484c0,0.376,0.306,0.682,0.682,0.682h12.652
			c0.377,0,0.683-0.306,0.683-0.682V13.53H2.883z"/>
	</g>
	<g>
		<g>
			<path fill="#E17841" d="M9.098,19.346c0.02,0.158-0.14,0.271-0.28,0.187c-0.513-0.299-0.765-0.85-1.101-1.326
				c-0.541,0.859-0.951,1.69-0.951,2.576c0,1.801,1.277,3.173,3.079,3.173c1.801,0,3.173-1.372,3.173-3.173
				c0-2.259-2.361-2.65-2.333-5.506C9.732,15.949,8.837,17.451,9.098,19.346z"/>
		</g>
		<g>
			<path fill="#AB4A1B" d="M9.845,24.142c-1.895,0-3.267-1.409-3.267-3.359c0-0.979,0.477-1.866,0.98-2.678
				c0.037-0.056,0.093-0.084,0.148-0.084c0.066,0,0.122,0.028,0.159,0.074c0.084,0.111,0.159,0.233,0.233,0.354
				c0.233,0.364,0.457,0.709,0.812,0.914l0,0c-0.271-1.932,0.644-3.526,1.661-4.246c0.056-0.037,0.131-0.046,0.196-0.009
				c0.065,0.028,0.103,0.093,0.103,0.167c-0.02,1.446,0.615,2.239,1.222,2.996c0.551,0.681,1.111,1.381,1.111,2.51
				C13.204,22.695,11.757,24.142,9.845,24.142z M7.727,18.553c-0.42,0.689-0.775,1.437-0.775,2.229c0,1.727,1.214,2.986,2.894,2.986
				c1.698,0,2.985-1.288,2.985-2.986c0-0.999-0.476-1.586-1.026-2.276c-0.569-0.709-1.204-1.502-1.297-2.847
				c-0.802,0.728-1.446,2.063-1.223,3.658l0,0c0.019,0.149-0.047,0.289-0.167,0.364c-0.122,0.074-0.271,0.074-0.393,0
				c-0.43-0.253-0.682-0.654-0.933-1.036C7.764,18.617,7.744,18.59,7.727,18.553z"/>
		</g>
	</g>
	<g>
		<line fill="#F1F1F1" x1="14.783" y1="6.935" x2="12.641" y2="6.935"/>
		<rect x="12.641" y="6.789" fill="#5F666F" width="2.143" height="0.292"/>
	</g>
	<g>
		<g>
			<circle fill="#F1F1F1" cx="9.891" cy="5.517" r="3.821"/>
			<path fill="#5F666F" d="M9.891,9.484c-2.187,0-3.966-1.78-3.966-3.967s1.779-3.966,3.966-3.966c2.188,0,3.967,1.779,3.967,3.966
				S12.078,9.484,9.891,9.484z M9.891,1.843c-2.025,0-3.674,1.648-3.674,3.674c0,2.026,1.648,3.675,3.674,3.675
				c2.026,0,3.675-1.648,3.675-3.675C13.565,3.491,11.917,1.843,9.891,1.843z"/>
		</g>
		<g>
			<circle fill="#F1F1F1" cx="9.891" cy="5.517" r="1.702"/>
			<path fill="#5F666F" d="M9.891,7.365c-1.018,0-1.847-0.829-1.847-1.848c0-1.019,0.829-1.847,1.847-1.847
				c1.02,0,1.848,0.829,1.848,1.847C11.738,6.536,10.91,7.365,9.891,7.365z M9.891,3.962c-0.857,0-1.555,0.698-1.555,1.555
				c0,0.858,0.697,1.556,1.555,1.556s1.556-0.698,1.556-1.556C11.446,4.66,10.748,3.962,9.891,3.962z"/>
		</g>
	</g>
</g>
</svg>
