<?xml version="1.0" encoding="utf-8"?>
<!-- Generator: Adobe Illustrator 16.0.0, SVG Export Plug-In . SVG Version: 6.00 Build 0)  -->
<!DOCTYPE svg PUBLIC "-//W3C//DTD SVG 1.1//EN" "http://www.w3.org/Graphics/SVG/1.1/DTD/svg11.dtd">
<svg version="1.1" id="Слой_1" xmlns="http://www.w3.org/2000/svg" xmlns:xlink="http://www.w3.org/1999/xlink" x="0px" y="0px"
	 width="32px" height="24.266px" viewBox="0 0 32 24.266" enable-background="new 0 0 32 24.266" xml:space="preserve">
<g>
	<g>
		<g>
			<rect x="0.936" y="3.777" fill="#5F666F" width="1.039" height="1.983"/>
		</g>
		<g>
			<rect x="0.936" y="18.506" fill="#5F666F" width="1.039" height="1.982"/>
		</g>
		<g>
			<path fill="#5F666F" d="M4.249,6.421v11.423c0,0.934,0.756,1.693,1.688,1.7v-0.567c-0.618-0.008-1.12-0.512-1.12-1.133V6.421
				c0-0.621,0.502-1.125,1.12-1.131V4.722C5.005,4.728,4.249,5.488,4.249,6.421z"/>
		</g>
		<g>
			<path fill="none" d="M10.66,18.978c0.625,0,1.133-0.509,1.133-1.134V6.421c0-0.625-0.508-1.133-1.133-1.133
				c-0.624,0-1.133,0.508-1.133,1.133v11.423C9.527,18.469,10.036,18.978,10.66,18.978z"/>
		</g>
		<g>
			<path fill="#F1F1F1" d="M17.979,6.137c0.494,0,0.896-0.402,0.896-0.897V3.824c0-0.495-0.402-0.897-0.896-0.897
				c-0.495,0-0.897,0.402-0.897,0.897v0.52h-1.039V2.927h-1.416V2.172c0-0.885-0.72-1.605-1.605-1.605
				c-0.885,0-1.604,0.721-1.604,1.605v0.472c0,0.417-0.339,0.756-0.756,0.756c-0.416,0-0.755-0.339-0.755-0.756V2.172
				c0-0.885-0.72-1.605-1.605-1.605c-0.885,0-1.604,0.721-1.604,1.605v0.472C6.695,3.061,6.356,3.4,5.94,3.4c0,0-0.003,0-0.004,0
				V3.398C5.525,3.392,5.193,3.057,5.193,2.644V2.172c0-0.885-0.72-1.605-1.604-1.605c-0.886,0-1.605,0.721-1.605,1.605V3.4H0.567
				v2.737h1.416v11.991H0.567v2.737h1.416v1.229c0,0.885,0.72,1.604,1.605,1.604c0.885,0,1.604-0.72,1.604-1.604v-0.473
				c0-0.412,0.332-0.748,0.743-0.754v-0.002c0.001,0,0.003,0,0.003,0c0.417,0,0.756,0.339,0.756,0.756v0.473
				c0,0.885,0.72,1.604,1.604,1.604c0.886,0,1.605-0.72,1.605-1.604v-0.473c0-0.417,0.339-0.756,0.755-0.756
				c0.417,0,0.756,0.339,0.756,0.756v0.473c0,0.885,0.72,1.604,1.604,1.604c0.886,0,1.605-0.72,1.605-1.604v-1.229h1.416v-0.472
				h2.833V18.6h-2.833v-0.472h-1.416V6.137h1.416V4.721h1.039V5.24C17.081,5.735,17.483,6.137,17.979,6.137z M17.458,3.824
				c0-0.287,0.233-0.519,0.521-0.519c0.286,0,0.519,0.232,0.519,0.519V5.24c0,0.287-0.232,0.52-0.519,0.52
				c-0.287,0-0.521-0.233-0.521-0.52V3.824z M1.983,20.489H0.944v-1.982h1.039V20.489z M1.983,5.76H0.944V3.777h1.039V5.76z
				 M7.64,17.844c0,0.938-0.763,1.701-1.699,1.701c0,0-0.003,0-0.004-0.001l0,0c-0.932-0.007-1.688-0.767-1.688-1.7V6.421
				c0-0.933,0.756-1.693,1.688-1.699v0c0.001,0,0.003,0,0.003,0c0.938,0,1.7,0.762,1.7,1.7V17.844z M12.36,17.844
				c0,0.938-0.763,1.701-1.7,1.701c-0.937,0-1.699-0.764-1.699-1.701V6.421c0-0.938,0.763-1.7,1.699-1.7c0.938,0,1.7,0.762,1.7,1.7
				V17.844z M16.042,18.978h2.455v1.038h-2.455V18.978z M15.665,18.506v1.982h-1.039v-1.982H15.665z M15.665,5.76h-1.039V3.305
				h1.039V5.76z"/>
		</g>
		<g>
			<path fill="#5F666F" d="M16.609,6.704V5.759c0.209,0.552,0.744,0.945,1.369,0.945c0.807,0,1.464-0.656,1.464-1.464V3.824
				c0-0.807-0.657-1.464-1.464-1.464c-0.625,0-1.16,0.394-1.369,0.946V2.36h-1.416V2.172C15.193,0.975,14.219,0,13.021,0
				c-1.197,0-2.171,0.975-2.171,2.172v0.472c0,0.104-0.085,0.188-0.189,0.188c-0.104,0-0.188-0.084-0.188-0.188V2.172
				C10.473,0.975,9.498,0,8.3,0C7.103,0,6.129,0.975,6.129,2.172v0.472c0,0.104-0.085,0.188-0.188,0.188c0,0-0.003,0-0.004-0.001
				V2.831C5.839,2.824,5.761,2.744,5.761,2.644V2.172C5.761,0.975,4.786,0,3.589,0C2.391,0,1.416,0.975,1.416,2.172v0.66H0v3.872
				h1.416v10.857H0v3.872h1.416v0.661c0,1.197,0.975,2.172,2.173,2.172c1.197,0,2.172-0.975,2.172-2.172v-0.473
				c0-0.1,0.078-0.18,0.176-0.186v-0.002c0.001-0.001,0.003-0.001,0.003-0.001c0.104,0,0.189,0.085,0.189,0.188v0.473
				c0,1.197,0.974,2.172,2.171,2.172c1.198,0,2.173-0.975,2.173-2.172v-0.473c0-0.104,0.084-0.188,0.188-0.188
				c0.104,0,0.189,0.085,0.189,0.188v0.473c0,1.197,0.974,2.172,2.171,2.172c1.198,0,2.173-0.975,2.173-2.172v-0.661h1.416v-0.472
				h2.833v-2.928h-2.833v-0.473h-1.416V6.704H16.609z M16.042,18.128V18.6h2.833v1.794h-2.833v0.472h-1.416v1.229
				c0,0.885-0.72,1.604-1.605,1.604c-0.885,0-1.604-0.72-1.604-1.604v-0.473c0-0.417-0.339-0.756-0.756-0.756
				c-0.416,0-0.755,0.339-0.755,0.756v0.473c0,0.885-0.72,1.604-1.605,1.604c-0.885,0-1.604-0.72-1.604-1.604v-0.473
				c0-0.417-0.339-0.756-0.755-0.756c-0.003,0-0.006,0.001-0.009,0.001v0.001c-0.408,0.01-0.738,0.343-0.738,0.754v0.473
				c0,0.885-0.72,1.604-1.604,1.604c-0.886,0-1.605-0.72-1.605-1.604v-1.229H0.567v-2.737h1.416V6.137H0.567V3.4h1.416V2.172
				c0-0.885,0.72-1.605,1.605-1.605c0.885,0,1.604,0.721,1.604,1.605v0.472c0,0.411,0.33,0.745,0.738,0.754v0.001
				C5.935,3.399,5.938,3.4,5.94,3.4c0.416,0,0.755-0.339,0.755-0.756V2.172c0-0.885,0.72-1.605,1.604-1.605
				c0.886,0,1.605,0.721,1.605,1.605v0.472c0,0.417,0.339,0.756,0.755,0.756c0.417,0,0.756-0.339,0.756-0.756V2.172
				c0-0.885,0.72-1.605,1.604-1.605c0.886,0,1.605,0.721,1.605,1.605v0.755h1.416v1.417h1.039v-0.52
				c0-0.495,0.402-0.897,0.897-0.897c0.494,0,0.896,0.402,0.896,0.897V5.24c0,0.495-0.402,0.897-0.896,0.897
				c-0.495,0-0.897-0.402-0.897-0.897V4.721h-1.039v1.416h-1.416v11.991H16.042z"/>
		</g>
		<g>
			<rect x="14.626" y="18.506" fill="#5F666F" width="1.039" height="1.982"/>
		</g>
		<g>
			<path fill="#5F666F" d="M10.66,19.545c0.938,0,1.7-0.764,1.7-1.701V6.421c0-0.938-0.763-1.7-1.7-1.7
				c-0.937,0-1.699,0.762-1.699,1.7v11.423C8.961,18.782,9.724,19.545,10.66,19.545z M9.527,6.421c0-0.625,0.509-1.133,1.133-1.133
				c0.625,0,1.133,0.508,1.133,1.133v11.423c0,0.625-0.508,1.134-1.133,1.134c-0.624,0-1.133-0.509-1.133-1.134V6.421z"/>
		</g>
		<g>
			<path fill="#5F666F" d="M7.64,17.844V6.421c0-0.938-0.763-1.7-1.699-1.7c-0.003,0-0.006,0-0.009,0V5.29
				c0.003,0,0.006-0.001,0.009-0.001c0.624,0,1.132,0.508,1.132,1.133v11.423c0,0.625-0.508,1.134-1.132,1.134
				c-0.003,0-0.006-0.001-0.009-0.001v0.567c0.003,0,0.006,0.001,0.009,0.001C6.877,19.545,7.64,18.782,7.64,17.844z"/>
		</g>
		<g>
			<rect x="16.042" y="18.978" fill="#5F666F" width="2.455" height="1.038"/>
		</g>
		<g>
			<rect x="14.626" y="3.305" fill="#5F666F" width="1.039" height="2.455"/>
		</g>
		<g>
			<path fill="#5F666F" d="M17.979,5.76c0.286,0,0.519-0.233,0.519-0.52V3.824c0-0.287-0.232-0.519-0.519-0.519
				c-0.287,0-0.521,0.232-0.521,0.519V5.24C17.458,5.527,17.691,5.76,17.979,5.76z"/>
		</g>
	</g>
	<g>
		<g>
			<path fill="#F1F1F1" d="M31.717,10.73V9.482c0-0.344-0.279-0.623-0.623-0.623H18.619c-0.345,0-0.623,0.279-0.623,0.623v1.248
				c0,0.344,0.278,0.624,0.623,0.624h12.475C31.438,11.354,31.717,11.074,31.717,10.73z"/>
			<path fill="#5F666F" d="M31.094,11.637H18.619c-0.5,0-0.907-0.407-0.907-0.907V9.482c0-0.5,0.407-0.907,0.907-0.907h12.475
				c0.5,0,0.906,0.407,0.906,0.907v1.248C32,11.23,31.594,11.637,31.094,11.637z M18.619,9.142c-0.188,0-0.34,0.153-0.34,0.34v1.248
				c0,0.187,0.152,0.34,0.34,0.34h12.475c0.188,0,0.34-0.153,0.34-0.34V9.482c0-0.187-0.152-0.34-0.34-0.34H18.619z"/>
		</g>
		<g>
			<path fill="#F1F1F1" d="M31.094,11.222c0,0.841-0.279,1.524-0.624,1.524H19.243c-0.345,0-0.624-0.683-0.624-1.524l0,0H31.094
				L31.094,11.222z"/>
			<path fill="#5F666F" d="M30.47,13.029H19.243c-0.596,0-0.907-0.909-0.907-1.807v-0.283h13.041v0.283
				C31.377,12.12,31.065,13.029,30.47,13.029z M18.914,11.505c0.05,0.607,0.251,0.933,0.333,0.957l11.22-0.001
				c0.084-0.028,0.282-0.354,0.332-0.956H18.914z"/>
		</g>
		<g>
			<path fill="#7CBCE4" d="M21.426,15.124c0,0.5,0.42,0.907,0.936,0.907c0.517,0,0.936-0.407,0.936-0.907
				c0-0.502-0.569-1.304-0.684-1.459c-0.118-0.161-0.386-0.161-0.504,0C21.996,13.82,21.426,14.622,21.426,15.124z"/>
		</g>
		<g>
			<path fill="#60A9D9" d="M21.426,15.124c0,0.5,0.42,0.907,0.936,0.907c0.348,0,0.648-0.187,0.81-0.461
				c-0.145,0.089-0.314,0.143-0.497,0.143c-0.517,0-0.937-0.407-0.937-0.907c0-0.379,0.324-0.929,0.532-1.243
				c-0.062,0.019-0.12,0.047-0.16,0.102C21.996,13.82,21.426,14.622,21.426,15.124z"/>
		</g>
		<g>
			<path fill="#7CBCE4" d="M23.92,15.117c0,0.5,0.42,0.907,0.937,0.907c0.516,0,0.936-0.407,0.936-0.907
				c0-0.501-0.57-1.304-0.685-1.46c-0.117-0.16-0.385-0.16-0.503,0C24.49,13.813,23.92,14.616,23.92,15.117z"/>
		</g>
		<g>
			<path fill="#60A9D9" d="M23.92,15.117c0,0.5,0.42,0.907,0.937,0.907c0.348,0,0.648-0.188,0.81-0.461
				c-0.145,0.088-0.314,0.143-0.498,0.143c-0.516,0-0.936-0.407-0.936-0.907c0-0.379,0.324-0.929,0.532-1.242
				c-0.062,0.017-0.12,0.046-0.16,0.101C24.49,13.813,23.92,14.616,23.92,15.117z"/>
		</g>
		<g>
			<path fill="#7CBCE4" d="M26.416,15.117c0,0.5,0.419,0.907,0.936,0.907c0.516,0,0.935-0.407,0.935-0.907
				c0-0.501-0.569-1.304-0.684-1.46c-0.117-0.16-0.386-0.16-0.503,0C26.985,13.813,26.416,14.616,26.416,15.117z"/>
		</g>
		<g>
			<path fill="#60A9D9" d="M26.416,15.117c0,0.5,0.419,0.907,0.936,0.907c0.348,0,0.647-0.188,0.809-0.461
				c-0.145,0.088-0.313,0.143-0.497,0.143c-0.516,0-0.936-0.407-0.936-0.907c0-0.379,0.324-0.929,0.532-1.242
				c-0.063,0.017-0.121,0.046-0.16,0.101C26.985,13.813,26.416,14.616,26.416,15.117z"/>
		</g>
		<g>
			<path fill="#7CBCE4" d="M22.674,18.243c0,0.5,0.419,0.907,0.935,0.907c0.517,0,0.936-0.407,0.936-0.907
				c0-0.502-0.569-1.305-0.684-1.461c-0.118-0.16-0.386-0.16-0.503,0C23.242,16.938,22.674,17.741,22.674,18.243z"/>
		</g>
		<g>
			<path fill="#60A9D9" d="M22.674,18.243c0,0.5,0.419,0.907,0.935,0.907c0.348,0,0.648-0.188,0.81-0.462
				c-0.145,0.09-0.314,0.144-0.498,0.144c-0.516,0-0.936-0.408-0.936-0.908c0-0.378,0.324-0.928,0.533-1.241
				c-0.063,0.018-0.121,0.046-0.16,0.1C23.242,16.938,22.674,17.741,22.674,18.243z"/>
		</g>
		<g>
			<path fill="#7CBCE4" d="M25.168,18.243c0,0.5,0.42,0.907,0.936,0.907s0.936-0.407,0.936-0.907c0-0.502-0.57-1.305-0.684-1.461
				c-0.118-0.16-0.386-0.16-0.504,0C25.738,16.938,25.168,17.741,25.168,18.243z"/>
		</g>
		<g>
			<path fill="#60A9D9" d="M25.168,18.243c0,0.5,0.42,0.907,0.936,0.907c0.348,0,0.648-0.188,0.81-0.462
				c-0.145,0.09-0.314,0.144-0.497,0.144c-0.517,0-0.937-0.408-0.937-0.908c0-0.378,0.324-0.928,0.532-1.241
				c-0.062,0.018-0.12,0.046-0.16,0.1C25.738,16.938,25.168,17.741,25.168,18.243z"/>
		</g>
		<g>
			<polygon fill="#F1F1F1" points="23.92,5.116 23.92,8.235 24.544,8.235 25.792,8.235 25.792,5.116 			"/>
			<path fill="#5F666F" d="M26.075,8.518h-2.438V4.833h2.438V8.518z M24.203,7.951h1.305V5.399h-1.305V7.951z"/>
		</g>
		<g>
			<path fill="#F1F1F1" d="M23.772,7.334c-0.477,0.34-0.788,0.896-0.788,1.525h3.743c0-0.629-0.312-1.185-0.787-1.525
				c-0.032-0.023-0.072-0.035-0.112-0.035h-1.944C23.844,7.299,23.805,7.311,23.772,7.334z"/>
			<path fill="#5F666F" d="M27.011,9.142h-4.31V8.859c0-0.695,0.339-1.351,0.906-1.756c0.078-0.056,0.177-0.087,0.276-0.087h1.944
				c0.102,0,0.197,0.031,0.277,0.088c0.566,0.404,0.905,1.061,0.905,1.755V9.142z M23.294,8.575h3.124
				c-0.072-0.393-0.291-0.75-0.618-0.993h-1.888C23.585,7.826,23.366,8.183,23.294,8.575z"/>
		</g>
	</g>
</g>
</svg>
