<?xml version="1.0" encoding="utf-8"?>
<!-- Generator: Adobe Illustrator 16.0.0, SVG Export Plug-In . SVG Version: 6.00 Build 0)  -->
<!DOCTYPE svg PUBLIC "-//W3C//DTD SVG 1.1//EN" "http://www.w3.org/Graphics/SVG/1.1/DTD/svg11.dtd">
<svg version="1.1" id="Слой_1" xmlns="http://www.w3.org/2000/svg" xmlns:xlink="http://www.w3.org/1999/xlink" x="0px" y="0px"
	 width="88.147px" height="86.267px" viewBox="0 0 88.147 86.267" enable-background="new 0 0 88.147 86.267" xml:space="preserve">
<g>
	<rect x="16.251" y="1.5" fill="#EDEDED" width="70.396" height="71.185"/>
	<path fill="none" stroke="#49D492" stroke-width="3" stroke-linecap="round" stroke-miterlimit="10" d="M16.251,72.685
		c0,0,68.075-2.25,68.075-71.185"/>
	
		<line fill="none" stroke="#5C6670" stroke-width="3" stroke-linecap="round" stroke-miterlimit="10" x1="16.251" y1="1.5" x2="16.251" y2="77.663"/>
	
		<line fill="none" stroke="#5C6670" stroke-width="3" stroke-linecap="round" stroke-miterlimit="10" x1="86.647" y1="72.685" x2="10.485" y2="72.685"/>
	<g>
		<path fill="#5C6670" d="M7.074,4.763c0.15,0.507,0.311,1.036,0.479,1.585c0.169,0.549,0.345,1.099,0.528,1.649
			c0.184,0.549,0.366,1.09,0.55,1.621c0.183,0.531,0.359,1.031,0.528,1.501c0.141-0.507,0.277-1.06,0.409-1.656
			C9.7,8.867,9.832,8.247,9.964,7.603c0.131-0.643,0.261-1.298,0.387-1.966c0.127-0.667,0.247-1.325,0.359-1.973h1.832
			c-0.328,1.767-0.693,3.465-1.098,5.095c-0.403,1.63-0.854,3.188-1.351,4.672H8.385c-0.728-1.897-1.433-3.969-2.113-6.215
			C5.923,8.352,5.57,9.433,5.213,10.457c-0.357,1.024-0.715,2.015-1.072,2.974H2.446c-0.506-1.484-0.959-3.042-1.357-4.672
			C0.691,7.128,0.328,5.43,0,3.664h1.902c0.112,0.639,0.232,1.292,0.359,1.959C2.389,6.29,2.52,6.945,2.656,7.589
			c0.136,0.644,0.274,1.266,0.416,1.867c0.141,0.601,0.281,1.156,0.423,1.663c0.178-0.479,0.359-0.984,0.542-1.515
			C4.221,9.073,4.401,8.533,4.58,7.983c0.179-0.55,0.35-1.097,0.515-1.642c0.164-0.544,0.316-1.071,0.458-1.578H7.074z"/>
	</g>
	<g>
		<path fill="#5C6670" d="M81.758,76.783l1.705-0.282v2.227h2.621v1.424h-2.621v3.002c0,0.592,0.094,1.015,0.281,1.268
			c0.188,0.254,0.508,0.381,0.959,0.381c0.31,0,0.585-0.033,0.824-0.098c0.239-0.066,0.43-0.127,0.57-0.184l0.282,1.353
			c-0.197,0.085-0.456,0.172-0.775,0.261c-0.319,0.09-0.695,0.134-1.127,0.134c-0.526,0-0.966-0.07-1.317-0.212
			c-0.353-0.141-0.633-0.345-0.839-0.612c-0.207-0.268-0.353-0.592-0.438-0.973c-0.084-0.38-0.126-0.815-0.126-1.304V76.783z"/>
	</g>
</g>
</svg>
