<?xml version="1.0" encoding="utf-8"?>
<!-- Generator: Adobe Illustrator 16.0.0, SVG Export Plug-In . SVG Version: 6.00 Build 0)  -->
<!DOCTYPE svg PUBLIC "-//W3C//DTD SVG 1.1//EN" "http://www.w3.org/Graphics/SVG/1.1/DTD/svg11.dtd">
<svg version="1.1" id="Слой_1" xmlns="http://www.w3.org/2000/svg" xmlns:xlink="http://www.w3.org/1999/xlink" x="0px" y="0px"
	 width="38px" height="58.913px" viewBox="0 0 38 58.913" enable-background="new 0 0 38 58.913" xml:space="preserve">
<g>
	<polygon fill="#D1DAE3" points="9.078,6.705 6.864,0.086 2.435,0.086 0.221,6.705 2.575,9.831 2.575,31.617 6.724,31.617 
		6.724,9.831 	"/>
	<path fill="#BBC4C9" d="M3.896,31.617h-1.32V9.831l0,0c0.729,0,1.32,0.591,1.32,1.321V31.617z"/>
	<rect x="1.067" y="29.828" fill="#BBC4C9" width="7.164" height="5.022"/>
	<rect x="1.067" y="29.828" fill="#BBC4C9" width="2.828" height="5.022"/>
	<path fill="#80D0BC" d="M7.112,38.216c0-0.654,0.287-1.241,0.742-1.643c0.891-0.783,1.444-1.879,1.444-3.065v-0.102H0v0.102
		c0,1.187,0.554,2.282,1.444,3.065c0.455,0.401,0.743,0.988,0.743,1.643c0,0.604-0.245,1.151-0.641,1.547
		C0.589,40.719,0,41.983,0,43.334v10.07c0,2.568,2.081,4.65,4.649,4.65l0,0c2.568,0,4.649-2.082,4.649-4.65v-10.07
		c0-1.353-0.59-2.615-1.546-3.571C7.356,39.368,7.112,38.821,7.112,38.216z"/>
	<path fill="#9DDAD2" d="M2.779,53.405V43.335c0-1.353,0.237-2.615,0.622-3.572c0.159-0.396,0.258-0.942,0.258-1.547
		c0-0.654-0.116-1.241-0.299-1.643c-0.358-0.783-0.581-1.879-0.581-3.065v-0.102H0v0.102c0,1.187,0.554,2.282,1.444,3.065
		c0.455,0.401,0.743,0.988,0.743,1.643c0,0.604-0.245,1.151-0.641,1.547C0.589,40.72,0,41.983,0,43.335v10.069
		c0,2.568,2.081,4.65,4.649,4.65l0,0C3.617,58.055,2.779,55.973,2.779,53.405z"/>
	<path fill="#D1DAE3" d="M30.522,37.958V17.319c0-1.834,0.482-3.627,1.33-5.253c0.595-1.139,0.931-2.434,0.931-3.808
		c0-4.65-3.844-8.401-8.527-8.253l2.432,4.636c0.937,1.786,0.248,3.993-1.538,4.93l0,0c-1.786,0.937-3.993,0.248-4.93-1.538
		l-2.403-4.583c-0.878,1.22-1.434,2.683-1.535,4.263c-0.213,3.317,1.534,6.249,4.195,7.747c1.997,1.125,3.265,6.554,3.265,8.845
		v17.29c0,1.835-0.482,3.627-1.331,5.253c-0.594,1.141-0.93,2.436-0.93,3.809c0,4.65,3.844,8.401,8.526,8.254l-2.431-4.637
		c-0.937-1.785-0.248-3.993,1.538-4.93l0,0c1.785-0.937,3.993-0.248,4.93,1.538l2.403,4.583c0.878-1.219,1.433-2.683,1.535-4.262
		c0.213-3.318-1.534-6.249-4.196-7.748C31.79,42.331,30.522,40.249,30.522,37.958z"/>
</g>
</svg>
