<?xml version="1.0" encoding="utf-8"?>
<!-- Generator: Adobe Illustrator 16.0.0, SVG Export Plug-In . SVG Version: 6.00 Build 0)  -->
<!DOCTYPE svg PUBLIC "-//W3C//DTD SVG 1.1//EN" "http://www.w3.org/Graphics/SVG/1.1/DTD/svg11.dtd">
<svg version="1.1" id="Слой_1" xmlns="http://www.w3.org/2000/svg" xmlns:xlink="http://www.w3.org/1999/xlink" x="0px" y="0px"
	 width="92px" height="108.968px" viewBox="0 0 92 108.968" enable-background="new 0 0 92 108.968" xml:space="preserve">
<g>
	<circle fill="#F0DC63" cx="28.875" cy="99.417" r="9.551"/>
	<circle fill="#CCB535" cx="28.875" cy="99.417" r="6.196"/>
	<circle fill="#F0DC63" cx="40.549" cy="99.417" r="9.551"/>
	<circle fill="#CCB535" cx="40.549" cy="99.417" r="6.196"/>
	<path fill="#F0DC63" d="M53.701,60.136H5.193v4.741H4.29c-2.368,0-4.29-1.921-4.29-4.29c0-1.184,0.48-2.258,1.258-3.033
		c0.774-0.776,1.849-1.258,3.032-1.258h44.906C51.47,56.296,53.355,57.958,53.701,60.136"/>
	<path fill="#8DBA54" d="M61.697,58.676H6.652v4.742h44.442c2.521,0,4.562,2.042,4.562,4.562v26.603v1.31
		c0,0.075-0.002,0.146-0.007,0.219h20.553V58.676H61.697"/>
	<path fill="#8DBA54" d="M63.157,57.217H8.111v4.741h44.443c2.52,0,4.562,2.042,4.562,4.563v26.602v1.311
		c0,0.074-0.003,0.146-0.007,0.219h20.552V57.217H63.157"/>
	<path fill="#9ED162" d="M60.238,60.136H5.193v4.741h44.442c2.521,0,4.562,2.042,4.562,4.562v26.604v1.31
		c0,0.073-0.002,0.146-0.007,0.218h20.553V60.136H60.238"/>
	<path fill="#8DBA54" d="M70.165,71.037v15.632c-2.85,1.196-5.128,3.475-6.324,6.324h-9.643V69.438c0-2.521-2.041-4.563-4.562-4.563
		H63.91C65.125,67.65,67.37,69.866,70.165,71.037"/>
	<path fill="#5EA5DD" d="M92,48.468v27.546c0,1.777-1.441,3.219-3.219,3.219H39.513c-1.777,0-3.219-1.441-3.219-3.219V48.468
		c0-1.777,1.441-3.218,3.219-3.218H88.78C90.559,45.25,92,46.69,92,48.468"/>
	<polyline fill="#4E4E4E" points="92,52.48 92,60.79 36.294,60.79 36.294,52.48 92,52.48 	"/>
	<path fill="#5F666F" d="M16.969,0h30.704c2.159,0,3.91,1.75,3.91,3.91v62.523c0,2.161-1.751,3.911-3.91,3.911H16.969
		c-2.16,0-3.91-1.75-3.91-3.911V3.911C13.059,1.751,14.809,0,16.969,0"/>
	<polyline fill="#FFFFFF" points="49.766,9.285 49.766,59.817 14.876,59.817 14.876,9.285 49.766,9.285 	"/>
	<circle fill="#4E4E4E" cx="32.321" cy="65.337" r="3.02"/>
	<circle fill="#F0DC63" cx="52.224" cy="99.417" r="9.551"/>
	<circle fill="#CCB535" cx="52.224" cy="99.417" r="6.196"/>
	<path fill="#CC6E50" d="M4.562,64.876v37.037C2.04,101.913,0,99.87,0,97.35V60.585c0,2.37,1.921,4.291,4.29,4.291H4.562
		L4.562,64.876z"/>
	<path fill="#82DEC5" d="M40.108,43.929c0-0.959-0.777-1.736-1.736-1.736s-1.736,0.777-1.736,1.736s0.777,1.736,1.736,1.736
		S40.108,44.888,40.108,43.929"/>
	<path fill="#8CC4E8" d="M47.594,70.345H43.57v0.001h3.966C47.556,70.346,47.574,70.345,47.594,70.345 M51.583,45.25L51.583,45.25
		v7.23V45.25"/>
	<path fill="#FFFFFF" d="M36.424,37.501h-2.576v0.942l0.332,1.091h1.972L36.424,37.501 M39.786,37.501h-1.749l-0.273,2.034h1.528
		L39.786,37.501 M36.939,33.667h-3.092v2.236h2.791L36.939,33.667 M40.717,33.667h-2.165l-0.301,2.236h1.922L40.717,33.667
		 M32.25,29.947h-0.991l0.646,2.121h0.346V29.947 M37.439,29.947h-3.592v2.121h3.307L37.439,29.947 M41.62,29.947h-2.569
		l-0.284,2.121h2.339L41.62,29.947 M38.372,45.665c-0.959,0-1.736-0.777-1.736-1.736s0.777-1.736,1.736-1.736
		s1.736,0.777,1.736,1.736S39.331,45.665,38.372,45.665 M49.766,9.285H24.962l5.81,19.064h12.916l-3.14,12.783h-2.999h-2.882
		l5.694,18.685h9.404V9.285"/>
	<path fill="#9DE8D7" d="M37.764,39.535l0.273-2.034h1.749l-0.494,2.034H37.764 M33.848,35.903v-2.236h3.092l-0.301,2.236H33.848
		 M38.251,35.903l0.301-2.236h2.165l-0.543,2.236H38.251 M33.848,32.068v-2.121h3.592l-0.286,2.121H33.848 M38.767,32.068
		l0.284-2.121h2.569l-0.515,2.121H38.767 M43.688,28.35H30.771l0.487,1.598h0.991v2.121h-0.346l1.943,6.375v-0.942h2.576
		l-0.272,2.034H34.18l0.487,1.598h2.882h2.999L43.688,28.35"/>
	<g>
		<path fill="#5EA5DD" d="M25.549,41.133h3h9h2.999l3.139-12.784H22.41L25.549,41.133 M32.25,32.068h-3.307l-0.285-2.121h3.592
			V32.068 M33.848,29.947h3.592l-0.286,2.121h-3.306V29.947 M27.331,32.068h-2.338l-0.516-2.121h2.568L27.331,32.068 M25.38,33.667
			h2.166l0.3,2.236h-1.922L25.38,33.667 M29.158,33.667h3.092v2.236h-2.791L29.158,33.667 M33.848,33.667h3.092l-0.301,2.236h-2.791
			V33.667 M38.552,33.667h2.165l-0.543,2.236h-1.923L38.552,33.667 M38.767,32.068l0.284-2.121h2.569l-0.515,2.121H38.767
			 M26.806,39.535l-0.494-2.034h1.749l0.273,2.034H26.806 M29.673,37.501h2.577v2.034h-2.304L29.673,37.501 M33.848,39.535v-2.034
			h2.576l-0.272,2.034H33.848 M37.764,39.535l0.273-2.034h1.749l-0.494,2.034H37.764"/>
		<polygon fill="#5EA5DD" points="22.41,28.35 24.056,28.35 22.926,23.749 18.011,23.749 18.011,25.347 21.673,25.347 		"/>
		<circle fill="#5EA5DD" cx="29.689" cy="43.929" r="1.736"/>
		<path fill="#5EA5DD" d="M38.372,42.192c-0.959,0-1.736,0.777-1.736,1.736c0,0.959,0.777,1.736,1.736,1.736
			s1.736-0.777,1.736-1.736C40.108,42.969,39.331,42.192,38.372,42.192"/>
	</g>
	<path fill="#E17841" d="M54.198,69.439v27.91c0,0.077-0.003,0.148-0.008,0.22c-0.111,2.42-2.109,4.344-4.556,4.344H4.562
		C2.04,101.913,0,99.87,0,97.35V60.585c0,2.37,1.921,4.291,4.29,4.291h45.345C52.155,64.876,54.198,66.919,54.198,69.439z"/>
	<rect x="54.275" y="79.157" fill="#8DBA54" width="20.468" height="2.477"/>
	<circle fill="#F0DC63" cx="45.432" cy="83.395" r="3.714"/>
	<path fill="#CC6E50" d="M4.562,64.876v37.037C2.04,101.913,0,99.87,0,97.35V60.585c0,2.37,1.921,4.291,4.29,4.291H4.562
		L4.562,64.876z"/>
</g>
</svg>
