<?xml version="1.0" encoding="utf-8"?>
<!-- Generator: Adobe Illustrator 16.0.0, SVG Export Plug-In . SVG Version: 6.00 Build 0)  -->
<!DOCTYPE svg PUBLIC "-//W3C//DTD SVG 1.1//EN" "http://www.w3.org/Graphics/SVG/1.1/DTD/svg11.dtd">
<svg version="1.1" id="Слой_1" xmlns="http://www.w3.org/2000/svg" xmlns:xlink="http://www.w3.org/1999/xlink" x="0px" y="0px"
	 width="16px" height="28.93px" viewBox="0 0 16 28.93" enable-background="new 0 0 16 28.93" xml:space="preserve">
<g>
	<g>
		<path fill="#E0E0E0" d="M0.236,25.151V0.236h15.527v24.916c0,0-1.305,3.543-7.764,3.543C1.542,28.694,0.236,25.151,0.236,25.151z"
			/>
		<path fill="#5F666F" d="M8,28.93c-6.548,0-7.93-3.546-7.985-3.696L0,25.193V0h16v25.193l-0.015,0.04
			C15.93,25.384,14.548,28.93,8,28.93z M0.473,25.104C0.631,25.461,2.145,28.458,8,28.458c5.878,0,7.37-2.994,7.527-3.354V0.472
			H0.473V25.104z"/>
	</g>
	<g>
		<rect x="0.236" y="0.236" fill="#F1F1F1" width="15.527" height="24.841"/>
		<path fill="#5F666F" d="M16,25.313H0V0h16V25.313z M0.473,24.841h15.055V0.472H0.473V24.841z"/>
	</g>
	<g>
		<path fill="#5F666F" d="M15.882,3.739H0.118V0.118h15.764V3.739z M0.354,3.503h15.291V0.354H0.354V3.503z"/>
	</g>
	<g>
		<rect x="2.841" y="2.204" fill="#E0E0E0" width="10.318" height="1.417"/>
		<path fill="#5F666F" d="M13.277,3.739H2.723V2.086h10.555V3.739z M2.959,3.503h10.082V2.322H2.959V3.503z"/>
	</g>
	<g>
		<g>
			<path fill="#E17841" d="M7.113,11.294c0.021,0.178-0.156,0.303-0.313,0.209c-0.573-0.334-0.854-0.949-1.23-1.48
				C4.966,10.982,4.508,11.91,4.508,12.9c0,2.012,1.428,3.544,3.44,3.544c2.012,0,3.544-1.532,3.544-3.544
				c0-2.523-2.638-2.961-2.605-6.152C7.823,7.5,6.822,9.178,7.113,11.294z"/>
		</g>
		<g>
			<path fill="#AB4A1B" d="M7.948,16.653c-2.117,0-3.649-1.574-3.649-3.753c0-1.095,0.532-2.085,1.095-2.992
				c0.042-0.063,0.104-0.094,0.167-0.094c0.073,0,0.136,0.031,0.177,0.083c0.094,0.125,0.178,0.261,0.261,0.396
				c0.261,0.406,0.511,0.792,0.907,1.021l0,0c-0.302-2.158,0.72-3.941,1.856-4.744C8.824,6.53,8.907,6.52,8.98,6.561
				c0.072,0.032,0.114,0.105,0.114,0.188c-0.021,1.616,0.688,2.502,1.366,3.347c0.614,0.761,1.24,1.543,1.24,2.805
				C11.701,15.038,10.085,16.653,7.948,16.653z M5.581,10.408C5.112,11.18,4.716,12.014,4.716,12.9c0,1.929,1.355,3.336,3.232,3.336
				c1.897,0,3.336-1.438,3.336-3.336c0-1.115-0.532-1.772-1.146-2.544C9.501,9.564,8.792,8.678,8.688,7.176
				C7.791,7.989,7.072,9.48,7.322,11.264l0,0c0.021,0.167-0.053,0.322-0.188,0.405c-0.136,0.084-0.303,0.084-0.438,0
				c-0.479-0.281-0.762-0.729-1.043-1.157C5.623,10.481,5.602,10.45,5.581,10.408z"/>
		</g>
	</g>
	<g>
		<rect x="4.953" y="21.412" fill="#E0E0E0" width="6.094" height="1.171"/>
		<path fill="#5F666F" d="M11.165,22.701h-6.33v-1.407h6.33V22.701z M5.071,22.465h5.857V21.53H5.071V22.465z"/>
	</g>
	<g>
		<rect x="1.994" y="27.022" fill="#5F666F" width="11.976" height="0.236"/>
	</g>
</g>
</svg>
