<?xml version="1.0" encoding="utf-8"?>
<!-- Generator: Adobe Illustrator 16.0.0, SVG Export Plug-In . SVG Version: 6.00 Build 0)  -->
<!DOCTYPE svg PUBLIC "-//W3C//DTD SVG 1.1//EN" "http://www.w3.org/Graphics/SVG/1.1/DTD/svg11.dtd">
<svg version="1.1" id="Слой_1" xmlns="http://www.w3.org/2000/svg" xmlns:xlink="http://www.w3.org/1999/xlink" x="0px" y="0px"
	 width="140px" height="89.789px" viewBox="0 0 140 89.789" enable-background="new 0 0 140 89.789" xml:space="preserve">
<g>
	<path fill="#5F666F" d="M131.122,7.718v67.186H8.877V7.718C8.877,3.456,12.329,0,16.594,0h106.812
		C127.666,0,131.122,3.456,131.122,7.718"/>
	<polyline fill="#FFFFFF" points="17.33,66.448 17.33,8.454 122.667,8.454 122.667,66.448 17.33,66.448 	"/>
	<path fill="#5EA5DD" d="M98.775,19.47l-2.496,2.758l10.624,9.612H71.92l10.623-9.612l-2.496-2.758L65.023,33.063L71.952,61.6h6.983
		h20.952h6.983l6.929-28.536L98.775,19.47 M87.551,40.497h-7.697L79.19,35.56h8.361L87.551,40.497 M91.271,35.56h8.36l-0.663,4.938
		h-7.697V35.56 M76.101,40.497h-5.444l-1.199-4.938h5.98L76.101,40.497 M71.56,44.217h5.04l0.7,5.208h-4.476L71.56,44.217
		 M80.354,44.217h7.197v5.208h-6.498L80.354,44.217 M91.271,44.217h7.197l-0.699,5.208h-6.498V44.217 M102.223,44.217h5.041
		l-1.265,5.208h-4.477L102.223,44.217 M102.722,40.497l0.664-4.938h5.979l-1.199,4.938H102.722 M74.877,57.88l-1.15-4.734h4.072
		l0.637,4.734H74.877 M81.553,53.146h5.998v4.734h-5.362L81.553,53.146 M91.271,57.88v-4.734h5.998l-0.636,4.734H91.271
		 M100.387,57.88l0.637-4.734h4.072l-1.149,4.734H100.387"/>
	<rect x="23.459" y="15.776" fill="#CACACA" width="36.186" height="8.116"/>
	<rect x="23.459" y="27.612" fill="#E4E4E4" width="36.186" height="33.373"/>
	<path fill="#A6A6A6" d="M123.405,0H57.317l2.577,8.454h62.772v57.994H77.568l2.39,7.841h51.164V7.718
		C131.122,3.456,127.666,0,123.405,0"/>
	<path fill="#FFFFFF" d="M77.799,53.146h-4.072l0.837,3.441l0.394,1.293h3.479L77.799,53.146 M87.551,53.146h-5.998l0.636,4.734
		h5.362V53.146 M97.27,53.146h-5.998v4.734h5.362L97.27,53.146 M105.096,53.146h-4.072l-0.637,4.734h3.56L105.096,53.146
		 M76.6,44.217h-5.04l1.265,5.208H77.3L76.6,44.217 M87.551,44.217h-7.197l0.699,5.208h6.499L87.551,44.217 M98.469,44.217h-7.197
		v5.208h6.498L98.469,44.217 M107.264,44.217h-5.041l-0.699,5.208h4.476L107.264,44.217 M75.438,35.56h-5.98l1.199,4.938h5.444
		L75.438,35.56 M87.551,35.56h-8.36l0.663,4.938h7.697V35.56 M99.632,35.56h-8.36v4.938h7.697L99.632,35.56 M109.365,35.56h-5.979
		l-0.663,4.938h5.444L109.365,35.56 M122.667,8.454H59.895l6.987,22.928L80.047,19.47l2.496,2.758L71.92,31.84h34.982l-10.623-9.612
		l2.496-2.758l15.023,13.594L106.871,61.6h-6.984H78.935H76.09l1.479,4.849h45.099V8.454"/>
	<path fill="#8CC4E8" d="M82.188,57.88l-0.636-4.734h5.998v4.734H82.188 M91.271,57.88v-4.734h5.998l-0.636,4.734H91.271
		 M100.387,57.88l0.637-4.734h4.072l-1.149,4.734H100.387 M72.824,49.425l-1.265-5.208h5.04l0.7,5.208H72.824 M81.053,49.425
		l-0.699-5.208h7.197v5.208H81.053 M91.271,49.425v-5.208h7.197l-0.699,5.208H91.271 M101.522,49.425l0.7-5.208h5.041l-1.265,5.208
		H101.522 M70.656,40.497l-1.199-4.938h5.98l0.663,4.938H70.656 M79.854,40.497L79.19,35.56h8.361v4.938H79.854 M91.271,40.497
		V35.56h8.36l-0.663,4.938H91.271 M102.722,40.497l0.664-4.938h5.979l-1.199,4.938H102.722 M98.775,19.47l-2.496,2.758l10.624,9.612
		H71.92l10.623-9.612l-2.496-2.758L66.882,31.382l7.682,25.206l-0.836-3.442H77.8l0.636,4.734h-3.479l1.134,3.721h2.845h20.952
		h6.983l6.93-28.537L98.775,19.47"/>
	<path fill="#E17841" d="M140,74.289c0,5.323-4.315,9.638-9.639,9.638H9.638c-2.661,0-5.069-1.078-6.814-2.823
		C1.078,79.362,0,76.95,0,74.289H140"/>
	<rect x="12.342" y="54.729" fill="#F0DC63" width="28.364" height="33.593"/>
	<rect x="33.267" y="54.729" fill="#D5BD38" width="7.439" height="33.479"/>
	<rect x="12.342" y="54.729" fill="#D5BD38" width="3.72" height="33.479"/>
	<rect x="24.264" y="83.926" fill="#F0DC63" width="28.364" height="5.863"/>
	<rect x="45.188" y="83.926" fill="#D5BD38" width="7.44" height="5.844"/>
	<rect x="24.264" y="83.926" fill="#D5BD38" width="3.72" height="5.844"/>
	<path fill="#E7A388" d="M140,74.289h-8.878H79.958h-9.367l2.939,9.638h56.831C135.685,83.927,140,79.612,140,74.289"/>
</g>
</svg>
