<?xml version="1.0" encoding="utf-8"?>
<!-- Generator: Adobe Illustrator 16.0.0, SVG Export Plug-In . SVG Version: 6.00 Build 0)  -->
<!DOCTYPE svg PUBLIC "-//W3C//DTD SVG 1.1//EN" "http://www.w3.org/Graphics/SVG/1.1/DTD/svg11.dtd">
<svg version="1.1" id="Слой_1" xmlns="http://www.w3.org/2000/svg" xmlns:xlink="http://www.w3.org/1999/xlink" x="0px" y="0px"
	 width="90.999px" height="81.759px" viewBox="0 0 90.999 81.759" enable-background="new 0 0 90.999 81.759" xml:space="preserve">
<g>
	<path fill="#5EA5DD" d="M82.223,41.092C80.341,22.045,61.965,3.887,41.179,0.452C20.395-3.165,2.016,15.308,0.133,41.896
		C-1.75,68.51,16.61,85.192,41.178,81.16C65.746,77.263,84.106,60.166,82.223,41.092z M37.648,28.81h5.176
		c-1.281,3.704-2.634,7.408-4.053,11.113c-0.077-0.212-0.153-0.423-0.229-0.638c-0.63-1.766-1.275-3.612-1.917-5.484l-0.328-0.959
		C36.76,31.48,37.213,30.131,37.648,28.81z M32.285,55.37h-4.636c-1.917-4.141-3.765-8.471-5.542-12.993
		c-1.776-4.521-3.432-9.043-4.967-13.566h5.329c0.614,1.789,1.243,3.615,1.883,5.481c0.642,1.866,1.28,3.698,1.922,5.499
		c0.641,1.801,1.281,3.545,1.921,5.231c0.641,1.687,1.268,3.233,1.884,4.638c0.588-1.404,1.204-2.945,1.845-4.617
		c0.075-0.2,0.152-0.412,0.23-0.615c0.79,1.975,1.595,3.923,2.416,5.832C33.819,51.989,33.061,53.7,32.285,55.37z M38.496,55.37
		c-1.917-4.141-3.765-8.471-5.541-12.993c-1.777-4.521-3.432-9.044-4.967-13.567h5.331c0.612,1.79,1.239,3.615,1.882,5.481
		c0.639,1.865,1.279,3.698,1.922,5.499c0.64,1.801,1.279,3.545,1.921,5.231c0.64,1.687,1.267,3.233,1.881,4.638
		c0.59-1.404,1.206-2.945,1.846-4.619c0.64-1.673,1.286-3.416,1.94-5.23c0.385-1.068,0.767-2.147,1.146-3.231
		c0.108,0.866,0.322,1.659,0.66,2.354c0.479,0.988,1.123,1.854,1.917,2.569c0.141,0.126,0.287,0.244,0.436,0.363
		c-0.067,0.17-0.131,0.342-0.198,0.511c-1.769,4.522-3.617,8.853-5.539,12.993H38.496z M62.665,53.395
		c-1.698,1.315-4.184,1.975-7.453,1.975c-1.101,0-2.103-0.071-3.01-0.211c-0.907-0.141-1.711-0.312-2.415-0.519
		c-0.702-0.203-1.309-0.414-1.821-0.63c-0.51-0.217-0.916-0.416-1.224-0.596l1.417-3.948c0.689,0.384,1.622,0.769,2.798,1.149
		c1.175,0.384,2.594,0.578,4.255,0.578c1.737,0,3.003-0.295,3.794-0.883s1.188-1.418,1.188-2.49c0-0.639-0.136-1.189-0.402-1.65
		c-0.271-0.458-0.651-0.873-1.149-1.244c-0.499-0.37-1.105-0.717-1.821-1.035s-1.533-0.632-2.454-0.939
		c-0.919-0.332-1.805-0.694-2.663-1.093c-0.856-0.395-1.608-0.886-2.26-1.474c-0.651-0.588-1.176-1.29-1.571-2.107
		c-0.396-0.818-0.596-1.802-0.596-2.952c0-2.402,0.832-4.286,2.492-5.653c1.66-1.367,3.924-2.052,6.783-2.052
		c1.662,0,3.138,0.188,4.428,0.558c1.288,0.37,2.307,0.772,3.045,1.207l-1.492,3.908c-0.869-0.484-1.823-0.855-2.856-1.11
		c-1.034-0.256-2.104-0.383-3.201-0.383c-1.302,0-2.318,0.268-3.045,0.805c-0.73,0.535-1.094,1.29-1.094,2.261
		c0,0.586,0.12,1.092,0.363,1.515c0.244,0.42,0.588,0.798,1.035,1.128c0.446,0.333,0.97,0.641,1.572,0.92
		c0.599,0.283,1.257,0.552,1.974,0.806c1.252,0.461,2.37,0.926,3.353,1.398c0.985,0.472,1.815,1.034,2.492,1.685
		c0.678,0.652,1.193,1.419,1.552,2.302c0.358,0.881,0.536,1.947,0.536,3.199C65.214,50.221,64.365,52.079,62.665,53.395z"/>
	<path fill="#83D293" d="M90.974,41.844C90.176,24.277,71.793,6.051,49.932,1.045c-3.513-0.861-6.934-1.104-10.209-0.799
		c0.485,0.061,0.97,0.121,1.456,0.206c20.786,3.435,39.162,21.593,41.044,40.64c1.884,19.073-16.477,36.171-41.045,40.067
		c-0.952,0.156-1.892,0.271-2.824,0.366c3.658,0.232,7.536-0.095,11.574-1.053C73.468,75.151,91.783,59.458,90.974,41.844z"/>
</g>
</svg>
