<?xml version="1.0" encoding="utf-8"?>
<!-- Generator: Adobe Illustrator 16.0.0, SVG Export Plug-In . SVG Version: 6.00 Build 0)  -->
<!DOCTYPE svg PUBLIC "-//W3C//DTD SVG 1.1//EN" "http://www.w3.org/Graphics/SVG/1.1/DTD/svg11.dtd">
<svg version="1.1" id="Слой_1" xmlns="http://www.w3.org/2000/svg" xmlns:xlink="http://www.w3.org/1999/xlink" x="0px" y="0px"
	 width="21px" height="29.347px" viewBox="0 0 21 29.347" enable-background="new 0 0 21 29.347" xml:space="preserve">
<g>
	<g>
		<path fill="#E0E0E0" d="M19.49,6.789v20.66c0,0-4.38,1.605-9.197,1.605c-4.818,0-10.002-1.605-10.002-1.605V0.292H19.49v3.505"/>
		<path fill="#5F666F" d="M10.293,29.347c-4.807,0-10.035-1.603-10.088-1.619L0,27.664V0h19.783v3.797h-0.584V0.584H0.584V27.23
			c1.006,0.292,5.526,1.532,9.709,1.532c4.146,0,8.015-1.221,8.906-1.522V6.789h0.584v20.863l-0.191,0.07
			C19.547,27.739,15.107,29.347,10.293,29.347z"/>
	</g>
	<g>
		<path fill="#F1F1F1" d="M21,3.76h-8.644c-0.847-0.912-1.702-1.496-2.466-1.496c-2.771,0-6.769,7.693-7.125,10.916
			c-0.017,0.066-0.028,0.133-0.028,0.205v0.226v6.382v5.022c0,0.457,0.37,0.827,0.827,0.827h12.653c0.457,0,0.827-0.37,0.827-0.827
			v-5.022V13.61v-0.226c0-0.071-0.012-0.138-0.028-0.205c-0.167-1.515-1.14-4.017-2.411-6.245H21"/>
		<path fill="#5F666F" d="M16.218,25.988H3.564c-0.537,0-0.974-0.437-0.974-0.974v-11.63c0-0.076,0.011-0.152,0.033-0.241
			C2.984,9.871,7.006,2.117,9.891,2.117c0.745,0,1.596,0.503,2.529,1.497H21v0.292h-8.707l-0.044-0.047
			c-0.881-0.948-1.696-1.45-2.358-1.45c-2.698,0-6.634,7.657-6.98,10.787c-0.02,0.084-0.027,0.138-0.027,0.188v11.63
			c0,0.376,0.307,0.682,0.682,0.682h12.653c0.376,0,0.682-0.306,0.682-0.682v-11.63c0-0.051-0.008-0.104-0.024-0.168
			c-0.167-1.501-1.129-3.987-2.396-6.208l-0.124-0.219H21v0.292h-6.145c1.225,2.195,2.145,4.615,2.307,6.083
			c0.019,0.068,0.029,0.144,0.029,0.22v11.63C17.191,25.552,16.754,25.988,16.218,25.988z"/>
	</g>
	<g>
		<path fill="#5F666F" d="M14.32,12.727h-0.292c0-2.308-1.856-4.186-4.138-4.186c-2.28,0-4.137,1.877-4.137,4.186H5.462
			c0-2.469,1.987-4.478,4.429-4.478C12.333,8.25,14.32,10.258,14.32,12.727z"/>
	</g>
	<g>
		<g>
			<path fill="#E17841" d="M8.729,18.328c0.019,0.158-0.14,0.27-0.28,0.187c-0.513-0.299-0.765-0.85-1.101-1.325
				c-0.541,0.858-0.951,1.689-0.951,2.575c0,1.801,1.277,3.173,3.079,3.173c1.801,0,3.172-1.372,3.172-3.173
				c0-2.259-2.36-2.649-2.332-5.506C9.364,14.931,8.469,16.434,8.729,18.328z"/>
		</g>
		<g>
			<path fill="#AB4A1B" d="M9.477,23.124c-1.895,0-3.267-1.409-3.267-3.359c0-0.979,0.477-1.866,0.98-2.678
				c0.037-0.056,0.093-0.084,0.148-0.084c0.065,0,0.122,0.028,0.159,0.074c0.084,0.112,0.158,0.233,0.232,0.354
				c0.234,0.364,0.458,0.709,0.813,0.915l0,0c-0.271-1.932,0.645-3.527,1.661-4.246c0.056-0.038,0.13-0.046,0.196-0.01
				c0.065,0.028,0.102,0.094,0.102,0.168c-0.018,1.447,0.616,2.239,1.223,2.996c0.551,0.682,1.111,1.381,1.111,2.51
				C12.836,21.678,11.389,23.124,9.477,23.124z M7.357,17.535c-0.42,0.689-0.774,1.437-0.774,2.229c0,1.726,1.214,2.986,2.894,2.986
				c1.698,0,2.986-1.288,2.986-2.986c0-0.999-0.477-1.586-1.027-2.276c-0.569-0.709-1.203-1.502-1.297-2.847
				C9.336,15.37,8.692,16.704,8.916,18.3l0,0c0.019,0.149-0.047,0.289-0.168,0.363c-0.121,0.075-0.271,0.075-0.392,0
				c-0.429-0.251-0.682-0.653-0.933-1.036C7.396,17.6,7.376,17.572,7.357,17.535z"/>
		</g>
	</g>
</g>
</svg>
