<?xml version="1.0" encoding="utf-8"?>
<!-- Generator: Adobe Illustrator 16.0.0, SVG Export Plug-In . SVG Version: 6.00 Build 0)  -->
<!DOCTYPE svg PUBLIC "-//W3C//DTD SVG 1.1//EN" "http://www.w3.org/Graphics/SVG/1.1/DTD/svg11.dtd">
<svg version="1.1" id="Слой_1" xmlns="http://www.w3.org/2000/svg" xmlns:xlink="http://www.w3.org/1999/xlink" x="0px" y="0px"
	 width="44px" height="44px" viewBox="0 0 44 44" enable-background="new 0 0 44 44" xml:space="preserve">
<g>
	<path fill="#5F666F" d="M43.314,16.533C40.884,7.027,32.263,0,22,0C9.85,0,0,9.85,0,22c0,10.263,7.027,18.884,16.532,21.315
		C18.28,43.761,20.112,44,22,44c12.15,0,22-9.85,22-22C44,20.112,43.762,18.281,43.314,16.533z"/>
	<rect x="35.392" y="12.435" fill="#9DDAD2" width="3.826" height="1.913"/>
	<polygon fill="#80D0BC" points="37.305,16.261 33.479,16.261 35.392,10.522 37.305,10.522 	"/>
	<rect x="33.479" y="29.652" fill="#9DDAD2" width="3.826" height="1.914"/>
	<polygon fill="#DFF3F1" points="21.044,10.522 15.188,22 21.044,33.478 35.392,33.478 35.392,10.522 	"/>
	<rect x="6.695" y="10.522" fill="#FFFFFF" width="14.349" height="22.956"/>
	<g>
		<rect x="8.608" y="12.435" fill="#DFF3F1" width="1.913" height="19.131"/>
		<rect x="12.435" y="12.435" fill="#DFF3F1" width="1.913" height="19.131"/>
		<rect x="16.261" y="12.435" fill="#DFF3F1" width="1.913" height="19.131"/>
	</g>
	<g>
		<rect x="31.565" y="12.435" fill="#C1E8E3" width="1.913" height="19.131"/>
		<rect x="27.739" y="12.435" fill="#C1E8E3" width="1.913" height="19.131"/>
		<rect x="23.913" y="12.435" fill="#C1E8E3" width="1.913" height="19.131"/>
		<rect x="20.087" y="12.435" fill="#C1E8E3" width="1.913" height="19.131"/>
	</g>
</g>
</svg>
