<?xml version="1.0" encoding="utf-8"?>
<!-- Generator: Adobe Illustrator 16.0.0, SVG Export Plug-In . SVG Version: 6.00 Build 0)  -->
<!DOCTYPE svg PUBLIC "-//W3C//DTD SVG 1.1//EN" "http://www.w3.org/Graphics/SVG/1.1/DTD/svg11.dtd">
<svg version="1.1" id="Слой_1" xmlns="http://www.w3.org/2000/svg" xmlns:xlink="http://www.w3.org/1999/xlink" x="0px" y="0px"
	 width="44px" height="44px" viewBox="0 0 44 44" enable-background="new 0 0 44 44" xml:space="preserve">
<g>
	<g>
		<path fill="#5F666F" d="M43.314,16.532C40.884,7.027,32.263,0,22,0C9.85,0,0,9.85,0,22c0,10.263,7.027,18.884,16.532,21.314
			C18.28,43.762,20.112,44,22,44c12.15,0,22-9.85,22-22C44,20.113,43.762,18.28,43.314,16.532z"/>
	</g>
	<path fill="#80D0BC" d="M17.817,35.594c-6.458,0-11.712-5.254-11.712-11.711c0-6.458,5.254-11.712,11.712-11.712h8.365
		c6.457,0,11.712,5.253,11.712,11.712c0,6.457-5.255,11.711-11.712,11.711H17.817z"/>
	<path fill="#62AC91" d="M37.808,22.46h-17.48v13.134h5.855c6.457,0,11.712-5.254,11.712-11.711
		C37.895,23.4,37.864,22.926,37.808,22.46z"/>
	<path fill="#70C6A6" d="M6.192,22.46c-0.057,0.466-0.087,0.94-0.087,1.423c0,6.457,5.254,11.711,11.712,11.711H22V22.46H6.192z"/>
	<path fill="#9DDAD2" d="M26.183,12.171H22l-1.673,6.692l14.818-2.51C32.996,13.798,29.775,12.171,26.183,12.171z"/>
	<path fill="#DFF3F1" d="M17.817,12.171c-3.593,0-6.813,1.627-8.963,4.182L22,18.863v-6.692H17.817z"/>
	<path fill="#70C6A6" d="M35.146,16.353H22l-1.673,4.476L22,25.305c1.57,0,2.844-1.273,2.844-2.845c0,1.571,1.273,2.845,2.845,2.845
		c1.57,0,2.844-1.273,2.844-2.845c0,1.571,1.273,2.845,2.845,2.845c1.57,0,2.844-1.273,2.844-2.845h1.587
		C37.526,20.152,36.571,18.048,35.146,16.353z"/>
	<path fill="#9DDAD2" d="M8.854,16.353c-1.427,1.695-2.382,3.799-2.662,6.107h1.587c0,1.571,1.273,2.845,2.844,2.845
		c1.571,0,2.845-1.273,2.845-2.845c0,1.571,1.272,2.845,2.844,2.845c1.57,0,2.845-1.273,2.845-2.845
		c0,1.571,1.273,2.845,2.844,2.845v-8.952H8.854z"/>
	<polygon fill="#656F6D" points="16.98,11.335 16.98,12.171 18.654,12.171 18.654,11.335 17.817,9.661 	"/>
	<path fill="#FFFFFF" d="M26.183,11.335H22h-4.183c-6.93,0-12.548,5.617-12.548,12.548c0,6.929,5.618,12.547,12.548,12.547H22h4.183
		c6.93,0,12.548-5.618,12.548-12.547C38.73,16.952,33.112,11.335,26.183,11.335z M33.28,30.98c-1.896,1.896-4.417,2.939-7.098,2.939
		H22l-0.001,0.001h-4.182V33.92c-2.681,0-5.202-1.043-7.098-2.939c-1.896-1.896-2.94-4.418-2.94-7.098
		c0-2.682,1.044-5.203,2.94-7.099c1.896-1.896,4.417-2.94,7.098-2.94H22h4.183c2.681,0,5.202,1.044,7.098,2.94
		c1.896,1.896,2.94,4.417,2.94,7.099C36.221,26.564,35.177,29.085,33.28,30.98z"/>
	<polygon fill="#54947D" points="22.836,18.026 21.163,18.026 21.163,16.353 22,15.517 22.836,16.353 	"/>
	<rect x="22" y="13.007" fill="#7D9990" width="4.183" height="1.673"/>
	<path fill="#5F8274" d="M24.092,7.57c-1.615,0-2.929,1.314-2.929,2.928h1.673c0-0.692,0.563-1.255,1.256-1.255
		c0.691,0,1.254,0.563,1.254,1.255v5.855h1.674v-5.856C27.02,8.884,25.706,7.57,24.092,7.57z"/>
	<path fill="#7D9990" d="M22.836,16.353h-1.673v-5.855c0-0.692-0.563-1.255-1.255-1.255c-0.691,0-1.254,0.563-1.254,1.255v0.837
		H16.98v-0.837c0-1.614,1.313-2.928,2.928-2.928c1.615,0,2.929,1.314,2.929,2.928L22.836,16.353L22.836,16.353z"/>
</g>
</svg>
