<?xml version="1.0" encoding="utf-8"?>
<!-- Generator: Adobe Illustrator 16.0.0, SVG Export Plug-In . SVG Version: 6.00 Build 0)  -->
<!DOCTYPE svg PUBLIC "-//W3C//DTD SVG 1.1//EN" "http://www.w3.org/Graphics/SVG/1.1/DTD/svg11.dtd">
<svg version="1.1" id="Слой_1" xmlns="http://www.w3.org/2000/svg" xmlns:xlink="http://www.w3.org/1999/xlink" x="0px" y="0px"
	 width="68px" height="38.69px" viewBox="0 0 68 38.69" enable-background="new 0 0 68 38.69" xml:space="preserve">
<g>
	<path fill="#5F666F" d="M55.103,24.621H43.379v3.517H4.689c-0.647,0-1.173,0.525-1.173,1.174v2.344
		c0,0.648,0.525,1.173,1.173,1.173h50.413V24.621L55.103,24.621z"/>
	<path fill="#F4F6F9" d="M44.551,0H1.172C0.524,0,0,0.525,0,1.172v25.793c0,0.647,0.524,1.173,1.172,1.173h43.379
		c0.648,0,1.173-0.525,1.173-1.173V1.172C45.724,0.525,45.198,0,44.551,0z"/>
	<g>
		<path fill="#C7C7CB" d="M42.206,25.793H3.517c-0.647,0-1.172-0.525-1.172-1.173l0,0c0-0.647,0.524-1.173,1.172-1.173h38.689
			c0.647,0,1.173,0.525,1.173,1.173l0,0C43.379,25.268,42.854,25.793,42.206,25.793z"/>
		<path fill="#C7C7CB" d="M42.206,4.689H3.517c-0.647,0-1.172-0.525-1.172-1.172l0,0c0-0.647,0.524-1.172,1.172-1.172h38.689
			c0.647,0,1.173,0.524,1.173,1.172l0,0C43.379,4.165,42.854,4.689,42.206,4.689z"/>
	</g>
	<path fill="#80D0BC" d="M59.354,5.862H49.241c-0.647,0-1.173,0.525-1.173,1.173v17.586c0,0.647,0.525,1.173,1.173,1.173h5.275
		v5.861h12.311V23.28c0-1.438-0.265-2.865-0.781-4.208L61.543,7.365C61.195,6.459,60.324,5.862,59.354,5.862z"/>
	<rect x="54.517" y="25.793" fill="#9DDAD2" width="12.311" height="5.861"/>
	<circle fill="#EBEBEC" cx="13.482" cy="32.241" r="5.374"/>
	<path fill="#4F5255" d="M13.482,38.69c-3.556,0-6.448-2.893-6.448-6.449c0-3.555,2.893-6.447,6.448-6.447s6.448,2.893,6.448,6.447
		C19.931,35.797,17.038,38.69,13.482,38.69z M13.482,28.137c-2.264,0-4.104,1.841-4.104,4.104c0,2.264,1.84,4.104,4.104,4.104
		c2.263,0,4.104-1.841,4.104-4.104C17.586,29.978,15.745,28.137,13.482,28.137z"/>
	<circle fill="#DAD9DC" cx="13.482" cy="32.242" r="2.345"/>
	<circle fill="#EBEBEC" cx="54.517" cy="32.241" r="5.374"/>
	<path fill="#4F5255" d="M54.517,38.69c-3.556,0-6.448-2.893-6.448-6.449c0-3.555,2.893-6.447,6.448-6.447s6.448,2.893,6.448,6.447
		C60.965,35.797,58.072,38.69,54.517,38.69z M54.517,28.137c-2.263,0-4.104,1.841-4.104,4.104c0,2.264,1.841,4.104,4.104,4.104
		s4.104-1.841,4.104-4.104C58.62,29.978,56.779,28.137,54.517,28.137z"/>
	<circle fill="#DAD9DC" cx="54.517" cy="32.242" r="2.345"/>
	<path fill="#5F666F" d="M65.654,32.828h1.173c0.647,0,1.173-0.525,1.173-1.173V29.31c0-0.647-0.525-1.173-1.173-1.173h-1.173
		c-0.647,0-1.172,0.525-1.172,1.173v2.345C64.482,32.303,65.007,32.828,65.654,32.828z"/>
	<path fill="#EBEBEC" d="M65.654,23.448h1.173v3.518h-1.173c-0.647,0-1.172-0.525-1.172-1.172v-1.173
		C64.482,23.973,65.007,23.448,65.654,23.448z"/>
	<path fill="#5F666F" d="M59,8.207h-7.414c-0.647,0-1.173,0.525-1.173,1.172v5.862c0,0.647,0.525,1.173,1.173,1.173h10.948
		c0.595,0,1.004-0.597,0.79-1.151L61.189,9.71C60.841,8.804,59.971,8.207,59,8.207z"/>
</g>
</svg>
