<?xml version="1.0" encoding="utf-8"?>
<!-- Generator: Adobe Illustrator 16.0.0, SVG Export Plug-In . SVG Version: 6.00 Build 0)  -->
<!DOCTYPE svg PUBLIC "-//W3C//DTD SVG 1.1//EN" "http://www.w3.org/Graphics/SVG/1.1/DTD/svg11.dtd">
<svg version="1.1" id="Слой_1" xmlns="http://www.w3.org/2000/svg" xmlns:xlink="http://www.w3.org/1999/xlink" x="0px" y="0px"
	 width="52px" height="37.917px" viewBox="0 0 52 37.917" enable-background="new 0 0 52 37.917" xml:space="preserve">
<g>
	<rect y="28.167" fill="#9DDAD2" width="52" height="8.666"/>
	<rect fill="#80D0BC" width="52" height="28.166"/>
	<path fill="#9DDAD2" d="M48.751,21.666V6.5c-1.795,0-3.251-1.456-3.251-3.25H6.494C6.499,3.317,6.5,3.385,6.5,3.454
		c0,1.794-1.453,3.25-3.25,3.25V21.87c1.729,0,3.139,1.348,3.244,3.046H45.5C45.5,23.122,46.956,21.666,48.751,21.666z"/>
	<g>
		<path fill="#80D0BC" d="M1.084,31.416h49.834c0.599,0,1.082-0.483,1.082-1.082s-0.483-1.083-1.082-1.083H1.084
			c-0.598,0-1.082,0.484-1.082,1.083S0.486,31.416,1.084,31.416z"/>
		<path fill="#80D0BC" d="M50.918,32.5H1.084c-0.598,0-1.082,0.484-1.082,1.083s0.484,1.082,1.082,1.082h49.834
			c0.599,0,1.082-0.483,1.082-1.082S51.517,32.5,50.918,32.5z"/>
		<path fill="#80D0BC" d="M50.918,35.751H1.084c-0.598,0-1.082,0.483-1.082,1.082s0.484,1.082,1.082,1.082h49.834
			c0.599,0,1.082-0.483,1.082-1.082S51.517,35.751,50.918,35.751z"/>
	</g>
	<rect x="17.334" fill="#F4F6F9" width="17.334" height="28.166"/>
	<rect x="17.334" y="28.167" fill="#E5E7EB" width="17.334" height="9.75"/>
</g>
</svg>
