<?xml version="1.0" encoding="utf-8"?>
<!-- Generator: Adobe Illustrator 16.0.0, SVG Export Plug-In . SVG Version: 6.00 Build 0)  -->
<!DOCTYPE svg PUBLIC "-//W3C//DTD SVG 1.1//EN" "http://www.w3.org/Graphics/SVG/1.1/DTD/svg11.dtd">
<svg version="1.1" id="Слой_1" xmlns="http://www.w3.org/2000/svg" xmlns:xlink="http://www.w3.org/1999/xlink" x="0px" y="0px"
	 width="44px" height="44px" viewBox="0 0 44 44" enable-background="new 0 0 44 44" xml:space="preserve">
<g>
	<path fill="#5F666F" d="M43.314,16.532C40.884,7.027,32.263,0,22,0C9.85,0,0,9.85,0,22c0,10.262,7.027,18.883,16.532,21.315
		C18.28,43.762,20.112,44,22,44c12.15,0,22-9.85,22-22C44,20.112,43.762,18.28,43.314,16.532z"/>
	<polygon fill="#FFFFFF" points="29.197,10.724 6.511,10.724 6.511,33.411 29.197,33.411 33.923,22.067 	"/>
	<polygon fill="#9DDAD2" points="29.197,10.724 29.197,12.615 30.142,13.56 29.197,14.505 29.197,16.396 30.142,17.341 
		29.197,18.287 29.197,20.177 30.142,21.122 29.197,22.067 29.197,23.958 30.142,24.903 29.197,25.848 29.197,33.411 37.704,33.411 
		37.704,25.848 36.759,24.903 37.704,23.958 37.704,22.067 36.759,21.122 37.704,20.177 37.704,18.287 36.759,17.341 37.704,16.396 
		37.704,14.505 36.759,13.56 37.704,12.615 37.704,10.724 	"/>
	<path fill="#C4E0DC" d="M17.854,12.615l-3.781,9.453l3.781,9.453c5.22,0,9.452-4.232,9.452-9.453
		C27.307,16.846,23.074,12.615,17.854,12.615z"/>
	<path fill="#DFF3F1" d="M8.401,22.067c0,5.22,4.232,9.453,9.453,9.453V12.615C12.634,12.615,8.401,16.846,8.401,22.067z"/>
	<path fill="#80D0BC" d="M19.744,20.177v-2.69c0-1.516-1.229-2.745-2.744-2.745h-1.037v5.435h-2.69
		c-1.516,0-2.744,1.229-2.744,2.745v1.036h5.435v2.69c0,1.517,1.229,2.745,2.745,2.745h1.036v-5.436h2.69
		c1.517,0,2.745-1.229,2.745-2.744v-1.037H19.744z"/>
	<path fill="#DFF3F1" d="M17.854,18.759l-1.324,3.309l1.324,3.308c1.826,0,3.308-1.48,3.308-3.308S19.681,18.759,17.854,18.759z"/>
	<path fill="#C1E8E3" d="M14.546,22.067c0,1.828,1.48,3.308,3.309,3.308v-6.617C16.026,18.759,14.546,20.24,14.546,22.067z"/>
	<path fill="#FFFFFF" d="M17.854,20.649l-0.567,1.418l0.567,1.417c0.782,0,1.417-0.635,1.417-1.417
		C19.271,21.284,18.637,20.649,17.854,20.649z"/>
	<path fill="#FFFFFF" d="M16.436,22.067c0,0.783,0.635,1.417,1.419,1.417v-2.835C17.07,20.649,16.436,21.284,16.436,22.067z"/>
	<g>
		<rect x="29.197" y="12.615" fill="#C1E8E3" width="8.507" height="1.891"/>
		<rect x="29.197" y="16.396" fill="#C1E8E3" width="8.507" height="1.891"/>
		<rect x="29.197" y="20.177" fill="#C1E8E3" width="8.507" height="1.891"/>
		<rect x="29.197" y="23.958" fill="#C1E8E3" width="8.507" height="1.891"/>
	</g>
	<rect x="31.087" y="27.739" fill="#C1E8E3" width="4.727" height="3.781"/>
</g>
</svg>
