<?xml version="1.0" encoding="utf-8"?>
<!-- Generator: Adobe Illustrator 16.0.0, SVG Export Plug-In . SVG Version: 6.00 Build 0)  -->
<!DOCTYPE svg PUBLIC "-//W3C//DTD SVG 1.1//EN" "http://www.w3.org/Graphics/SVG/1.1/DTD/svg11.dtd">
<svg version="1.1" id="Слой_1" xmlns="http://www.w3.org/2000/svg" xmlns:xlink="http://www.w3.org/1999/xlink" x="0px" y="0px"
	 width="222px" height="62.695px" viewBox="0 0 222 62.695" enable-background="new 0 0 222 62.695" xml:space="preserve">
<g>
	<g>
		<path fill="#83D293" d="M69.761,32.087c0.62,13.506-13.424,25.541-31.476,29.622C20.233,65.987,6.196,54.24,6.814,32.464
			C7.429,10.723,21.527-3.308,38.289,0.802C55.053,4.641,69.148,18.616,69.761,32.087z"/>
		<path fill="#5EA5DD" d="M63.05,31.511c1.445,14.625-12.635,27.736-31.474,30.725c-18.839,3.093-32.918-9.7-31.475-30.108
			C1.545,11.739,15.64-2.426,31.577,0.347C47.516,2.98,61.607,16.905,63.05,31.511z"/>
		<g>
			<g>
				<path fill="#FFFFFF" d="M28.086,25.919c0.492,1.436,0.986,2.851,1.47,4.205c0.057,0.166,0.116,0.327,0.175,0.49
					c1.088-2.842,2.125-5.682,3.107-8.522h-3.969c-0.334,1.013-0.682,2.047-1.035,3.091L28.086,25.919z"/>
				<path fill="#FFFFFF" d="M24.657,34.067c-0.061,0.155-0.12,0.318-0.178,0.471c-0.491,1.283-0.964,2.465-1.414,3.541
					c-0.474-1.076-0.953-2.263-1.445-3.556c-0.49-1.294-0.981-2.63-1.473-4.012c-0.492-1.38-0.981-2.786-1.474-4.216
					c-0.49-1.431-0.973-2.831-1.444-4.203h-4.086c1.177,3.468,2.446,6.937,3.809,10.403c1.363,3.469,2.78,6.789,4.25,9.964h3.555
					c0.595-1.28,1.176-2.593,1.752-3.92C25.879,37.075,25.263,35.581,24.657,34.067z"/>
			</g>
			<g>
				<path fill="#FFFFFF" d="M42.338,39.256c1.332,0,2.303-0.226,2.908-0.677c0.607-0.451,0.912-1.088,0.912-1.91
					c0-0.488-0.104-0.911-0.309-1.264c-0.207-0.353-0.499-0.671-0.882-0.955c-0.383-0.283-0.848-0.549-1.396-0.793
					c-0.548-0.245-1.176-0.484-1.882-0.721c-0.705-0.254-1.384-0.532-2.041-0.838c-0.657-0.303-1.234-0.68-1.733-1.13
					c-0.5-0.451-0.901-0.99-1.206-1.617c-0.304-0.627-0.456-1.382-0.456-2.264c0-1.841,0.638-3.286,1.911-4.335
					c1.273-1.048,3.009-1.572,5.201-1.572c1.275,0,2.406,0.144,3.396,0.427c0.988,0.284,1.769,0.592,2.336,0.925l-1.145,2.997
					c-0.667-0.372-1.398-0.656-2.191-0.852c-0.793-0.196-1.612-0.294-2.454-0.294c-0.998,0-1.778,0.206-2.335,0.617
					c-0.561,0.41-0.839,0.989-0.839,1.734c0,0.45,0.092,0.838,0.278,1.162c0.188,0.322,0.451,0.612,0.794,0.865
					c0.343,0.255,0.744,0.491,1.206,0.706c0.459,0.216,0.963,0.423,1.514,0.618c0.96,0.353,1.816,0.71,2.57,1.072
					c0.755,0.362,1.393,0.793,1.912,1.292c0.518,0.5,0.915,1.088,1.189,1.764c0.274,0.677,0.41,1.494,0.41,2.454
					c0,1.842-0.65,3.266-1.953,4.275c-1.304,1.009-3.209,1.515-5.717,1.515c-0.843,0-1.611-0.055-2.307-0.163
					c-0.695-0.106-1.313-0.238-1.853-0.396c-0.538-0.156-1.004-0.317-1.396-0.483c-0.391-0.166-0.703-0.319-0.938-0.456l1.087-3.028
					c0.527,0.296,1.244,0.59,2.146,0.882C39.977,39.107,41.063,39.256,42.338,39.256z"/>
			</g>
			<path fill="#FFFFFF" d="M37.474,32.103c-0.114-0.09-0.226-0.181-0.334-0.278c-0.608-0.548-1.103-1.212-1.47-1.969
				c-0.259-0.534-0.424-1.142-0.507-1.806c-0.29,0.831-0.583,1.659-0.878,2.478c-0.502,1.391-0.997,2.728-1.488,4.011
				c-0.49,1.283-0.963,2.464-1.415,3.541c-0.471-1.077-0.952-2.263-1.442-3.556c-0.491-1.294-0.982-2.631-1.473-4.012
				c-0.493-1.381-0.983-2.786-1.474-4.216c-0.493-1.431-0.974-2.831-1.443-4.203h-4.088c1.177,3.468,2.445,6.937,3.809,10.403
				c1.362,3.468,2.779,6.788,4.249,9.964h3.555c1.475-3.176,2.892-6.496,4.247-9.964C37.373,32.365,37.423,32.234,37.474,32.103z"/>
		</g>
	</g>
	<g>
		<path fill="#5EA5DD" d="M92.244,32.189c-0.435,1.667-0.903,3.291-1.405,4.872c-0.502,1.582-0.997,3.072-1.489,4.475h-2.823
			c-0.378-0.871-0.776-1.865-1.193-2.983c-0.417-1.117-0.837-2.31-1.253-3.579c-0.418-1.269-0.835-2.604-1.253-4.005
			c-0.417-1.401-0.825-2.831-1.224-4.29h3.638c0.171,0.795,0.371,1.652,0.6,2.57c0.229,0.919,0.466,1.856,0.714,2.813
			c0.248,0.957,0.505,1.889,0.771,2.799c0.268,0.908,0.534,1.742,0.8,2.5c0.285-0.871,0.564-1.771,0.84-2.699
			s0.537-1.856,0.783-2.783c0.247-0.928,0.479-1.832,0.697-2.713c0.219-0.881,0.413-1.71,0.584-2.486h2.643
			c0.169,0.776,0.359,1.605,0.565,2.486c0.208,0.881,0.431,1.785,0.667,2.713c0.235,0.927,0.492,1.855,0.765,2.783
			c0.273,0.928,0.554,1.828,0.836,2.699c0.247-0.758,0.505-1.592,0.771-2.5c0.267-0.91,0.528-1.842,0.786-2.799
			c0.257-0.956,0.499-1.893,0.728-2.813c0.229-0.918,0.428-1.775,0.6-2.57h3.553c-0.399,1.458-0.808,2.889-1.225,4.29
			c-0.417,1.401-0.835,2.737-1.253,4.005c-0.417,1.27-0.834,2.462-1.252,3.579c-0.417,1.118-0.825,2.112-1.224,2.983h-2.794
			c-0.492-1.402-0.998-2.893-1.519-4.475C93.156,35.48,92.68,33.856,92.244,32.189z"/>
		<path fill="#5EA5DD" d="M110.469,26.309c1.137,0,2.092,0.143,2.869,0.426c0.776,0.285,1.396,0.682,1.86,1.193
			c0.465,0.512,0.796,1.132,0.994,1.861s0.299,1.53,0.299,2.4v9.006c-0.531,0.113-1.33,0.251-2.4,0.411s-2.278,0.242-3.622,0.242
			c-0.891,0-1.705-0.086-2.442-0.256c-0.74-0.171-1.369-0.445-1.892-0.824c-0.52-0.379-0.927-0.871-1.221-1.477
			s-0.439-1.354-0.439-2.244c0-0.854,0.165-1.572,0.497-2.159c0.331-0.587,0.78-1.064,1.349-1.435
			c0.568-0.369,1.227-0.635,1.975-0.796c0.748-0.16,1.529-0.241,2.345-0.241c0.377,0,0.776,0.023,1.191,0.071
			c0.418,0.046,0.861,0.127,1.336,0.241v-0.568c0-0.398-0.048-0.776-0.142-1.136c-0.097-0.36-0.261-0.677-0.497-0.952
			c-0.236-0.274-0.55-0.487-0.938-0.64c-0.388-0.15-0.876-0.227-1.463-0.227c-0.795,0-1.524,0.058-2.187,0.17
			c-0.664,0.114-1.203,0.246-1.62,0.397l-0.426-2.784c0.436-0.151,1.07-0.303,1.903-0.454
			C108.632,26.385,109.521,26.309,110.469,26.309z M110.753,39.121c1.06,0,1.865-0.058,2.415-0.171v-3.807
			c-0.19-0.056-0.464-0.113-0.825-0.17c-0.359-0.057-0.756-0.085-1.192-0.085c-0.379,0-0.762,0.028-1.15,0.085
			c-0.388,0.057-0.738,0.161-1.051,0.313s-0.564,0.365-0.752,0.64c-0.19,0.274-0.285,0.62-0.285,1.036
			c0,0.814,0.256,1.378,0.767,1.69C109.19,38.966,109.881,39.121,110.753,39.121z"/>
		<path fill="#5EA5DD" d="M120.525,22.759l3.438-0.569v4.489h5.284v2.869h-5.284v6.051c0,1.193,0.188,2.045,0.567,2.558
			c0.379,0.511,1.022,0.767,1.933,0.767c0.625,0,1.179-0.066,1.661-0.199c0.483-0.133,0.868-0.256,1.151-0.369l0.568,2.728
			c-0.397,0.169-0.921,0.345-1.563,0.525c-0.646,0.179-1.402,0.27-2.273,0.27c-1.06,0-1.944-0.142-2.656-0.426
			c-0.71-0.284-1.273-0.696-1.691-1.236c-0.415-0.539-0.708-1.193-0.88-1.96c-0.17-0.767-0.255-1.643-0.255-2.627V22.759
			L120.525,22.759z"/>
		<path fill="#5EA5DD" d="M131.491,34.179c0-1.307,0.194-2.453,0.582-3.438c0.389-0.984,0.904-1.805,1.548-2.458
			c0.644-0.654,1.383-1.146,2.217-1.477c0.833-0.332,1.686-0.498,2.556-0.498c2.046,0,3.642,0.635,4.788,1.903
			c1.145,1.27,1.718,3.163,1.718,5.682c0,0.189-0.004,0.403-0.013,0.641c-0.011,0.236-0.025,0.449-0.044,0.639h-9.801
			c0.095,1.192,0.517,2.115,1.265,2.77c0.749,0.652,1.832,0.98,3.253,0.98c0.833,0,1.596-0.076,2.287-0.229
			c0.69-0.15,1.235-0.313,1.633-0.481l0.454,2.812c-0.189,0.096-0.45,0.194-0.78,0.299c-0.332,0.104-0.711,0.198-1.136,0.283
			c-0.427,0.086-0.887,0.156-1.379,0.213c-0.493,0.058-0.994,0.086-1.506,0.086c-1.307,0-2.442-0.193-3.408-0.582
			c-0.967-0.389-1.763-0.928-2.388-1.619c-0.624-0.691-1.089-1.506-1.392-2.443C131.642,36.322,131.491,35.296,131.491,34.179z
			 M141.463,32.644c0-0.472-0.068-0.923-0.2-1.35c-0.132-0.425-0.325-0.795-0.581-1.106c-0.256-0.313-0.568-0.559-0.938-0.739
			c-0.369-0.18-0.809-0.269-1.32-0.269c-0.529,0-0.995,0.099-1.391,0.297c-0.399,0.2-0.736,0.46-1.01,0.782
			c-0.274,0.322-0.487,0.692-0.639,1.108c-0.153,0.416-0.256,0.842-0.313,1.277H141.463L141.463,32.644z"/>
		<path fill="#5EA5DD" d="M157.002,29.774c-0.284-0.094-0.678-0.193-1.18-0.298c-0.501-0.103-1.084-0.156-1.746-0.156
			c-0.379,0-0.781,0.038-1.208,0.113c-0.426,0.076-0.725,0.143-0.895,0.2v11.903h-3.438V27.389c0.663-0.246,1.492-0.478,2.486-0.696
			c0.994-0.218,2.098-0.327,3.311-0.327c0.226,0,0.49,0.015,0.795,0.042c0.302,0.028,0.605,0.066,0.908,0.114
			c0.303,0.048,0.597,0.104,0.881,0.17c0.284,0.067,0.511,0.128,0.682,0.185L157.002,29.774z"/>
		<g>
			<path fill="#5F666F" d="M163.253,40.229c1.06,0,1.936-0.175,2.626-0.526c0.691-0.351,1.038-0.942,1.038-1.775
				c0-0.397-0.063-0.738-0.185-1.022c-0.123-0.284-0.327-0.54-0.611-0.767c-0.284-0.228-0.657-0.445-1.122-0.653
				c-0.464-0.208-1.036-0.455-1.718-0.738c-0.55-0.229-1.07-0.461-1.563-0.697c-0.491-0.236-0.929-0.511-1.306-0.822
				c-0.38-0.313-0.683-0.687-0.91-1.124c-0.227-0.435-0.342-0.965-0.342-1.59c0-1.193,0.45-2.158,1.35-2.897
				c0.9-0.739,2.137-1.108,3.709-1.108c1.002,0,1.832,0.085,2.486,0.256c0.652,0.17,1.11,0.321,1.377,0.454l-0.426,1.648
				c-0.227-0.114-0.61-0.265-1.151-0.455c-0.539-0.189-1.331-0.285-2.371-0.285c-0.417,0-0.81,0.044-1.179,0.129
				c-0.37,0.085-0.696,0.219-0.98,0.398c-0.284,0.18-0.511,0.408-0.682,0.684s-0.257,0.612-0.257,1.011
				c0,0.397,0.076,0.739,0.229,1.024c0.152,0.285,0.373,0.536,0.668,0.754c0.292,0.218,0.652,0.421,1.078,0.61
				c0.427,0.188,0.914,0.396,1.464,0.623c0.567,0.227,1.111,0.458,1.634,0.692c0.521,0.236,0.979,0.521,1.377,0.851
				c0.397,0.332,0.721,0.729,0.967,1.194c0.246,0.464,0.369,1.046,0.369,1.746c0,1.325-0.498,2.33-1.491,3.012
				c-0.995,0.682-2.354,1.022-4.076,1.022c-1.289,0-2.274-0.11-2.955-0.327c-0.682-0.217-1.138-0.383-1.363-0.497l0.482-1.676
				c0.057,0.038,0.181,0.1,0.37,0.185c0.188,0.086,0.444,0.18,0.766,0.284s0.706,0.194,1.151,0.269
				C162.148,40.191,162.664,40.229,163.253,40.229z"/>
		</g>
		<g>
			<path fill="#5F666F" d="M174.132,26.85h5.854v1.562h-5.854v7.812c0,0.834,0.071,1.51,0.213,2.03
				c0.143,0.521,0.346,0.925,0.61,1.208c0.266,0.284,0.588,0.474,0.967,0.568c0.378,0.095,0.795,0.142,1.25,0.142
				c0.776,0,1.401-0.09,1.875-0.271c0.473-0.179,0.843-0.344,1.108-0.496l0.454,1.534c-0.266,0.17-0.729,0.364-1.392,0.582
				c-0.664,0.218-1.383,0.326-2.159,0.326c-0.909,0-1.672-0.118-2.287-0.354c-0.616-0.236-1.109-0.597-1.478-1.08
				c-0.368-0.482-0.629-1.084-0.78-1.804c-0.153-0.719-0.229-1.571-0.229-2.556V22.531l1.847-0.341V26.85L174.132,26.85z"/>
		</g>
		<g>
			<path fill="#5F666F" d="M204.926,26.564c0.605,0,1.18,0.048,1.719,0.143c0.539,0.095,0.914,0.189,1.122,0.284l-0.369,1.591
				c-0.152-0.076-0.46-0.157-0.923-0.242c-0.466-0.085-1.075-0.128-1.833-0.128c-0.796,0-1.435,0.057-1.918,0.17
				c-0.481,0.114-0.8,0.208-0.951,0.285v12.869h-1.848V27.531c0.474-0.208,1.128-0.421,1.961-0.639
				C202.72,26.674,203.732,26.564,204.926,26.564z"/>
		</g>
		<g>
			<path fill="#5F666F" d="M209.67,34.179c0-1.288,0.185-2.41,0.555-3.367s0.852-1.756,1.448-2.4s1.279-1.123,2.046-1.435
				c0.768-0.313,1.558-0.469,2.373-0.469c1.799,0,3.233,0.588,4.304,1.761c1.068,1.174,1.604,2.982,1.604,5.427
				c0,0.15-0.005,0.303-0.014,0.453c-0.011,0.152-0.024,0.294-0.043,0.426h-10.313c0.057,1.801,0.501,3.182,1.336,4.147
				c0.832,0.967,2.158,1.449,3.977,1.449c1.004,0,1.799-0.095,2.386-0.283c0.588-0.19,1.014-0.351,1.279-0.483l0.341,1.591
				c-0.266,0.151-0.763,0.331-1.491,0.54c-0.729,0.207-1.588,0.312-2.571,0.312c-1.289,0-2.387-0.189-3.295-0.567
				c-0.91-0.379-1.658-0.909-2.245-1.591c-0.588-0.683-1.012-1.491-1.278-2.429C209.804,36.322,209.67,35.296,209.67,34.179z
				 M220.097,33.014c-0.038-1.534-0.398-2.728-1.08-3.58c-0.683-0.852-1.648-1.277-2.897-1.277c-0.663,0-1.255,0.132-1.776,0.397
				c-0.521,0.266-0.975,0.622-1.363,1.065c-0.389,0.445-0.69,0.961-0.908,1.547c-0.219,0.588-0.346,1.204-0.384,1.848H220.097z"/>
		</g>
		<g>
			<path fill="#5F666F" d="M189.887,42.112c-3.456,0-6.269-2.811-6.269-6.268c0-0.508,0.062-1.014,0.184-1.504
				c0.135-0.551,0.348-1.084,0.63-1.582l1.598,0.906c-0.198,0.352-0.348,0.727-0.443,1.116c-0.087,0.347-0.13,0.704-0.13,1.063
				c0,2.443,1.987,4.431,4.431,4.431s4.432-1.987,4.432-4.431c0-0.355-0.044-0.713-0.13-1.064c-0.096-0.389-0.245-0.764-0.444-1.115
				l-0.038-0.074c-0.891-1.972-2.203-3.753-3.82-5.195c-0.605,0.54-1.171,1.129-1.686,1.757l-1.422-1.165
				c0.756-0.921,1.606-1.766,2.53-2.512l0.577-0.466l0.577,0.466c2.095,1.689,3.788,3.874,4.901,6.321
				c0.271,0.486,0.477,1.006,0.609,1.545c0.121,0.494,0.182,1,0.182,1.502C196.156,39.302,193.344,42.112,189.887,42.112z"/>
		</g>
	</g>
</g>
</svg>
